<svg width="40" height="40" viewBox="0 0 40 40" fill="none" xmlns="http://www.w3.org/2000/svg">
<path d="M38.7097 38.7097V26.4516C38.7097 26.2805 38.6417 26.1164 38.5207 25.9954C38.3997 25.8744 38.2356 25.8064 38.0645 25.8064H37.4194V3.22581C37.4194 3.0547 37.3514 2.8906 37.2304 2.76961C37.1094 2.64862 36.9453 2.58065 36.7742 2.58065H34.8387V0.645161C34.8387 0.474054 34.7707 0.309955 34.6497 0.188963C34.5288 0.0679721 34.3647 0 34.1935 0H26.4516C26.2805 0 26.1164 0.0679721 25.9954 0.188963C25.8744 0.309955 25.8064 0.474054 25.8064 0.645161V2.58065H23.871C23.6999 2.58065 23.5358 2.64862 23.4148 2.76961C23.2938 2.8906 23.2258 3.0547 23.2258 3.22581V14.1935H18.7097C18.5386 14.1935 18.3745 14.2615 18.2535 14.3825C18.1325 14.5035 18.0645 14.6676 18.0645 14.8387V27.0968H16.7742V14.8387C16.7742 14.6676 16.7062 14.5035 16.5852 14.3825C16.4642 14.2615 16.3001 14.1935 16.129 14.1935H1.93548C1.76438 14.1935 1.60028 14.2615 1.47929 14.3825C1.35829 14.5035 1.29032 14.6676 1.29032 14.8387V38.7097H0V40H40V38.7097H38.7097ZM21.2903 36.129H10.9677V28.3871H21.2903V36.129ZM10.9677 37.4194H21.2903V38.7097H10.9677V37.4194ZM22.5806 30.9677H27.7419V32.2581H22.5806V30.9677ZM28.3871 6.45161V14.1935H27.0968V6.45161H28.3871ZM32.2581 25.8064V6.45161H33.5484V25.8064H32.2581ZM30.9677 14.1935H29.6774V6.45161H30.9677V14.1935ZM30.9677 15.4839V20.6452H25.8064V15.4839H30.9677ZM30.9677 21.9355V23.2258H19.3548V21.9355H30.9677ZM30.9677 24.5161V25.8064H28.3871C28.216 25.8064 28.0519 25.8744 27.9309 25.9954C27.8099 26.1164 27.7419 26.2805 27.7419 26.4516V29.6774H25.8064V24.5161H30.9677ZM22.5806 33.5484H27.7419V38.7097H22.5806V33.5484ZM29.0323 27.0968H37.4194V38.7097H29.0323V27.0968ZM34.8387 25.8064V6.45161H36.129V25.8064H34.8387ZM26.4516 3.87097C26.6227 3.87097 26.7868 3.803 26.9078 3.682C27.0288 3.56101 27.0968 3.39691 27.0968 3.22581V1.29032H33.5484V3.22581C33.5484 3.39691 33.6164 3.56101 33.7374 3.682C33.8583 3.803 34.0224 3.87097 34.1935 3.87097H36.129V5.16129H24.5161V3.87097H26.4516ZM24.5161 6.45161H25.8064V14.1935H24.5161V6.45161ZM24.5161 15.4839V20.6452H19.3548V15.4839H24.5161ZM19.3548 24.5161H24.5161V29.6774H22.5806V27.7419C22.5806 27.5708 22.5127 27.4067 22.3917 27.2857C22.2707 27.1647 22.1066 27.0968 21.9355 27.0968H19.3548V24.5161ZM2.58065 15.4839H15.4839V27.0968H10.3226C10.1515 27.0968 9.98737 27.1647 9.86638 27.2857C9.74539 27.4067 9.67742 27.5708 9.67742 27.7419V38.7097H2.58065V15.4839Z" fill="#01000F"/>
<path d="M7.742 21.9355H5.16135C4.99025 21.9355 4.82615 22.0035 4.70516 22.1244C4.58416 22.2454 4.51619 22.4095 4.51619 22.5806V25.1613C4.51619 25.3324 4.58416 25.4965 4.70516 25.6175C4.82615 25.7385 4.99025 25.8065 5.16135 25.8065H7.742C7.91311 25.8065 8.07721 25.7385 8.1982 25.6175C8.31919 25.4965 8.38716 25.3324 8.38716 25.1613V22.5806C8.38716 22.4095 8.31919 22.2454 8.1982 22.1244C8.07721 22.0035 7.91311 21.9355 7.742 21.9355ZM7.09684 24.5161H5.80651V23.2258H7.09684V24.5161ZM10.3226 25.8065H12.9033C13.0744 25.8065 13.2385 25.7385 13.3595 25.6175C13.4805 25.4965 13.5485 25.3324 13.5485 25.1613V22.5806C13.5485 22.4095 13.4805 22.2454 13.3595 22.1244C13.2385 22.0035 13.0744 21.9355 12.9033 21.9355H10.3226C10.1515 21.9355 9.98744 22.0035 9.86645 22.1244C9.74545 22.2454 9.67748 22.4095 9.67748 22.5806V25.1613C9.67748 25.3324 9.74545 25.4965 9.86645 25.6175C9.98744 25.7385 10.1515 25.8065 10.3226 25.8065ZM10.9678 23.2258H12.2581V24.5161H10.9678V23.2258ZM7.742 16.7742H5.16135C4.99025 16.7742 4.82615 16.8422 4.70516 16.9632C4.58416 17.0842 4.51619 17.2482 4.51619 17.4194V20C4.51619 20.1711 4.58416 20.3352 4.70516 20.4562C4.82615 20.5772 4.99025 20.6452 5.16135 20.6452H7.742C7.91311 20.6452 8.07721 20.5772 8.1982 20.4562C8.31919 20.3352 8.38716 20.1711 8.38716 20V17.4194C8.38716 17.2482 8.31919 17.0842 8.1982 16.9632C8.07721 16.8422 7.91311 16.7742 7.742 16.7742ZM7.09684 19.3548H5.80651V18.0645H7.09684V19.3548ZM10.3226 20.6452H12.9033C13.0744 20.6452 13.2385 20.5772 13.3595 20.4562C13.4805 20.3352 13.5485 20.1711 13.5485 20V17.4194C13.5485 17.2482 13.4805 17.0842 13.3595 16.9632C13.2385 16.8422 13.0744 16.7742 12.9033 16.7742H10.3226C10.1515 16.7742 9.98744 16.8422 9.86645 16.9632C9.74545 17.0842 9.67748 17.2482 9.67748 17.4194V20C9.67748 20.1711 9.74545 20.3352 9.86645 20.4562C9.98744 20.5772 10.1515 20.6452 10.3226 20.6452ZM10.9678 18.0645H12.2581V19.3548H10.9678V18.0645ZM7.742 27.0968H5.16135C4.99025 27.0968 4.82615 27.1647 4.70516 27.2857C4.58416 27.4067 4.51619 27.5708 4.51619 27.7419V30.3226C4.51619 30.4937 4.58416 30.6578 4.70516 30.7788C4.82615 30.8998 4.99025 30.9677 5.16135 30.9677H7.742C7.91311 30.9677 8.07721 30.8998 8.1982 30.7788C8.31919 30.6578 8.38716 30.4937 8.38716 30.3226V27.7419C8.38716 27.5708 8.31919 27.4067 8.1982 27.2857C8.07721 27.1647 7.91311 27.0968 7.742 27.0968ZM7.09684 29.6774H5.80651V28.3871H7.09684V29.6774ZM7.742 32.2581H5.16135C4.99025 32.2581 4.82615 32.326 4.70516 32.447C4.58416 32.568 4.51619 32.7321 4.51619 32.9032V35.4839C4.51619 35.655 4.58416 35.8191 4.70516 35.9401C4.82615 36.0611 4.99025 36.129 5.16135 36.129H7.742C7.91311 36.129 8.07721 36.0611 8.1982 35.9401C8.31919 35.8191 8.38716 35.655 8.38716 35.4839V32.9032C8.38716 32.7321 8.31919 32.568 8.1982 32.447C8.07721 32.326 7.91311 32.2581 7.742 32.2581ZM7.09684 34.8387H5.80651V33.5484H7.09684V34.8387ZM30.3226 29.6774H36.1291V30.9677H30.3226V29.6774ZM30.3226 32.2581H36.1291V33.5484H30.3226V32.2581ZM30.3226 34.8387H36.1291V36.129H30.3226V34.8387ZM12.9033 34.8387H19.3549C19.526 34.8387 19.6901 34.7707 19.8111 34.6497C19.9321 34.5288 20.0001 34.3647 20.0001 34.1936V30.3226C20.0001 30.1515 19.9321 29.9874 19.8111 29.8664C19.6901 29.7454 19.526 29.6774 19.3549 29.6774H12.9033C12.7322 29.6774 12.5681 29.7454 12.4471 29.8664C12.3261 29.9874 12.2581 30.1515 12.2581 30.3226V34.1936C12.2581 34.3647 12.3261 34.5288 12.4471 34.6497C12.5681 34.7707 12.7322 34.8387 12.9033 34.8387ZM18.7097 33.5484H16.7743V30.9677H18.7097V33.5484ZM13.5485 30.9677H15.4839V33.5484H13.5485V30.9677ZM3.87103 10.9677C4.38435 10.9677 4.87665 10.7638 5.23962 10.4009C5.6026 10.0379 5.80651 9.54558 5.80651 9.03226C5.8054 8.74485 5.73923 8.46142 5.61297 8.20323L8.20329 5.6129C8.46098 5.74066 8.7447 5.80713 9.03232 5.80713C9.31994 5.80713 9.60367 5.74066 9.86135 5.6129L11.8065 7.55807C11.6802 7.81626 11.6141 8.09969 11.613 8.3871C11.613 8.90042 11.8169 9.39272 12.1799 9.75569C12.5428 10.1187 13.0351 10.3226 13.5485 10.3226C14.0618 10.3226 14.5541 10.1187 14.917 9.75569C15.28 9.39272 15.4839 8.90042 15.4839 8.3871C15.4828 8.09969 15.4167 7.81626 15.2904 7.55807L19.171 3.67742C19.4292 3.80369 19.7127 3.86986 20.0001 3.87097C20.3829 3.87097 20.7571 3.75745 21.0754 3.54478C21.3937 3.33211 21.6417 3.02983 21.7882 2.67616C21.9347 2.3225 21.973 1.93334 21.8984 1.55789C21.8237 1.18244 21.6393 0.837573 21.3687 0.566891C21.098 0.296209 20.7531 0.111872 20.3777 0.0371907C20.0022 -0.0374904 19.6131 0.000838618 19.2594 0.147331C18.9057 0.293823 18.6034 0.541899 18.3908 0.860188C18.1781 1.17848 18.0646 1.55268 18.0646 1.93548C18.0657 2.2229 18.1319 2.50632 18.2581 2.76452L14.3775 6.64516C14.1198 6.51741 13.8361 6.45094 13.5485 6.45094C13.2608 6.45094 12.9771 6.51741 12.7194 6.64516L10.7743 4.7C10.9005 4.44181 10.9667 4.15838 10.9678 3.87097C10.9678 3.35765 10.7639 2.86535 10.4009 2.50238C10.0379 2.1394 9.54564 1.93548 9.03232 1.93548C8.519 1.93548 8.0267 2.1394 7.66373 2.50238C7.30075 2.86535 7.09684 3.35765 7.09684 3.87097C7.09795 4.15838 7.16412 4.44181 7.29039 4.7L4.70006 7.29032C4.44187 7.16406 4.15844 7.09789 3.87103 7.09678C3.35771 7.09678 2.86541 7.30069 2.50244 7.66367C2.13946 8.02664 1.93555 8.51894 1.93555 9.03226C1.93555 9.54558 2.13946 10.0379 2.50244 10.4009C2.86541 10.7638 3.35771 10.9677 3.87103 10.9677ZM20.0001 1.29032C20.1277 1.29032 20.2524 1.32816 20.3585 1.39905C20.4646 1.46994 20.5473 1.5707 20.5961 1.68859C20.6449 1.80648 20.6577 1.9362 20.6328 2.06135C20.6079 2.1865 20.5465 2.30146 20.4563 2.39168C20.366 2.48191 20.2511 2.54336 20.1259 2.56825C20.0008 2.59314 19.8711 2.58037 19.7532 2.53154C19.6353 2.48271 19.5345 2.40001 19.4636 2.29392C19.3927 2.18782 19.3549 2.06309 19.3549 1.93548C19.3549 1.76438 19.4229 1.60028 19.5439 1.47929C19.6649 1.3583 19.829 1.29032 20.0001 1.29032ZM14.1936 8.3871C14.1936 8.5147 14.1558 8.63943 14.0849 8.74553C14.014 8.85163 13.9132 8.93432 13.7953 8.98315C13.6775 9.03198 13.5477 9.04476 13.4226 9.01986C13.2974 8.99497 13.1825 8.93352 13.0923 8.8433C13.002 8.75307 12.9406 8.63811 12.9157 8.51296C12.8908 8.38781 12.9036 8.25809 12.9524 8.14021C13.0012 8.02232 13.0839 7.92156 13.19 7.85067C13.2961 7.77977 13.4208 7.74194 13.5485 7.74194C13.7196 7.74194 13.8837 7.80991 14.0046 7.9309C14.1256 8.05189 14.1936 8.21599 14.1936 8.3871ZM9.03232 3.22581C9.15992 3.22581 9.28466 3.26365 9.39075 3.33454C9.49685 3.40543 9.57954 3.50619 9.62837 3.62408C9.6772 3.74196 9.68998 3.87168 9.66509 3.99683C9.64019 4.12198 9.57875 4.23694 9.48852 4.32717C9.39829 4.41739 9.28334 4.47884 9.15819 4.50373C9.03304 4.52863 8.90332 4.51585 8.78543 4.46702C8.66754 4.41819 8.56678 4.3355 8.49589 4.2294C8.425 4.1233 8.38716 3.99857 8.38716 3.87097C8.38716 3.69986 8.45513 3.53576 8.57612 3.41477C8.69711 3.29378 8.86121 3.22581 9.03232 3.22581ZM3.87103 8.3871C3.99863 8.3871 4.12337 8.42494 4.22946 8.49583C4.33556 8.56672 4.41825 8.66748 4.46708 8.78537C4.51591 8.90325 4.52869 9.03298 4.5038 9.15812C4.4789 9.28327 4.41746 9.39823 4.32723 9.48846C4.237 9.57868 4.12204 9.64013 3.9969 9.66502C3.87175 9.68992 3.74203 9.67714 3.62414 9.62831C3.50625 9.57948 3.40549 9.49679 3.3346 9.39069C3.26371 9.2846 3.22587 9.15986 3.22587 9.03226C3.22587 8.86115 3.29384 8.69705 3.41483 8.57606C3.53582 8.45507 3.69992 8.3871 3.87103 8.3871Z" fill="#01000F"/>
</svg>
