<svg width="40" height="40" viewBox="0 0 40 40" fill="none" xmlns="http://www.w3.org/2000/svg">
<path d="M38.125 26.25H28.75V20.625C28.75 20.5429 28.7338 20.4616 28.7024 20.3858C28.671 20.31 28.625 20.2411 28.567 20.183L23.567 15.183C23.4497 15.0658 23.2908 15 23.125 15C22.9592 15 22.8003 15.0658 22.683 15.183L20 17.8661L17.317 15.183C17.1997 15.0658 17.0408 15 16.875 15C16.7092 15 16.5503 15.0658 16.433 15.183L14.9924 16.6237C14.912 15.2445 14.1744 13.9852 13.0445 13.2307C13.496 12.6807 13.75 11.9865 13.75 11.25C13.7505 10.7929 13.6504 10.3413 13.4568 9.92719L16.067 7.31695C16.125 7.25892 16.171 7.19002 16.2024 7.11418C16.2339 7.03835 16.25 6.95708 16.25 6.875C16.25 6.79292 16.2339 6.71165 16.2024 6.63582C16.171 6.55998 16.125 6.49108 16.067 6.43305L11.067 1.43305C11.0089 1.37501 10.94 1.32898 10.8642 1.29757C10.7884 1.26616 10.7071 1.25 10.625 1.25H1.875C1.70924 1.25 1.55027 1.31585 1.43306 1.43306C1.31585 1.55027 1.25 1.70924 1.25 1.875V7.5C1.25 7.66576 1.31585 7.82473 1.43306 7.94194C1.55027 8.05915 1.70924 8.125 1.875 8.125H4.74117L7.52109 10.905C7.50852 11.0192 7.5 11.1341 7.5 11.25C7.5 11.9865 7.75398 12.6807 8.20555 13.2307C7.00734 14.0308 6.25 15.3984 6.25 16.875C6.25 18.5746 7.23797 20.1114 8.75 20.829V22.5C8.75 22.6658 8.81585 22.8247 8.93306 22.9419C9.05027 23.0592 9.20924 23.125 9.375 23.125H11.25V26.25H1.875C1.70924 26.25 1.55027 26.3158 1.43306 26.4331C1.31585 26.5503 1.25 26.7092 1.25 26.875V29.375C1.25 29.5408 1.31585 29.6997 1.43306 29.8169C1.55027 29.9342 1.70924 30 1.875 30H13.75V33.125C13.75 33.2071 13.7662 33.2883 13.7976 33.3642C13.829 33.44 13.875 33.5089 13.933 33.567L18.933 38.567C18.9911 38.625 19.06 38.671 19.1358 38.7024C19.2116 38.7338 19.2929 38.75 19.375 38.75H28.125C28.2908 38.75 28.4497 38.6842 28.5669 38.5669C28.6842 38.4497 28.75 38.2908 28.75 38.125V33.125C28.75 32.9592 28.6842 32.8003 28.5669 32.6831C28.4497 32.5658 28.2908 32.5 28.125 32.5H25.8838L23.3839 30H38.125C38.2908 30 38.4497 29.9342 38.5669 29.8169C38.6842 29.6997 38.75 29.5408 38.75 29.375V26.875C38.75 26.7092 38.6842 26.5503 38.5669 26.4331C38.4497 26.3158 38.2908 26.25 38.125 26.25ZM7.5 28.75H2.5V27.5H7.5V28.75ZM23.125 16.5088L27.5 20.8838V26.25H25.625V20.625C25.625 20.4592 25.5592 20.3003 25.4419 20.1831C25.3247 20.0658 25.1658 20 25 20H21.25C21.0842 20 20.9253 20.0658 20.8081 20.1831C20.6908 20.3003 20.625 20.4592 20.625 20.625V26.25H18.75V20.8838L23.125 16.5088ZM24.375 26.25H21.875V21.25H24.375V26.25ZM16.875 16.5089L19.1161 18.75L17.8661 20H13.3838L16.875 16.5089ZM5 6.875H2.5V2.5H10.3662L14.7412 6.875L12.7009 8.91523C12.4075 8.65465 12.0679 8.45133 11.6997 8.31578L11.5088 8.125L12.317 7.31695C12.375 7.25892 12.421 7.19002 12.4524 7.11418C12.4839 7.03835 12.5 6.95708 12.5 6.875C12.5 6.79292 12.4839 6.71165 12.4524 6.63582C12.421 6.55998 12.375 6.49108 12.317 6.43305L10.442 4.55805C10.3247 4.44085 10.1658 4.37501 10 4.37501C9.83424 4.37501 9.67527 4.44085 9.55805 4.55805L7.68305 6.43305C7.62501 6.49108 7.57897 6.55998 7.54756 6.63582C7.51614 6.71165 7.49998 6.79292 7.49998 6.875C7.49998 6.95708 7.51614 7.03835 7.54756 7.11418C7.57897 7.19002 7.62501 7.25892 7.68305 7.31695L8.96719 8.60109C8.56584 8.85189 8.22688 9.1908 7.97602 9.59211L5.44195 7.05805C5.38391 7.00001 5.31501 6.95398 5.23918 6.92257C5.16335 6.89116 5.08208 6.875 5 6.875ZM10.183 7.68305C10.1198 7.74614 10.0709 7.82207 10.0396 7.9057L9.00883 6.875L10 5.88383L10.9912 6.875L10.183 7.68305ZM10 21.875V20.4117C9.99999 20.2825 9.95993 20.1564 9.88531 20.0509C9.8107 19.9454 9.7052 19.8656 9.58336 19.8225C8.33727 19.3819 7.5 18.1974 7.5 16.875C7.5 15.5839 8.31047 14.4094 9.51672 13.9524C9.62541 13.9113 9.72048 13.8406 9.79123 13.7484C9.86198 13.6562 9.90561 13.546 9.91722 13.4304C9.92884 13.3147 9.90797 13.1981 9.85697 13.0937C9.80597 12.9893 9.72686 12.9011 9.62852 12.8391C9.07852 12.4926 8.75 11.8985 8.75 11.25C8.75 11.0616 8.77766 10.8762 8.83266 10.6982C8.92232 10.4056 9.0824 10.1395 9.29884 9.92314C9.51529 9.7068 9.7815 9.54686 10.0741 9.45734C10.4283 9.34797 10.8209 9.34773 11.1766 9.45766C11.5769 9.58166 11.9246 9.83529 12.1649 10.1786C12.3838 10.4929 12.5008 10.867 12.5 11.25C12.5 11.8985 12.1716 12.4926 11.6215 12.8391C11.5231 12.9011 11.444 12.9892 11.393 13.0937C11.342 13.1981 11.3211 13.3147 11.3327 13.4304C11.3443 13.546 11.388 13.6561 11.4587 13.7484C11.5295 13.8406 11.6245 13.9112 11.7332 13.9524C12.9396 14.4094 13.75 15.5839 13.75 16.875C13.7508 17.3072 13.6609 17.7347 13.4861 18.13L11.433 20.1831C11.3752 20.2412 11.3294 20.3102 11.2983 20.386C11.2671 20.4618 11.2513 20.543 11.2516 20.625H11.25V21.875H10ZM12.5 21.25H17.5V26.25H12.5V21.25ZM25.625 33.75H27.5V37.5H19.6338L15 32.8661V30H16.25V31.875C16.25 31.9571 16.2662 32.0384 16.2976 32.1142C16.329 32.19 16.375 32.2589 16.433 32.317L19.558 35.442C19.6753 35.5592 19.8342 35.625 20 35.625C20.1658 35.625 20.3247 35.5592 20.442 35.442L22.317 33.567C22.375 33.5089 22.421 33.44 22.4524 33.3642C22.4839 33.2884 22.5 33.2071 22.5 33.125C22.5 33.0429 22.4839 32.9616 22.4524 32.8858C22.421 32.81 22.375 32.7411 22.317 32.683L20.8838 31.25L21.875 30.2589L25.183 33.567C25.2411 33.625 25.31 33.671 25.3858 33.7024C25.4616 33.7338 25.5429 33.75 25.625 33.75ZM19.558 31.692L20.9912 33.125L20 34.1161L17.5 31.6161V30H20.3661L19.558 30.808C19.5 30.8661 19.454 30.935 19.4226 31.0108C19.3911 31.0866 19.375 31.1679 19.375 31.25C19.375 31.3321 19.3911 31.4134 19.4226 31.4892C19.454 31.565 19.5 31.6339 19.558 31.692ZM37.5 28.75H8.75V27.5H37.5V28.75Z" fill="#01000F"/>
<path d="M38.125 1.25H29.375C29.2929 1.25 29.2117 1.26616 29.1358 1.29757C29.06 1.32898 28.9911 1.37501 28.9331 1.43305L25.1831 5.18305C25.125 5.24109 25.079 5.30999 25.0476 5.38582C25.0162 5.46165 25 5.54292 25 5.625V8.75H24.375C24.2929 8.75 24.2117 8.76616 24.1358 8.79757C24.06 8.82898 23.9911 8.87501 23.9331 8.93305L18.9331 13.933C18.8457 14.0205 18.7861 14.1318 18.762 14.2531C18.7379 14.3743 18.7503 14.5 18.7976 14.6142C18.8449 14.7284 18.925 14.826 19.0278 14.8947C19.1306 14.9634 19.2514 15 19.375 15H25.625C25.7071 15 25.7884 14.9838 25.8642 14.9524C25.94 14.921 26.0089 14.875 26.067 14.817L30.625 10.2589L35.1831 14.817L36.067 13.933L32.7589 10.625L35.2589 8.125H38.125C38.2908 8.125 38.4498 8.05915 38.567 7.94194C38.6842 7.82473 38.75 7.66576 38.75 7.5V1.875C38.75 1.70924 38.6842 1.55027 38.567 1.43306C38.4498 1.31585 38.2908 1.25 38.125 1.25ZM25.3662 13.75H20.8839L24.6339 10H29.1162L25.3662 13.75ZM29.5581 8.30805C29.5 8.36609 29.454 8.43499 29.4226 8.51082C29.3912 8.58665 29.375 8.66792 29.375 8.75H28.75V7.13383L30 5.88383L30.9912 6.875L29.5581 8.30805ZM37.5 6.875H35C34.9179 6.875 34.8367 6.89116 34.7608 6.92257C34.685 6.95398 34.6161 7.00001 34.5581 7.05805L31.875 9.74109L31.067 8.93305L31.066 8.93414C31.0028 8.87099 30.9267 8.82215 30.843 8.79094L32.317 7.31695C32.375 7.25892 32.4211 7.19002 32.4525 7.11418C32.4839 7.03835 32.5 6.95708 32.5 6.875C32.5 6.79292 32.4839 6.71165 32.4525 6.63582C32.4211 6.55998 32.375 6.49108 32.317 6.43305L30.442 4.55805C30.3248 4.44085 30.1658 4.37501 30 4.37501C29.8343 4.37501 29.6753 4.44085 29.5581 4.55805L27.6831 6.43305C27.625 6.49109 27.579 6.55999 27.5476 6.63582C27.5162 6.71165 27.5 6.79292 27.5 6.875V8.75H26.25V5.88391L29.6339 2.5H37.5V6.875Z" fill="#01000F"/>
</svg>
