<svg width="40" height="40" viewBox="0 0 40 40" fill="none" xmlns="http://www.w3.org/2000/svg">
<g clip-path="url(#clip0_2004_132)">
<path d="M34.6667 9.99992H36V19.3333H34.6667V9.99992ZM0.0915 32.6558C0.121083 32.7842 0.160167 32.91 0.208667 33.0325C0.227833 33.079 0.2575 33.1197 0.279333 33.1659C0.472841 33.5944 0.785783 33.958 1.18067 34.2132C1.278 34.2744 1.37912 34.3294 1.48342 34.3778C1.5345 34.4033 1.58142 34.4364 1.63475 34.4593C1.75358 34.5051 1.87558 34.5426 2 34.5712C2.04658 34.5833 2.08917 34.6031 2.13667 34.6126C2.3111 34.6481 2.48865 34.6662 2.66667 34.6666H20.6667V33.3333H2.66667C2.57717 33.3333 2.48767 33.3241 2.4 33.3066C2.36783 33.2998 2.33792 33.2863 2.30667 33.2779C2.25397 33.265 2.2021 33.2489 2.15133 33.2298C2.10567 33.2078 2.06114 33.1836 2.01792 33.1572C1.98792 33.1399 1.95608 33.1266 1.92742 33.1077C1.7838 33.0096 1.6598 32.8855 1.56183 32.7418C1.53683 32.7037 1.51792 32.661 1.49542 32.6203C1.47267 32.5797 1.45475 32.5537 1.43942 32.5158C1.41729 32.4599 1.39946 32.4023 1.38608 32.3437C1.37858 32.3176 1.36717 32.2933 1.36192 32.2658C1.32252 32.0723 1.32662 31.8724 1.37392 31.6806C1.42122 31.4888 1.51054 31.3099 1.63542 31.1568C1.7602 31.0038 1.91747 30.8804 2.09583 30.7956C2.27419 30.7108 2.46918 30.6667 2.66667 30.6666H4.66667C4.84348 30.6666 5.01305 30.5964 5.13807 30.4713C5.2631 30.3463 5.33333 30.1767 5.33333 29.9999V6.66659H28.6667V5.33325H5.33333V1.99992C5.33333 1.63142 5.03483 1.33325 4.66667 1.33325H2.66667C1.194 1.33325 0 2.52692 0 3.99992V31.9999C0 32.1789 0.01825 32.3577 0.054 32.5331C0.0628333 32.5745 0.0806667 32.6139 0.0915 32.6558ZM1.33333 3.99992C1.33333 3.26325 1.93033 2.66659 2.66667 2.66659H4V29.3333H2.66667C2.19839 29.3324 1.73828 29.4558 1.33333 29.691V3.99992Z" fill="#01000F"/>
<path d="M18.1432 15.1113L16.7214 13.3333H22.6673V12H15.334C15.2364 12.0005 15.1402 12.0224 15.052 12.0642C14.9639 12.106 14.886 12.1666 14.8239 12.2418C14.8239 12.2457 14.8161 12.2464 14.8135 12.25L9.48015 18.9167C9.44526 18.9617 9.41607 19.0109 9.39323 19.0632C9.39323 19.0677 9.38798 19.0713 9.38607 19.0758C9.357 19.1492 9.34112 19.2271 9.33915 19.306C9.33915 19.3158 9.33398 19.3239 9.33398 19.3333V27.3333C9.33398 27.5101 9.40422 27.6797 9.52925 27.8047C9.65427 27.9298 9.82384 28 10.0007 28H27.334V26.6667H21.334V20H30.6673V24H32.0007V19.3333C32.0007 19.3239 31.9954 19.3158 31.9954 19.306C31.9936 19.2273 31.9777 19.1496 31.9486 19.0765C31.9486 19.0707 31.9421 19.0664 31.9401 19.0612C31.918 19.0097 31.8892 18.9613 31.8545 18.9173L29.8545 16.4144L28.8135 17.2464L29.9467 18.6667H20.988L18.1432 15.1113ZM15.334 13.733L17.9645 17.0218L19.28 18.6667H11.388L15.334 13.733ZM10.6673 20H20.0007V26.6667H18.0007V22C18.0007 21.6315 17.7022 21.3333 17.334 21.3333H13.334C12.9658 21.3333 12.6673 21.6315 12.6673 22V26.6667H10.6673V20ZM14.0007 26.6667V22.6667H16.6673V26.6667H14.0007Z" fill="#01000F"/>
<path d="M24.6667 21.3333C24.2986 21.3333 24.0001 21.6315 24.0001 22V24.6667C24.0001 24.8435 24.0703 25.0131 24.1953 25.1381C24.3203 25.2631 24.4899 25.3333 24.6667 25.3333H27.3334C27.5102 25.3333 27.6798 25.2631 27.8048 25.1381C27.9298 25.0131 28.0001 24.8435 28.0001 24.6667V22C28.0001 21.6315 27.7016 21.3333 27.3334 21.3333H24.6667ZM26.6667 24H25.3334V22.6667H26.6667V24ZM39.5886 18.0504C39.4668 18 39.3327 17.9868 39.2033 18.0126C39.074 18.0384 38.9552 18.102 38.862 18.1953L18.1953 38.862C18.1021 38.9552 18.0385 39.074 18.0128 39.2033C17.9871 39.3327 18.0003 39.4667 18.0507 39.5885C18.1012 39.7104 18.1867 39.8145 18.2963 39.8877C18.406 39.961 18.5349 40 18.6667 40H39.3334C39.5102 40 39.6798 39.9298 39.8048 39.8047C39.9298 39.6797 40.0001 39.5102 40.0001 39.3333V18.6667C40.0001 18.5348 39.961 18.4058 39.8878 18.2961C39.8145 18.1865 39.7105 18.1009 39.5886 18.0504ZM38.6667 38.6667H20.2761L38.6667 20.2758V38.6667Z" fill="#01000F"/>
<path d="M28.0502 35.5885C28.1007 35.7103 28.1861 35.8144 28.2957 35.8876C28.4053 35.9608 28.5342 35.9999 28.666 36H35.3327C35.5095 36 35.6791 35.9297 35.8041 35.8047C35.9291 35.6797 35.9993 35.5101 35.9993 35.3333V28.6666C35.9994 28.5348 35.9603 28.4058 35.8871 28.2962C35.8138 28.1865 35.7097 28.1011 35.5879 28.0506C35.4661 28.0001 35.332 27.9869 35.2027 28.0127C35.0733 28.0385 34.9546 28.102 34.8613 28.1953L28.1947 34.862C28.1014 34.9552 28.0379 35.074 28.0121 35.2033C27.9864 35.3327 27.9997 35.4667 28.0502 35.5885ZM34.666 30.2756V34.6666H30.2754L34.666 30.2756ZM37.1374 0.195295C37.0755 0.13338 37.002 0.0842658 36.9211 0.0507565C36.8402 0.0172473 36.7536 0 36.666 0C36.5785 0 36.4918 0.0172473 36.4109 0.0507565C36.33 0.0842658 36.2566 0.13338 36.1947 0.195295L24.1947 12.1953C24.1218 12.2686 24.0667 12.3577 24.0338 12.4557L23.3672 14.4557C23.3281 14.5731 23.3224 14.6991 23.3508 14.8195C23.3792 14.9399 23.4406 15.0501 23.528 15.1376L23.7233 15.3333L22.1947 16.862L23.1374 17.8043L24.666 16.2758L24.8613 16.471C24.9863 16.5961 25.1559 16.6665 25.3327 16.6666C25.4044 16.6663 25.4752 16.655 25.5433 16.6325L27.5433 15.9658C27.6416 15.933 27.7309 15.8777 27.8041 15.8043L39.8041 3.80429C39.929 3.67929 39.9991 3.50982 39.9991 3.33313C39.9991 3.15643 39.929 2.98697 39.8041 2.86196L37.1374 0.195295ZM25.942 12.3333L28.666 9.60905L30.39 11.3333L27.666 14.0573L25.942 12.3333ZM25.5133 15.2373L24.7627 14.4866L25.124 13.4004L26.5993 14.8753L25.5133 15.2373ZM31.3327 10.3906L29.6087 8.66663L36.666 1.60904L38.39 3.33329L31.3327 10.3906ZM6.66602 28V30C6.66602 30.1768 6.73625 30.3463 6.86128 30.4714C6.9863 30.5964 7.15587 30.6666 7.33268 30.6666H9.33268V29.3333H7.99935V28H6.66602ZM9.33268 7.99996H7.33268C6.96452 7.99996 6.66602 8.29813 6.66602 8.66663V10.6666H7.99935V9.33329H9.33268V7.99996Z" fill="#01000F"/>
</g>
<defs>
<clipPath id="clip0_2004_132">
<rect width="40" height="40" fill="white"/>
</clipPath>
</defs>
</svg>
