<svg width="60" height="60" viewBox="0 0 60 60" fill="none" xmlns="http://www.w3.org/2000/svg">
<path d="M47.5001 60H12.5001C9.74263 60 7.50013 57.7575 7.50013 55V32.5H2.50013C2.17089 32.5034 1.8443 32.441 1.53948 32.3165C1.23465 32.1921 0.957726 32.0081 0.724911 31.7752C0.492095 31.5424 0.308073 31.2655 0.18362 30.9607C0.0591666 30.6559 -0.00321517 30.3293 0.000127568 30C0.000127568 29.3375 0.270128 28.6875 0.740128 28.2175L29.1251 0.357527C29.3595 0.128927 29.674 0.000976563 30.0014 0.000976562C30.3288 0.000976563 30.6432 0.128927 30.8776 0.357527L40.0001 9.32003V3.75003C40.0001 3.41851 40.1318 3.10056 40.3662 2.86614C40.6007 2.63172 40.9186 2.50003 41.2501 2.50003H51.2501C51.5816 2.50003 51.8996 2.63172 52.134 2.86614C52.3684 3.10056 52.5001 3.41851 52.5001 3.75003V21.575L59.2526 28.2075C59.7301 28.6875 60.0001 29.3375 60.0001 30C60.0035 30.3293 59.9411 30.6559 59.8166 30.9607C59.6922 31.2655 59.5082 31.5424 59.2753 31.7752C59.0425 32.0081 58.7656 32.1921 58.4608 32.3165C58.156 32.441 57.8294 32.5034 57.5001 32.5H52.5001V55C52.5001 57.7575 50.2576 60 47.5001 60ZM30.0001 3.00253L2.50013 29.9925L8.75013 30C9.08165 30 9.39959 30.1317 9.63401 30.3661C9.86843 30.6006 10.0001 30.9185 10.0001 31.25V55C10.0001 56.3775 11.1226 57.5 12.5001 57.5H47.5001C48.8776 57.5 50.0001 56.3775 50.0001 55V31.25C50.0001 30.9185 50.1318 30.6006 50.3662 30.3661C50.6007 30.1317 50.9186 30 51.2501 30H57.5001L57.4926 29.985L50.3751 22.9925C50.2564 22.8762 50.1621 22.7373 50.0977 22.5841C50.0333 22.4308 50.0002 22.2663 50.0001 22.1V5.00003H42.5001V12.3C42.5006 12.5467 42.428 12.788 42.2917 12.9935C42.1553 13.199 41.9611 13.3596 41.7337 13.455C41.5062 13.5504 41.2556 13.5764 41.0134 13.5297C40.7713 13.483 40.5483 13.3657 40.3726 13.1925L30.0001 3.00253Z" fill="#01000F"/>
<path d="M30 30C27.2425 30 25 27.7575 25 25C25 22.2425 27.2425 20 30 20C32.7575 20 35 22.2425 35 25C35 27.7575 32.7575 30 30 30ZM30 22.5C28.6225 22.5 27.5 23.6225 27.5 25C27.5 26.3775 28.6225 27.5 30 27.5C31.3775 27.5 32.5 26.3775 32.5 25C32.5 23.6225 31.3775 22.5 30 22.5ZM42.5 37.5C39.7425 37.5 37.5 35.2575 37.5 32.5C37.5 29.7425 39.7425 27.5 42.5 27.5C45.2575 27.5 47.5 29.7425 47.5 32.5C47.5 35.2575 45.2575 37.5 42.5 37.5ZM42.5 30C41.1225 30 40 31.1225 40 32.5C40 33.8775 41.1225 35 42.5 35C43.8775 35 45 33.8775 45 32.5C45 31.1225 43.8775 30 42.5 30Z" fill="#01000F"/>
<path d="M30 45C29.6685 45 29.3505 44.8683 29.1161 44.6339C28.8817 44.3995 28.75 44.0815 28.75 43.75V29.375C28.75 29.0435 28.8817 28.7255 29.1161 28.4911C29.3505 28.2567 29.6685 28.125 30 28.125C30.3315 28.125 30.6495 28.2567 30.8839 28.4911C31.1183 28.7255 31.25 29.0435 31.25 29.375V43.75C31.25 44.0815 31.1183 44.3995 30.8839 44.6339C30.6495 44.8683 30.3315 45 30 45ZM36.25 50C35.9185 50 35.6005 49.8683 35.3661 49.6339C35.1317 49.3995 35 49.0815 35 48.75V38.75C35 38.4175 35.1325 38.1 35.365 37.865L38.34 34.89C38.5758 34.6623 38.8915 34.5363 39.2193 34.5392C39.547 34.542 39.8605 34.6735 40.0923 34.9052C40.324 35.137 40.4555 35.4505 40.4583 35.7782C40.4612 36.106 40.3352 36.4217 40.1075 36.6575L37.5 39.2675V48.75C37.5 49.0815 37.3683 49.3995 37.1339 49.6339C36.8995 49.8683 36.5815 50 36.25 50ZM17.5 37.5C14.7425 37.5 12.5 35.2575 12.5 32.5C12.5 29.7425 14.7425 27.5 17.5 27.5C20.2575 27.5 22.5 29.7425 22.5 32.5C22.5 35.2575 20.2575 37.5 17.5 37.5ZM17.5 30C16.1225 30 15 31.1225 15 32.5C15 33.8775 16.1225 35 17.5 35C18.8775 35 20 33.8775 20 32.5C20 31.1225 18.8775 30 17.5 30Z" fill="#01000F"/>
<path d="M23.75 50.0001C23.4184 50.0001 23.1005 49.8684 22.8661 49.634C22.6316 49.3995 22.5 49.0816 22.5 48.7501V39.2676L19.89 36.6576C19.6623 36.4218 19.5363 36.1061 19.5391 35.7783C19.542 35.4506 19.6734 35.1371 19.9052 34.9053C20.1369 34.6735 20.4505 34.5421 20.7782 34.5392C21.1059 34.5364 21.4217 34.6624 21.6575 34.8901L24.6325 37.8651C24.7489 37.9812 24.8413 38.1191 24.9044 38.271C24.9674 38.4228 24.9999 38.5856 25 38.7501V48.7501C25 49.0816 24.8683 49.3995 24.6338 49.634C24.3994 49.8684 24.0815 50.0001 23.75 50.0001Z" fill="#01000F"/>
</svg>
