<svg width="50" height="52" viewBox="0 0 50 52" fill="none" xmlns="http://www.w3.org/2000/svg">
<path fill-rule="evenodd" clip-rule="evenodd" d="M18.8983 11.4659C18.6093 11.1405 18.6361 10.6436 18.9655 10.3552C19.2883 10.0675 19.7859 10.0977 20.0749 10.4224L22.7778 13.477L29.9922 7.12853C30.3217 6.84209 30.8193 6.87377 31.1016 7.19981C31.3908 7.52585 31.3571 8.02277 31.0344 8.30921L23.2283 15.1747C22.9026 15.4636 22.4086 15.4279 22.1189 15.1061L18.8983 11.4659ZM42.7066 36.4939L25.7833 44.9071V27.5992L43.3857 18.8477V35.3992C43.3857 35.8799 43.1369 36.2787 42.7066 36.4939ZM6.6143 35.3992V18.8477L24.2099 27.5992V44.9071L7.29338 36.4939C6.86306 36.2787 6.6143 35.8799 6.6143 35.3992ZM24.9966 21.5231C20.2296 21.5231 16.2022 18.2877 14.9987 13.8973L7.59602 17.5791L24.9967 26.2324L42.4042 17.5791L35.0015 13.8973C33.7911 18.2877 29.7703 21.5231 24.9966 21.5231ZM24.9966 2.35409C20.1489 2.35409 16.2022 6.30017 16.2022 11.1526C16.2022 16.003 20.1489 19.9504 24.9966 19.9504C29.8511 19.9504 33.7978 16.003 33.7978 11.1526C33.7978 6.30017 29.8511 2.35409 24.9966 2.35409ZM48.3208 12.2876C48.4241 12.2878 48.5264 12.2676 48.6219 12.2282C48.7174 12.1888 48.8042 12.131 48.8773 12.0579C48.9504 11.9849 49.0083 11.8982 49.0478 11.8027C49.0873 11.7072 49.1075 11.6049 49.1074 11.5016V3.79025C49.1075 3.68691 49.0873 3.58455 49.0478 3.48905C49.0084 3.39354 48.9504 3.30677 48.8773 3.23369C48.8043 3.16062 48.7175 3.10268 48.622 3.06321C48.5265 3.02373 48.4241 3.0035 48.3208 3.00365H40.6089C40.5055 3.00351 40.4032 3.02376 40.3077 3.06324C40.2122 3.10272 40.1254 3.16066 40.0523 3.23373C39.9793 3.3068 39.9213 3.39357 39.8818 3.48907C39.8424 3.58457 39.8221 3.68692 39.8223 3.79025C39.8223 4.22465 40.1719 4.57625 40.6089 4.57625H46.4248L37.5766 13.4218L35.304 12.2943C35.3511 11.9185 35.3712 11.5379 35.3712 11.1526C35.3712 5.43281 30.7185 0.781494 24.9967 0.781494C18.8403 0.781494 14.0278 6.13169 14.6895 12.2943L12.4236 13.4218L3.5753 4.57625H9.39122C9.82154 4.57625 10.1778 4.22465 10.1778 3.79025C10.1778 3.35657 9.82142 3.00365 9.39122 3.00365H1.67918C1.57584 3.00351 1.47349 3.02376 1.37799 3.06324C1.28249 3.10272 1.19572 3.16066 1.12265 3.23373C1.04958 3.3068 0.991646 3.39357 0.952166 3.48907C0.912686 3.58457 0.892437 3.68692 0.892579 3.79025V11.5016C0.892436 11.6049 0.91269 11.7072 0.952177 11.8027C0.991664 11.8981 1.04961 11.9849 1.12269 12.0579C1.19577 12.1309 1.28254 12.1888 1.37804 12.2282C1.47353 12.2676 1.57587 12.2878 1.67918 12.2876C1.78249 12.2878 1.88484 12.2676 1.98034 12.2282C2.07584 12.1888 2.16262 12.131 2.23571 12.0579C2.30879 11.9849 2.36673 11.8982 2.40621 11.8027C2.44569 11.7072 2.46594 11.6049 2.46578 11.5016V5.68901L10.9375 14.1601L5.47802 16.8743C5.34667 16.9393 5.23612 17.0397 5.15888 17.1642C5.08164 17.2888 5.0408 17.4324 5.04098 17.579V35.3992C5.04098 36.4831 5.61926 37.4189 6.59414 37.9017L10.9375 40.0613L2.46578 48.5337V42.7211C2.46578 42.2861 2.11622 41.9344 1.67918 41.9344C1.24214 41.9344 0.892579 42.286 0.892579 42.7211V50.4325C0.892436 50.5358 0.91269 50.6381 0.952177 50.7336C0.991664 50.829 1.04961 50.9157 1.12269 50.9888C1.19577 51.0618 1.28254 51.1197 1.37804 51.1591C1.47353 51.1985 1.57587 51.2187 1.67918 51.2185H9.3911C9.82142 51.2185 10.1777 50.8661 10.1777 50.4325C10.1777 49.9967 9.8213 49.6459 9.3911 49.6459H3.5753L12.4235 40.8003L24.6469 46.8805C24.8689 46.9885 25.1301 46.9889 25.3462 46.8805L37.5765 40.8003L46.4247 49.6459H40.6087C40.5054 49.6455 40.4029 49.6657 40.3074 49.7051C40.2118 49.7445 40.1249 49.8024 40.0518 49.8755C39.9787 49.9486 39.9208 50.0355 39.8814 50.1311C39.842 50.2266 39.8218 50.3291 39.8221 50.4325C39.822 50.5358 39.8423 50.6381 39.8817 50.7336C39.9212 50.829 39.9792 50.9157 40.0523 50.9888C40.1253 51.0618 40.2121 51.1197 40.3076 51.1591C40.4031 51.1985 40.5054 51.2187 40.6087 51.2185H48.3207C48.424 51.2187 48.5263 51.1985 48.6218 51.1591C48.7173 51.1197 48.8041 51.0618 48.8772 50.9888C48.9503 50.9158 49.0082 50.829 49.0477 50.7336C49.0872 50.6381 49.1074 50.5358 49.1073 50.4325V42.7211C49.1073 42.2861 48.7577 41.9344 48.3207 41.9344C47.8836 41.9344 47.5339 42.286 47.5339 42.7211V48.5337L39.0622 40.0613L43.4056 37.9017C44.3805 37.4189 44.9587 36.4831 44.9587 35.3992V17.579C44.9589 17.4324 44.9181 17.2888 44.8408 17.1642C44.7636 17.0397 44.6531 16.9393 44.5217 16.8743L39.0621 14.1601L47.5338 5.68901V11.5016C47.5337 11.6049 47.554 11.7072 47.5936 11.8027C47.6331 11.8981 47.6911 11.9849 47.7642 12.0579C47.8373 12.1309 47.9241 12.1888 48.0196 12.2282C48.1151 12.2676 48.2175 12.2878 48.3208 12.2876Z" fill="#01000F"/>
</svg>
