<svg width="60" height="60" viewBox="0 0 60 60" fill="none" xmlns="http://www.w3.org/2000/svg">
<path d="M42.8046 0H7.3451C3.53924 0.00492494 0.45512 3.08904 0.450195 6.89491V42.2727C0.45512 46.0786 3.53924 49.1627 7.3451 49.1676H18.18V47.1976H7.3451C4.62654 47.1944 2.42337 44.9913 2.42017 42.2727V25.6097H8.74576C8.91298 25.5974 9.07492 25.5457 9.21826 25.4587C9.36161 25.3718 9.48227 25.252 9.57034 25.1093C9.65841 24.9666 9.71137 24.8051 9.72487 24.638C9.73837 24.4709 9.71203 24.3029 9.648 24.1479C8.7726 22.1558 9.6778 19.8312 11.6699 18.9558C13.6621 18.0804 15.9866 18.9856 16.862 20.9778C17.0816 21.4774 17.1949 22.0171 17.1949 22.5629C17.1949 23.1086 17.0816 23.6483 16.862 24.1479C16.7883 24.3022 16.7545 24.4724 16.7636 24.6432C16.7727 24.8139 16.8246 24.9795 16.9144 25.125C17.0041 25.2705 17.129 25.3911 17.2775 25.4758C17.426 25.5605 17.5934 25.6066 17.7643 25.6098H24.0899V31.5197C23.7645 31.4643 23.435 31.437 23.1049 31.438C19.8409 31.4369 17.1941 34.0819 17.1929 37.3458C17.1925 38.4965 17.528 39.6222 18.1583 40.5849C18.7885 41.5477 19.6861 42.3054 20.7409 42.7653L21.5289 40.9608C19.5336 40.0928 18.6196 37.7717 19.4875 35.7763C19.7939 35.0719 20.2996 34.4724 20.9423 34.0516C21.585 33.6308 22.3367 33.4071 23.1049 33.4079C23.6477 33.4078 24.1845 33.5212 24.6809 33.7409C24.8307 33.8063 24.9945 33.8333 25.1574 33.8196C25.3204 33.8059 25.4773 33.7519 25.6142 33.6623C25.751 33.5728 25.8634 33.4506 25.9412 33.3068C26.019 33.163 26.0598 33.0021 26.0599 32.8386V25.6097H31.0685C31.0125 25.935 30.9845 26.2645 30.9848 26.5947C30.9907 29.4011 32.9643 31.8188 35.7127 32.3864L36.1067 30.4568C34.2744 30.0777 32.9588 28.4658 32.9548 26.5947C32.9546 26.0519 33.068 25.515 33.2877 25.0187C33.3531 24.8688 33.3802 24.705 33.3665 24.5421C33.3528 24.3792 33.2987 24.2222 33.2092 24.0854C33.1197 23.9486 32.9975 23.8362 32.8537 23.7584C32.7099 23.6806 32.549 23.6398 32.3854 23.6397H26.0599V18.631C26.3852 18.6871 26.7148 18.7151 27.0448 18.7148C30.3088 18.7148 32.9548 16.0688 32.9548 12.8048C32.9548 9.54083 30.3088 6.89491 27.0448 6.89491C26.7147 6.89457 26.3852 6.92258 26.0599 6.97863V1.96997H42.8046C45.5232 1.97318 47.7264 4.17635 47.7296 6.89491V23.6397H41.404C41.2405 23.6398 41.0796 23.6806 40.9358 23.7584C40.792 23.8362 40.6698 23.9486 40.5803 24.0854C40.4907 24.2222 40.4367 24.3792 40.423 24.5421C40.4093 24.705 40.4363 24.8688 40.5017 25.0187C40.7214 25.515 40.8348 26.0519 40.8347 26.5947H42.8046C42.805 26.2645 42.777 25.935 42.7209 25.6097H48.7146C48.9758 25.6097 49.2263 25.5059 49.4111 25.3212C49.5958 25.1364 49.6995 24.8859 49.6995 24.6247V6.89491C49.6946 3.08904 46.6105 0.00492494 42.8046 0ZM27.0448 8.86488C29.2208 8.86488 30.9848 10.6289 30.9848 12.8048C30.9848 14.9808 29.2208 16.7448 27.0448 16.7448C26.5021 16.7449 25.9652 16.6315 25.4689 16.4119C25.319 16.3465 25.1552 16.3194 24.9923 16.3331C24.8294 16.3468 24.6724 16.4009 24.5356 16.4904C24.3988 16.5799 24.2864 16.7021 24.2086 16.8459C24.1308 16.9897 24.09 17.1506 24.0899 17.3141V23.5579H19.0881C19.1375 23.2594 19.1631 22.9573 19.1649 22.6547V22.573C19.1649 19.3089 16.519 16.663 13.255 16.663C9.99103 16.663 7.3451 19.3089 7.3451 22.573V22.6547C7.34695 22.9573 7.37256 23.2594 7.42193 23.5579H2.42017V6.89491C2.42337 4.17635 4.62654 1.97318 7.3451 1.96997H24.0899V8.29556C24.09 8.45907 24.1308 8.61998 24.2086 8.76379C24.2864 8.9076 24.3988 9.02977 24.5356 9.11929C24.6724 9.20881 24.8294 9.26287 24.9923 9.27657C25.1552 9.29028 25.319 9.26321 25.4689 9.19781C25.9652 8.97815 26.5021 8.86475 27.0448 8.86488Z" fill="#01000F"/>
<path d="M57.4423 42.3367L49.1615 36.6346L45.981 28.1371C45.9342 28.0113 45.8621 27.8963 45.7692 27.7994C45.6763 27.7024 45.5646 27.6255 45.4409 27.5732C45.3172 27.521 45.1841 27.4947 45.0499 27.4958C44.9156 27.4969 44.783 27.5254 44.6601 27.5796L38.2577 30.4114C38.0266 30.5135 37.8436 30.7004 37.7465 30.9336C37.6493 31.1668 37.6454 31.4284 37.7357 31.6644C37.8421 31.9401 37.9415 32.149 38.0469 32.3657C38.1523 32.5824 38.2498 32.7853 38.369 33.1054C39.1336 35.1484 38.1042 37.4254 36.0651 38.2007C34.0271 38.963 31.7569 37.9289 30.9946 35.8907C30.8034 35.3795 30.7205 34.8342 30.7511 34.2893C30.7597 34.1258 30.7274 33.9628 30.6572 33.8149C30.5869 33.667 30.4809 33.5389 30.3487 33.4423C30.2165 33.3457 30.0623 33.2836 29.9 33.2616C29.7378 33.2395 29.5726 33.2583 29.4194 33.3162L22.5757 35.8939C22.3317 35.9859 22.1341 36.1709 22.0263 36.4083C21.9184 36.6458 21.9092 36.9163 22.0005 37.1606L24.4571 43.7235C24.1314 43.7829 23.8116 43.8712 23.5016 43.9875C20.4365 45.1297 18.8777 48.5405 20.02 51.6057C21.1622 54.6708 24.5729 56.2296 27.6381 55.0873C27.9537 54.9698 28.2587 54.8254 28.5497 54.6559L30.3109 59.3602C30.4025 59.6048 30.5876 59.8031 30.8253 59.9112C31.0631 60.0194 31.3341 60.0287 31.5788 59.9371L31.5805 59.9364L41.3398 56.2595C41.6431 56.9114 42.0761 57.4947 42.6125 57.9736C43.1488 58.4526 43.7772 58.8171 44.4592 59.045L45.0817 57.1735C44.2699 56.9 43.5951 56.3234 43.1984 55.5641L46.1682 54.4461C47.1437 57.1899 49.7423 59.0213 52.6543 59.0174V57.0475C49.9413 57.0308 47.746 54.8356 47.7294 52.1225C47.7293 51.8613 47.6255 51.6108 47.4408 51.4261L44.011 47.9964C43.765 47.7482 43.616 47.42 43.5913 47.0714C43.5665 46.7228 43.6676 46.3769 43.8761 46.0964C44.0001 45.9291 44.159 45.7907 44.3419 45.6911C44.5248 45.5914 44.7271 45.5327 44.935 45.5192C45.3562 45.4837 45.771 45.6389 46.0657 45.9417L52.9429 52.8189L54.3357 51.4261L52.3007 49.3912C52.8021 47.8918 52.7711 46.2655 52.213 44.7864L50.3672 39.8565L56.3194 43.955C56.7082 44.2279 57.0257 44.5904 57.2449 45.0118C57.4642 45.4332 57.5788 45.9011 57.5792 46.3761V59.0992H59.5492V46.3761C59.5486 45.583 59.3567 44.8018 58.99 44.0986C58.6232 43.3955 58.0923 42.7911 57.4423 42.3367ZM50.3681 45.4768C50.6402 46.2 50.7388 46.977 50.6558 47.7452L47.4585 44.549C46.1387 43.1955 43.9718 43.1683 42.6183 44.4879C41.2648 45.8077 41.2376 47.9746 42.5572 49.3281C42.5773 49.3487 42.5976 49.3691 42.6183 49.3892L45.7338 52.5047L31.8139 57.7478L29.9366 52.7313C29.8662 52.5435 29.7402 52.3818 29.5755 52.2675C29.4107 52.1533 29.2151 52.0921 29.0146 52.092C28.7569 52.0918 28.5094 52.1926 28.3251 52.3727C26.7435 53.8671 24.2497 53.7963 22.7554 52.2145C21.261 50.6329 21.3318 48.1391 22.9136 46.6448C23.2856 46.2933 23.7226 46.0177 24.2 45.8333C24.5136 45.7171 24.8411 45.6429 25.1741 45.6126C25.379 45.5875 25.5857 45.5806 25.7917 45.5919C25.955 45.6005 26.1178 45.5683 26.2654 45.4983C26.4131 45.4282 26.5411 45.3225 26.6377 45.1907C26.7344 45.0589 26.7967 44.9051 26.819 44.7432C26.8414 44.5812 26.8232 44.4163 26.7659 44.2632L24.1931 37.3939L28.8836 35.6278C29.4992 38.8332 32.5968 40.9326 35.8022 40.3171C36.1297 40.2542 36.4513 40.1637 36.7635 40.0465C39.8178 38.8876 41.3617 35.4787 40.2179 32.4187C40.1417 32.2137 40.0579 32.0117 39.9667 31.813L44.4976 29.8065L50.3681 45.4768Z" fill="#01000F"/>
</svg>
