<svg width="60" height="52" viewBox="0 0 60 52" fill="none" xmlns="http://www.w3.org/2000/svg">
<path d="M59.7678 12.3602L49.7679 0.360406C49.674 0.248055 49.5565 0.157686 49.4238 0.0956682C49.2911 0.0336506 49.1464 0.00149422 48.9999 0.00146541H11.0004C10.8539 0.00130952 10.7091 0.0333837 10.5764 0.0954143C10.4437 0.157445 10.3262 0.247913 10.2324 0.360406L0.232532 12.3602C0.110548 12.506 0.0327488 12.6836 0.00829242 12.8721C-0.0161639 13.0606 0.0137411 13.2521 0.0944868 13.4242C0.175304 13.5962 0.3034 13.7417 0.463818 13.8437C0.624237 13.9457 0.810358 14 1.00045 14.0001H58.9996C59.1897 14 59.3758 13.9457 59.5363 13.8437C59.6967 13.7417 59.8248 13.5962 59.9056 13.4242C59.9861 13.2521 60.0159 13.0606 59.9915 12.8722C59.9671 12.6837 59.8895 12.5061 59.7678 12.3602ZM3.13558 12.0002L11.4684 2.00042H48.5309L56.8638 12.0002H3.13558Z" fill="#01000F"/>
<path d="M30.9251 0.61735C30.8493 0.43468 30.7211 0.27857 30.5567 0.168752C30.3922 0.0589341 30.1989 0.000336982 30.0011 0.000366222H11.0014C10.6434 0.000366222 10.3134 0.191379 10.1345 0.502391C9.95551 0.813402 9.95645 1.19437 10.1375 1.50433L17.1374 13.5042C17.2145 13.6362 17.3208 13.7489 17.4482 13.8335C17.5756 13.9181 17.7207 13.9723 17.8724 13.9921C17.9154 13.9972 17.9584 14.0001 18.0003 14.0001C18.1318 14.0002 18.262 13.9743 18.3835 13.9241C18.505 13.8738 18.6154 13.8001 18.7084 13.7071L30.7082 1.7073C30.8481 1.56746 30.9434 1.38925 30.982 1.19524C31.0206 1.00122 31.0008 0.800105 30.9251 0.61735ZM18.2103 11.3762L12.7414 2.00038H27.5861L18.2103 11.3762Z" fill="#01000F"/>
<path d="M59.8945 12.5561C59.812 12.3889 59.6844 12.2482 59.526 12.1497C59.3677 12.0513 59.185 11.9992 58.9985 11.9991H0.999355C0.81294 11.9993 0.630271 12.0515 0.471953 12.1499C0.313635 12.2483 0.185967 12.389 0.103351 12.5561C0.0208434 12.7233 -0.0133304 12.9101 0.00468341 13.0957C0.0226972 13.2812 0.092182 13.458 0.205303 13.6061L29.2049 51.6056C29.394 51.8536 29.688 51.9996 29.9999 51.9996C30.3119 51.9996 30.6059 51.8536 30.7929 51.6056L59.7926 13.6061C59.9057 13.458 59.9751 13.2812 59.9931 13.0956C60.0111 12.9101 59.977 12.7233 59.8945 12.5561ZM29.9999 49.3517L3.02128 14.0002H56.9786L29.9999 49.3517Z" fill="#01000F"/>
<path d="M30.954 50.6977L18.9541 12.6982C18.8901 12.4954 18.763 12.3183 18.5915 12.1926C18.4199 12.0669 18.2128 11.9991 18.0001 11.9991H1.00033C0.813917 11.9993 0.631248 12.0515 0.472929 12.1499C0.314611 12.2483 0.186943 12.389 0.104328 12.5561C0.02182 12.7233 -0.0123538 12.9101 0.00565997 13.0957C0.0236737 13.2812 0.0931586 13.458 0.20628 13.6061L29.2059 51.6056C29.2991 51.7282 29.4193 51.8275 29.5572 51.8958C29.6951 51.9642 29.847 51.9997 30.0009 51.9996C30.1613 52.0001 30.3193 51.961 30.4609 51.8856C30.6697 51.7773 30.8337 51.5988 30.9239 51.3815C31.0141 51.1642 31.0247 50.9221 30.954 50.6977ZM3.02132 14.0002H17.2671L27.323 45.8438L3.02132 14.0002ZM49.8667 0.502391C49.7793 0.349752 49.653 0.222934 49.5008 0.134776C49.3485 0.0466177 49.1757 0.000249611 48.9998 0.000366439H30C29.8022 0.000232778 29.6087 0.0587979 29.4442 0.168648C29.2797 0.278498 29.1515 0.434692 29.0758 0.617457C29.0001 0.800221 28.9803 1.00134 29.019 1.19534C29.0576 1.38935 29.153 1.56752 29.293 1.7073L41.2928 13.7071C41.3855 13.8001 41.4957 13.8739 41.6171 13.9242C41.7384 13.9745 41.8685 14.0003 41.9998 14.0001C42.0428 14.0001 42.0858 13.9971 42.1288 13.9921C42.2805 13.9724 42.4256 13.9182 42.5531 13.8336C42.6805 13.749 42.7868 13.6363 42.8638 13.5042L49.8637 1.50433C49.9521 1.35228 49.9989 1.17965 49.9994 1.00377C50 0.827891 49.9542 0.654972 49.8667 0.502391ZM41.7898 11.3762L32.4139 2.00038H47.2586L41.7898 11.3762Z" fill="#01000F"/>
<path d="M59.8967 12.5582C59.8142 12.391 59.6866 12.2503 59.5282 12.1518C59.3699 12.0534 59.1872 12.0012 59.0007 12.0012H42.0009C41.7882 12.0011 41.581 12.0688 41.4094 12.1945C41.2379 12.3202 41.1109 12.4974 41.0469 12.7002L29.0471 50.6998C28.9765 50.9241 28.9872 51.1662 29.0774 51.3835C29.1676 51.6007 29.3314 51.7793 29.5401 51.8878C29.6821 51.9616 29.8399 52 30 51.9998C30.1537 51.9996 30.3053 51.9642 30.4431 51.8962C30.5809 51.8283 30.7013 51.7296 30.795 51.6078L59.7947 13.6083C59.9078 13.4601 59.9773 13.2833 59.9953 13.0978C60.0133 12.9123 59.9792 12.7254 59.8967 12.5582ZM32.6771 45.8437L42.733 14.0001H56.9788L32.6771 45.8437Z" fill="#01000F"/>
</svg>
