<svg width="40" height="40" viewBox="0 0 40 40" fill="none" xmlns="http://www.w3.org/2000/svg">
<g clip-path="url(#clip0_2004_160)">
<path d="M38.75 0.625H1.25C1.08424 0.625 0.925268 0.690848 0.808058 0.808058C0.690848 0.925268 0.625 1.08424 0.625 1.25V38.75C0.625 38.9158 0.690848 39.0747 0.808058 39.1919C0.925268 39.3092 1.08424 39.375 1.25 39.375H38.75C38.9158 39.375 39.0747 39.3092 39.1919 39.1919C39.3092 39.0747 39.375 38.9158 39.375 38.75V1.25C39.375 1.08424 39.3092 0.925268 39.1919 0.808058C39.0747 0.690848 38.9158 0.625 38.75 0.625ZM30 4.375H35.625V7.615C35.4248 7.54098 35.2134 7.50207 35 7.5H32.5C32.0027 7.5 31.5258 7.69754 31.1742 8.04917C30.8225 8.40081 30.625 8.87772 30.625 9.375V19.375C30.625 19.8723 30.8225 20.3492 31.1742 20.7008C31.5258 21.0525 32.0027 21.25 32.5 21.25H35C35.2134 21.2479 35.4248 21.209 35.625 21.135V24.375H27.5C27.3342 24.375 27.1753 24.4408 27.0581 24.5581C26.9408 24.6753 26.875 24.8342 26.875 25V27.5C26.875 27.6658 26.9408 27.8247 27.0581 27.9419C27.1753 28.0592 27.3342 28.125 27.5 28.125H33.125V33.125H27.5C27.3342 33.125 27.1753 33.1908 27.0581 33.3081C26.9408 33.4253 26.875 33.5842 26.875 33.75V35.625H24.375V31.875C24.375 31.7092 24.3092 31.5503 24.1919 31.4331C24.0747 31.3158 23.9158 31.25 23.75 31.25H21.25C21.0842 31.25 20.9253 31.3158 20.8081 31.4331C20.6908 31.5503 20.625 31.7092 20.625 31.875V38.125H16.875V36.25C16.875 36.0842 16.8092 35.9253 16.6919 35.8081C16.5747 35.6908 16.4158 35.625 16.25 35.625H4.375V31.875H18.75C18.9158 31.875 19.0747 31.8092 19.1919 31.6919C19.3092 31.5747 19.375 31.4158 19.375 31.25V26.875C19.375 26.7092 19.3092 26.5503 19.1919 26.4331C19.0747 26.3158 18.9158 26.25 18.75 26.25H16.25C16.0842 26.25 15.9253 26.3158 15.8081 26.4331C15.6908 26.5503 15.625 26.7092 15.625 26.875V28.125H8.125V23.125H11.875C12.0408 23.125 12.1997 23.0592 12.3169 22.9419C12.4342 22.8247 12.5 22.6658 12.5 22.5V15C12.5 14.8342 12.4342 14.6753 12.3169 14.5581C12.1997 14.4408 12.0408 14.375 11.875 14.375H4.375V13.125H7.5C7.66576 13.125 7.82473 13.0592 7.94194 12.9419C8.05915 12.8247 8.125 12.6658 8.125 12.5V11.875H13.125V12.5C13.125 12.6658 13.1908 12.8247 13.3081 12.9419C13.4253 13.0592 13.5842 13.125 13.75 13.125H15.625V23.125C15.625 23.2908 15.6908 23.4497 15.8081 23.5669C15.9253 23.6842 16.0842 23.75 16.25 23.75H18.75C18.9158 23.75 19.0747 23.6842 19.1919 23.5669C19.3092 23.4497 19.375 23.2908 19.375 23.125V19.375H21.25C21.4158 19.375 21.5747 19.3092 21.6919 19.1919C21.8092 19.0747 21.875 18.9158 21.875 18.75V10C21.875 9.83424 21.8092 9.67527 21.6919 9.55806C21.5747 9.44085 21.4158 9.375 21.25 9.375H19.375V4.375H25C25.1658 4.375 25.3247 4.30915 25.4419 4.19194C25.5592 4.07473 25.625 3.91576 25.625 3.75V1.875H29.375V3.75C29.375 3.91576 29.4408 4.07473 29.5581 4.19194C29.6753 4.30915 29.8342 4.375 30 4.375ZM35.625 19.375C35.625 19.5408 35.5592 19.6997 35.4419 19.8169C35.3247 19.9342 35.1658 20 35 20H32.5C32.3342 20 32.1753 19.9342 32.0581 19.8169C31.9408 19.6997 31.875 19.5408 31.875 19.375V9.375C31.875 9.20924 31.9408 9.05027 32.0581 8.93306C32.1753 8.81585 32.3342 8.75 32.5 8.75H35C35.1658 8.75 35.3247 8.81585 35.4419 8.93306C35.5592 9.05027 35.625 9.20924 35.625 9.375V19.375ZM34.375 33.75V28.125H35.625V35.625H28.125V34.375H33.75C33.9158 34.375 34.0747 34.3092 34.1919 34.1919C34.3092 34.0747 34.375 33.9158 34.375 33.75ZM4.375 15.625H11.25V21.875H4.375V15.625ZM4.375 23.125H6.875V28.125H4.375V23.125ZM6.875 3.75V1.875H15.625V9.375H13.75C13.5842 9.375 13.4253 9.44085 13.3081 9.55806C13.1908 9.67527 13.125 9.83424 13.125 10V10.625H8.125V10C8.125 9.83424 8.05915 9.67527 7.94194 9.55806C7.82473 9.44085 7.66576 9.375 7.5 9.375H4.375V4.375H6.25C6.41576 4.375 6.57473 4.30915 6.69194 4.19194C6.80915 4.07473 6.875 3.91576 6.875 3.75ZM19.375 10.625H20.625V18.125H19.375V10.625ZM18.125 3.75V22.5H16.875V12.5C16.875 12.3342 16.8092 12.1753 16.6919 12.0581C16.5747 11.9408 16.4158 11.875 16.25 11.875H14.375V10.625H16.25C16.4158 10.625 16.5747 10.5592 16.6919 10.4419C16.8092 10.3247 16.875 10.1658 16.875 10V1.875H24.375V3.125H18.75C18.5842 3.125 18.4253 3.19085 18.3081 3.30806C18.1908 3.42527 18.125 3.58424 18.125 3.75ZM1.875 1.875H5.625V3.125H3.75C3.58424 3.125 3.42527 3.19085 3.30806 3.30806C3.19085 3.42527 3.125 3.58424 3.125 3.75V10C3.125 10.1658 3.19085 10.3247 3.30806 10.4419C3.42527 10.5592 3.58424 10.625 3.75 10.625H6.875V11.875H3.75C3.58424 11.875 3.42527 11.9408 3.30806 12.0581C3.19085 12.1753 3.125 12.3342 3.125 12.5V28.75C3.125 28.9158 3.19085 29.0747 3.30806 29.1919C3.42527 29.3092 3.58424 29.375 3.75 29.375H16.25C16.4158 29.375 16.5747 29.3092 16.6919 29.1919C16.8092 29.0747 16.875 28.9158 16.875 28.75V27.5H18.125V30.625H3.75C3.58424 30.625 3.42527 30.6908 3.30806 30.8081C3.19085 30.9253 3.125 31.0842 3.125 31.25V36.25C3.125 36.4158 3.19085 36.5747 3.30806 36.6919C3.42527 36.8092 3.58424 36.875 3.75 36.875H15.625V38.125H1.875V1.875ZM38.125 38.125H21.875V32.5H23.125V36.25C23.125 36.4158 23.1908 36.5747 23.3081 36.6919C23.4253 36.8092 23.5842 36.875 23.75 36.875H36.25C36.4158 36.875 36.5747 36.8092 36.6919 36.6919C36.8092 36.5747 36.875 36.4158 36.875 36.25V27.5C36.875 27.3342 36.8092 27.1753 36.6919 27.0581C36.5747 26.9408 36.4158 26.875 36.25 26.875H28.125V25.625H36.25C36.4158 25.625 36.5747 25.5592 36.6919 25.4419C36.8092 25.3247 36.875 25.1658 36.875 25V3.75C36.875 3.58424 36.8092 3.42527 36.6919 3.30806C36.5747 3.19085 36.4158 3.125 36.25 3.125H30.625V1.875H38.125V38.125Z" fill="#01000F"/>
</g>
<defs>
<clipPath id="clip0_2004_160">
<rect width="40" height="40" fill="white"/>
</clipPath>
</defs>
</svg>
