<svg width="15" height="15" viewBox="0 0 15 15" fill="none" xmlns="http://www.w3.org/2000/svg">
<path d="M7.5 0.000976562C3.35795 0.000976562 0 3.35893 0 7.50098C0 11.643 3.35795 15.001 7.5 15.001C11.6421 15.001 15 11.643 15 7.50098C15 3.35893 11.6421 0.000976562 7.5 0.000976562ZM7.5 13.751C4.0483 13.751 1.25001 10.9527 1.25001 7.50098C1.25001 4.04928 4.0483 1.25099 7.5 1.25099C10.9517 1.25099 13.75 4.04928 13.75 7.50098C13.75 10.9527 10.9517 13.751 7.5 13.751Z" fill="#FFB400"/>
<path d="M6.69194 3.93403C6.44787 3.68996 6.05213 3.68996 5.80805 3.93403C5.56398 4.1781 5.56398 4.57385 5.80805 4.81792L8.49112 7.50098L5.80805 10.1841C5.56398 10.4281 5.56398 10.8239 5.80805 11.0679C6.05213 11.312 6.44787 11.312 6.69194 11.0679L9.81695 7.94293C10.061 7.69885 10.061 7.30311 9.81695 7.05904L6.69194 3.93403Z" fill="#FFB400"/>
</svg>
