<svg width="50" height="50" viewBox="0 0 50 50" fill="none" xmlns="http://www.w3.org/2000/svg">
<g clip-path="url(#clip0_2_27555)">
<path d="M48.1327 45.8119C48.3399 45.8119 48.5386 45.7296 48.6851 45.5831C48.8316 45.4366 48.914 45.2379 48.914 45.0307V31.6366C48.914 31.4294 48.8316 31.2307 48.6851 31.0842C48.5386 30.9377 48.3399 30.8554 48.1327 30.8554H47.2947L47.2971 30.8475L48.8358 30.2552C48.9832 30.1985 49.1099 30.0984 49.1992 29.9683C49.2886 29.8381 49.3364 29.684 49.3364 29.5261V26.4008C49.3364 26.2429 49.2886 26.0887 49.1992 25.9586C49.1099 25.8284 48.9832 25.7284 48.8358 25.6717L47.2977 25.0797C47.0683 24.2595 46.741 23.47 46.3228 22.728L46.9923 21.2207C47.0564 21.0764 47.0752 20.9161 47.0464 20.7609C47.0175 20.6056 46.9423 20.4628 46.8307 20.3512L44.6206 18.1412C44.509 18.0296 44.3662 17.9544 44.2109 17.9255C44.0557 17.8967 43.8954 17.9156 43.7512 17.9797L42.2434 18.6493C41.5017 18.2313 40.7124 17.904 39.8925 17.6746L39.3003 16.136C39.2436 15.9887 39.1436 15.862 39.0134 15.7726C38.8833 15.6832 38.7291 15.6354 38.5712 15.6354H35.4459C35.288 15.6354 35.1338 15.6833 35.0037 15.7726C34.8735 15.862 34.7735 15.9887 34.7168 16.136L34.277 17.2782V7.35977C34.277 7.15257 34.1947 6.95385 34.0482 6.80734C33.9017 6.66083 33.703 6.57852 33.4958 6.57852H31.2461V4.02646C31.2461 3.81926 31.1638 3.62055 31.0173 3.47404C30.8708 3.32752 30.672 3.24521 30.4648 3.24521H26.6196V1.5625C26.6196 1.3553 26.5373 1.15659 26.3908 1.01007C26.2443 0.86356 26.0456 0.78125 25.8384 0.78125C25.6312 0.78125 25.4325 0.86356 25.2859 1.01007C25.1394 1.15659 25.0571 1.3553 25.0571 1.5625V3.24521H21.2119C21.0047 3.24521 20.806 3.32752 20.6595 3.47404C20.513 3.62055 20.4307 3.81926 20.4307 4.02646V6.57852H18.181C17.9738 6.57852 17.775 6.66083 17.6285 6.80734C17.482 6.95385 17.3997 7.15257 17.3997 7.35977V21.3705C17.2267 21.2867 17.0507 21.2092 16.8721 21.1381C16.8011 20.8463 16.6583 20.5788 16.4472 20.3467C15.6887 19.5125 14.3393 19.4473 13.9418 19.4473H13.9385C13.5401 19.4473 12.1908 19.5126 11.4324 20.3467C11.2214 20.5788 11.0785 20.8464 11.0075 21.1381C8.0413 22.3166 6.0707 25.1548 6.02402 28.3762C5.3499 28.6233 4.86748 29.2715 4.86748 30.0303C4.86748 31.0014 5.65751 31.7914 6.62861 31.7914H6.86484C7.06835 33.3732 7.7914 34.8342 8.94677 35.9661C9.33585 36.347 9.76701 36.6824 10.2319 36.9657C8.28516 37.5279 6.49235 38.5269 4.99003 39.8866C2.55156 42.0918 1.01669 45.099 0.668451 48.3544C0.656855 48.4634 0.668301 48.5736 0.702045 48.6778C0.73579 48.7821 0.79108 48.8781 0.864326 48.9596C0.937572 49.0411 1.02714 49.1063 1.12721 49.1509C1.22728 49.1956 1.33563 49.2187 1.44521 49.2188H26.4341C26.5437 49.2188 26.6521 49.1958 26.7522 49.1511C26.8523 49.1065 26.9419 49.0413 27.0152 48.9598C27.0885 48.8783 27.1438 48.7822 27.1775 48.6779C27.2112 48.5736 27.2225 48.4634 27.2108 48.3544C27.1181 47.49 26.9408 46.6367 26.6814 45.8069L48.1327 45.8119ZM40.6733 30.8554H34.277V24.1771C35.0723 23.6036 36.0279 23.2946 37.0085 23.2941C39.5831 23.2941 41.6777 25.3888 41.6777 27.9635C41.6785 29.0131 41.3245 30.0322 40.6733 30.8554ZM34.277 40.481H44.3998V41.6649H34.277V40.481ZM34.277 35.0022H44.3998V36.1862H34.277V35.0022ZM21.9932 4.80771H29.6836V6.57852H21.9932V4.80771ZM12.5886 21.3978C12.7931 21.1729 13.3603 21.0098 13.9388 21.0098H13.9416C14.5191 21.0098 15.0866 21.1729 15.291 21.3978C15.3415 21.4532 15.3705 21.5113 15.3592 21.629C15.3585 21.6358 15.3586 21.6426 15.3581 21.6494L15.357 21.6492L15.0041 24.3672C14.9921 24.4664 14.9439 24.5577 14.8689 24.6237C14.7938 24.6897 14.697 24.7257 14.5971 24.7248H13.2825C13.1826 24.7257 13.0858 24.6897 13.0107 24.6237C12.9356 24.5577 12.8875 24.4664 12.8755 24.3672L12.5226 21.6493L12.5214 21.6495C12.5209 21.6427 12.521 21.6359 12.5203 21.6291C12.509 21.5112 12.5381 21.4532 12.5886 21.3978ZM11.0975 22.8088L11.326 24.5683C11.4532 25.5482 12.2943 26.2872 13.2825 26.2872H14.5971C15.5852 26.2872 16.4264 25.5482 16.5536 24.5683L16.7821 22.8088C18.85 23.8385 20.2081 25.918 20.2894 28.2692H7.59013C7.67148 25.918 9.02958 23.8385 11.0975 22.8088ZM21.956 27.3309V25.3363H23.9505V27.3309H21.956ZM6.42997 30.0303C6.42997 29.9227 6.52099 29.8317 6.62861 29.8317H21.2509C21.3586 29.8317 21.4495 29.9227 21.4495 30.0303C21.4495 30.138 21.3585 30.2289 21.2509 30.2289H6.62871C6.52099 30.2289 6.42997 30.138 6.42997 30.0303ZM8.44501 31.7914H19.4346C18.9897 34.4174 16.677 36.4397 13.9436 36.4416H13.936C11.2025 36.4396 8.88984 34.4174 8.44501 31.7914ZM13.9385 38.0041H13.9411C14.0499 38.0041 14.1583 38.0061 14.2664 38.009L16.1315 43.8733L13.9397 46.348L11.7479 43.8733L13.6131 38.009C13.7212 38.0061 13.8296 38.0041 13.9385 38.0041ZM11.9202 38.1762L10.1245 43.8225C10.0835 43.9513 10.0767 44.0886 10.1047 44.2209C10.1327 44.3532 10.1945 44.476 10.2842 44.5772L13.011 47.6562H2.34667C3.23535 42.7616 7.09121 39.0057 11.9202 38.1762ZM14.8684 47.6562L17.5953 44.5772C17.6849 44.476 17.7468 44.3532 17.7748 44.2209C17.8027 44.0886 17.7959 43.9513 17.755 43.8225L15.9593 38.1762C20.7882 39.0057 24.6441 42.7615 25.5329 47.6562L14.8684 47.6562ZM22.8892 39.8865C22.8226 39.8265 22.7554 39.7672 22.6877 39.7085V34.4809C22.6877 33.941 23.2329 33.4849 23.8783 33.4849H27.7983C28.4436 33.4849 28.9889 33.9409 28.9889 34.4809V44.2444H26.0838C25.3268 42.5894 24.2397 41.1064 22.8892 39.8865ZM32.7145 44.2443H30.5515V34.4808C30.5515 33.07 29.3165 31.9223 27.7984 31.9223H23.8784C22.3603 31.9223 21.1253 33.07 21.1253 34.4808V38.5399C20.0478 37.8507 18.8765 37.3205 17.6476 36.9656C18.1126 36.6822 18.5437 36.3468 18.9329 35.966C20.0883 34.8341 20.8113 33.3732 21.0147 31.7913H21.2511C22.2222 31.7913 23.0122 31.0013 23.0122 30.0302C23.0122 29.5971 22.8546 29.2003 22.5942 28.8933H24.7317C24.8343 28.8933 24.9359 28.8731 25.0307 28.8338C25.1255 28.7945 25.2116 28.737 25.2842 28.6644C25.3567 28.5919 25.4143 28.5058 25.4535 28.411C25.4928 28.3162 25.513 28.2146 25.513 28.112V24.555C25.513 24.3478 25.4307 24.1491 25.2842 24.0026C25.1376 23.856 24.9389 23.7737 24.7317 23.7737H21.1747C21.0492 23.7737 20.9256 23.804 20.8143 23.862C20.703 23.9199 20.6074 24.0038 20.5354 24.1066C20.1006 23.4521 19.5703 22.8662 18.9622 22.3685V8.14102H32.7144L32.7145 44.2443ZM47.3515 44.2494H34.277V43.2275H45.181C45.3882 43.2275 45.587 43.1452 45.7335 42.9987C45.88 42.8522 45.9623 42.6535 45.9623 42.4463V39.6998C45.9623 39.4926 45.88 39.2939 45.7335 39.1474C45.587 39.0009 45.3882 38.9186 45.181 38.9186H34.277V37.7487H45.181C45.3882 37.7487 45.587 37.6664 45.7335 37.5199C45.88 37.3734 45.9623 37.1747 45.9623 36.9675V34.221C45.9623 34.0138 45.88 33.8151 45.7335 33.6686C45.587 33.5221 45.3882 33.4397 45.181 33.4397H34.277V32.4179H47.3516V44.2494H47.3515ZM47.774 28.9896L46.3611 29.5335C46.2427 29.5791 46.1372 29.6528 46.0537 29.7483C45.9701 29.8439 45.9112 29.9583 45.8818 30.0817C45.8191 30.3428 45.7448 30.6009 45.6593 30.8554H42.5281C42.9962 29.9633 43.2405 28.9709 43.2402 27.9636C43.2402 24.5272 40.4446 21.7317 37.0085 21.7317C36.0618 21.7325 35.1278 21.9486 34.277 22.3638V19.26C34.4794 19.1962 34.6838 19.1396 34.8901 19.0902C35.0135 19.0609 35.128 19.0019 35.2235 18.9184C35.319 18.8349 35.3927 18.7293 35.4383 18.6109L35.9821 17.198H38.0347L38.5785 18.6109C38.6241 18.7293 38.6978 18.8349 38.7933 18.9184C38.8888 19.0019 39.0032 19.0609 39.1267 19.0903C40.0653 19.3137 40.9622 19.6856 41.7836 20.1918C41.8916 20.2583 42.0143 20.2976 42.1409 20.3061C42.2675 20.3145 42.3943 20.2921 42.5103 20.2405L43.8951 19.6255L45.3465 21.0769L44.7316 22.4611C44.6801 22.5771 44.6577 22.7039 44.6662 22.8305C44.6747 22.9572 44.7139 23.0798 44.7805 23.1879C45.2869 24.0094 45.6588 24.9065 45.882 25.8454C45.9114 25.9689 45.9704 26.0833 46.0539 26.1788C46.1375 26.2743 46.243 26.3481 46.3614 26.3937L47.7738 26.9373V28.9896H47.774ZM21.1747 15.1399H30.502C30.7092 15.1399 30.908 15.0576 31.0545 14.9111C31.201 14.7646 31.2833 14.5659 31.2833 14.3587V10.9342C31.2833 10.727 31.201 10.5283 31.0545 10.3818C30.908 10.2352 30.7092 10.1529 30.502 10.1529H21.1747C20.9675 10.1529 20.7688 10.2352 20.6223 10.3818C20.4758 10.5283 20.3935 10.727 20.3935 10.9342V14.3587C20.3935 14.5659 20.4758 14.7646 20.6223 14.9111C20.7688 15.0576 20.9675 15.1399 21.1747 15.1399ZM21.956 11.7154H29.7208V13.5774H21.956V11.7154ZM21.1747 23.1231H24.7317C24.9389 23.1231 25.1376 23.0408 25.2842 22.8943C25.4307 22.7478 25.513 22.5491 25.513 22.3419V18.7849C25.513 18.5777 25.4307 18.379 25.2842 18.2324C25.1376 18.0859 24.9389 18.0036 24.7317 18.0036H21.1747C20.9675 18.0036 20.7688 18.0859 20.6223 18.2324C20.4758 18.379 20.3935 18.5777 20.3935 18.7849V22.3419C20.3935 22.5491 20.4758 22.7478 20.6223 22.8943C20.7688 23.0408 20.9675 23.1231 21.1747 23.1231ZM21.956 19.5661H23.9505V21.5606H21.956V19.5661ZM30.5019 18.0036H26.9448C26.7376 18.0036 26.5389 18.0859 26.3924 18.2324C26.2459 18.379 26.1636 18.5777 26.1636 18.7849V22.3419C26.1636 22.5491 26.2459 22.7478 26.3924 22.8943C26.5389 23.0408 26.7376 23.1231 26.9448 23.1231H30.5019C30.7091 23.1231 30.9079 23.0408 31.0544 22.8943C31.2009 22.7478 31.2832 22.5491 31.2832 22.3419V18.7849C31.2832 18.5777 31.2009 18.379 31.0544 18.2324C30.9079 18.0859 30.7091 18.0036 30.5019 18.0036ZM29.7207 21.5606H27.7261V19.5661H29.7207V21.5606ZM30.5019 23.7738H26.9448C26.7376 23.7738 26.5389 23.8561 26.3924 24.0027C26.2459 24.1492 26.1636 24.3479 26.1636 24.5551V28.1121C26.1636 28.3193 26.2459 28.518 26.3924 28.6645C26.5389 28.811 26.7376 28.8934 26.9448 28.8934H30.5019C30.7091 28.8934 30.9079 28.811 31.0544 28.6645C31.2009 28.518 31.2832 28.3193 31.2832 28.1121V24.5551C31.2832 24.3479 31.2009 24.1492 31.0544 24.0027C30.9079 23.8561 30.7091 23.7738 30.5019 23.7738ZM29.7207 27.3309H27.7261V25.3363H29.7207V27.3309Z" fill="#01000F"/>
</g>
<defs>
<clipPath id="clip0_2_27555">
<rect width="50" height="50" fill="white"/>
</clipPath>
</defs>
</svg>
