<svg width="287" height="261" viewBox="0 0 287 261" fill="none" xmlns="http://www.w3.org/2000/svg">
<g clip-path="url(#clip0_2_27269)">
<path d="M0.00807126 256.747C0.00807126 256.747 43.2889 258.113 60.071 257.207C65.2025 256.93 62.4736 236.755 61.829 225.858C61.4613 219.671 64.6277 199.645 67.7112 193.567C69.8213 189.407 73.5314 192.154 76.7366 194.233C79.7036 196.157 83.3101 197.66 86.5956 199.312C88.3303 200.185 88.338 208.366 88.0222 214.15C87.4707 224.223 78.8311 257.85 92.0378 258.134C103.181 258.371 127.655 258.043 133.149 257.728C137.064 257.506 137.83 256.669 138.356 253.041C138.734 250.438 141.172 239.562 137.633 238.909C135.811 238.573 132.691 238.72 130.177 238.715C124.763 238.702 121.263 237.651 117.522 233.953C110.816 227.325 94.1608 204.885 89.6041 200.301C87.828 198.514 84.4208 196.683 81.8292 195.323C79.0512 193.861 71.8744 190.318 72.1644 186.752C72.809 178.827 78.6421 132.116 80.4519 118.195C81.037 113.684 84.0739 100.757 86.3419 95.6497C88.5633 90.6453 89.05 95.7685 88.3976 98.2061C86.3471 105.878 81.0784 108.638 73.8421 107.019C57.4664 103.358 44.7802 101.315 36.3451 86.3406C32.6894 79.8488 28.3243 71.2809 27.2084 68.2364C26.279 65.6954 28.8085 68.1331 32.3062 67.3403C37.8726 66.0776 41.5128 63.8155 41.153 57.7446C40.9795 54.8344 40.1251 53.9771 39.8196 52.5284C38.9963 48.6447 39.0791 56.5981 34.2661 57.1662C30.0848 57.662 25.2667 54.8344 23.9204 51.9345C22.5715 49.0372 22.1495 47.4801 20.7307 46.4911C19.3145 45.5021 18.108 44.229 17.3287 41.967C16.6504 40.0019 17.5773 40.1181 17.6006 38.0987C17.6446 34.1065 14.8355 33.1253 13.3312 29.3655C12.8057 28.0511 12.2076 26.3907 11.8322 25.0195C10.6412 20.6736 12.7021 19.793 15.229 23.8679C16.3785 25.7193 17.7688 28.1183 18.0717 28.7458C18.53 29.7012 18.6025 31.1834 18.675 31.6792C18.7449 32.175 18.5689 35.0723 17.8595 34.2253C17.2562 33.5075 18.776 31.9013 20.0731 29.8794C20.7721 28.7922 22.3255 25.944 23.8764 24.7329C25.7871 23.2429 28.78 25.2494 27.0195 28.3171C25.4919 30.982 21.4064 36.9367 20.4925 37.7243C19.4284 38.6436 17.7973 37.3705 19.0763 36.663C20.174 36.0536 22.1132 36.9135 23.9411 35.5371C24.9974 34.7444 27.3534 30.8555 28.1068 33.8509C28.5314 35.5474 26.9392 38.9251 26.4447 40.0561C25.9476 41.1871 24.2466 45.9927 23.0427 45.5692C21.9863 45.1974 24.8472 44.2833 26.3359 42.8269C26.9961 42.1787 27.5502 40.6009 28.2182 39.8366C29.3522 38.5429 30.934 40.4305 30.059 42.6693C29.5619 43.9424 28.925 47.759 28.2156 49.1715C27.5088 50.5866 25.1683 52.4949 26.3049 50.1605C27.2369 48.2445 28.9327 50.0495 29.9813 48.9907C31.2085 47.7512 31.5528 42.0883 30.9108 40.4047C30.5431 39.4389 29.6344 36.5055 29.2175 34.357C28.3191 29.6986 30.8331 32.3713 32.3295 34.6101C32.9302 35.5113 33.8985 37.1433 34.6467 38.3983C36.661 41.7759 39.6151 46.4085 38.5872 50.6485C36.5937 58.8782 32.6558 54.4057 28.6687 57.0319C25.8104 58.9118 26.2143 61.4657 27.4751 64.2623C28.2881 66.0647 29.3522 66.6999 30.6648 66.3487C31.9748 65.995 34.5975 65.0757 35.4105 64.6883C36.2286 64.2984 37.9193 63.8543 39.5219 61.6852C41.4869 59.0254 44.4592 54.4238 46.3336 59.9163C47.9518 64.6677 57.7072 78.1807 62.1319 79.2833C72.2783 81.8139 77.0835 77.1684 83.7477 72.2879C96.6566 62.8368 97.089 69.6385 110.466 71.7921C113.576 72.2931 115.336 71.4487 117.004 70.4106C123.482 66.3823 121.77 73.5662 121.778 77.7804C121.788 84.5718 122.016 100.463 121.667 102.327C121.374 103.882 121.85 106.17 121.488 107.861C120.937 110.444 116.626 111.045 113.617 111.006C109.985 110.96 110.609 110.88 110.221 107.461C109.61 102.072 108.631 91.4458 107.774 88.8248C106.64 85.362 106.498 85.5737 106.71 83.5931C106.922 81.6125 108.411 79.7042 110.112 80.2697C111.813 80.8352 113.229 81.5428 112.734 82.6015C112.237 83.6628 108.623 80.5512 108.411 78.2194C108.198 75.8876 109.439 74.5784 110.891 74.1549C112.571 73.6643 117.799 71.9161 120.209 70.2066C122.037 68.9103 121.791 66.6405 121.159 64.6651M121.164 64.6935C121.164 64.6935 118.645 57.835 118.078 54.1604C117.511 50.4859 118.858 43.0618 120.204 39.8805C123.039 33.1821 124.639 25.5024 133.131 25.8924C148.38 26.5921 149.781 35.8547 157.737 38.9586C160.065 39.8676 162.604 39.7617 160.404 36.366C158.783 33.8664 153.009 29.993 150.022 28.0795C146.338 25.7193 137.895 22.1068 133.46 21.1616C130.798 20.5935 126.552 19.806 130.767 17.3063C133.817 15.4987 141.1 11.9765 145.222 10.5046C151.151 8.38717 164.901 14.1353 163.492 23.6974C162.954 27.3591 162.25 31.421 161.364 32.8102C160.525 34.1246 158.071 31.9529 156.347 30.4397C153.154 27.6354 139.174 21.5232 135.153 20.6555C132.763 20.1391 120.209 19.1346 115.704 21.6471C112.074 23.6716 115.958 28.7406 117.503 32.614C118.459 35.0155 118.663 39.6455 120.577 34.308C121.483 31.7773 122.917 27.5734 124.665 26.0964C131.479 20.3276 150.705 28.4101 154.273 34.4913C155.974 37.3886 153.936 41.4712 153.936 44.229C153.936 45.1147 153.879 45.9488 153.835 46.6796C153.584 51.1082 160.986 51.2425 160.515 46.819C160.114 43.0464 156.942 39.6145 152.937 37.4609C149.677 35.7076 152.414 42.9482 152.709 47.0205C152.849 48.952 151.932 53.6827 151.065 55.2553C150.286 56.6678 150.524 59.0073 152.437 59.0073C154.351 59.0073 155.956 57.8711 157.162 56.3863C159.174 53.9074 159.567 49.8067 154.868 51.4284C153.066 52.0507 152.064 54.7698 151.671 56.4561C151.213 58.4186 149.975 60.8253 148.851 63.3249C144.494 73.0239 147.109 73.8037 153.496 80.1948C158.332 85.034 163.676 90.7976 160.52 92.0061C155.347 93.9841 157.615 87.8358 161.584 82.6764C166.711 76.0116 163.573 63.9188 157.685 60.9595C154.7 59.4592 150.418 59.4876 148.422 61.4631C144.771 65.0731 136.693 67.0872 132.45 66.4494C121.91 64.8613 146.679 59.8388 145.719 68.6444C145.191 73.4525 145.03 84.1483 144.504 88.471C144.204 90.95 144.422 94.6659 144.46 97.7956C144.574 107.495 125.954 111.136 114.624 112.46C88.8636 115.474 62.7481 116.902 36.9225 120.204C32.2182 120.806 28.9017 121.049 26.7605 121.359C23.1022 121.888 22.908 122.738 24.9586 125.276C31.2758 133.103 66.6238 171.904 75.046 181.755C76.0091 182.884 79.2946 186.091 76.1851 186.011C74.8026 185.975 74.378 186.365 73.5262 185.303C72.6744 184.242 73.0291 183.785 72.0038 183.713C70.976 183.643 69.9844 183.111 69.3113 181.804C68.6381 180.498 68.0349 180.25 67.3617 180.178C66.6886 180.108 64.2782 179.436 64.4568 177.774C64.6329 176.113 65.3423 176.041 63.9623 175.264C58.8334 172.379 62.3701 170.174 66.4426 170.67C67.8951 170.845 69.9508 171.625 70.3754 172.862C70.8 174.099 69.596 174.77 68.2135 174.982C66.831 175.194 65.4484 176.007 65.4847 175.018C65.5209 174.029 66.831 175.584 68.0374 175.653C69.2413 175.723 70.0906 175.956 71.7217 175.865C73.3527 175.775 73.8472 175.194 75.0175 176.325C76.1877 177.456 76.1126 177.75 75.4395 178.174C74.7663 178.597 72.6123 179.171 71.7268 179.313C70.8414 179.455 66.9941 180.015 68.2316 178.889C69.4692 177.763 69.9611 180.42 71.4058 180.317C72.8479 180.214 74.4531 179.47 75.9754 179.362C79.7709 179.098 78.7897 181.309 77.6505 181.952C76.5864 182.553 74.4764 183.256 73.9197 183.31C73.3631 183.364 73.2129 182.938 73.9922 182.595C74.6006 182.326 74.9528 183.077 75.3075 183.421C75.8744 183.974 77.1198 182.639 78.7949 183.726C81.2312 185.303 75.2997 183.893 77.0809 186.065C79.9185 189.523 92.8792 202.264 92.8792 202.264C97.2262 207.754 113.581 230.002 122.542 235.363C126.972 238.015 149.447 237.222 160.606 237.034C177.911 236.742 214.004 229.77 232.821 224.964C240.674 222.961 245.671 218.4 241.707 210.917C236.327 200.763 221.399 171.938 221.399 171.938C221.399 171.938 190.229 108.806 182.465 94.4825C178.48 87.136 148.476 93.6123 154.685 106.322C174.755 147.45 199.402 181.823 219.255 219.444C223.079 226.687 227.227 226.263 232.627 223.779C239.374 220.675 244.788 213.835 243.941 206.135C243.338 200.668 240.695 185.841 240.019 182.473C236.066 162.765 223.102 107.513 228.04 91.642C230.243 84.5589 232.236 79.6913 230.271 78.3149C229.549 77.8088 221.761 77.1994 218.685 75.9496C216.267 74.9657 213.564 72.9671 211.617 71.8799C206.988 69.2925 205.538 80.0244 202.89 86.0927C199.628 93.5606 197.647 97.9531 195.371 106.415C193.813 112.212 193.644 116.197 196.479 118.459C199.314 120.721 201.184 120.127 202.812 117.16C204.441 114.19 214.646 89.38 215.923 86.1289C217.199 82.8778 211.317 79.2368 210.784 81.393C210.253 83.5492 216.417 83.0896 217.233 82.2426C218.048 81.393 219.395 79.273 218.652 77.7546C217.909 76.2336 215.711 75.5622 212.982 74.2556C205.934 70.878 204.306 66.1886 203.019 59.09C202.211 54.6356 199.625 43.3614 200.72 39.6894C202.903 32.379 210.421 36.6991 206.815 45.9101C205.044 50.4342 204.617 50.646 204.617 53.4038C204.617 56.1617 205.114 64.0763 208.301 67.2577C211.49 70.439 213.119 70.155 215.954 71.286C218.789 72.417 224.953 72.7708 221.482 73.8295C218.01 74.8909 216.379 72.133 215.175 69.1634C213.971 66.1938 214.538 66.3358 213.686 64.3578C212.834 62.3798 209.859 60.1874 209.647 61.742C209.494 62.8601 213.365 63.9446 212.982 60.4947C212.881 59.5909 212.645 58.509 212.127 57.1455C211.796 56.2779 211.149 55.5239 210.496 55.0978C209.606 54.5194 208.707 54.5503 208.586 55.7304C208.412 57.4038 213.396 57.9873 211.931 53.8557C211.118 51.5652 209.414 47.9811 208.443 47.2115C207.239 46.2561 206.991 47.6015 206.636 48.8719C206.281 50.145 205.963 51.5575 205.608 52.1953C205.253 52.8306 203.553 53.2566 202.773 51.8415C202.113 50.6434 201.756 46.2122 201.189 43.0412C200.552 39.4932 198.76 37.3473 196.591 35.0413C187.622 25.5128 185.238 22.9718 171.707 25.0686C166.591 25.8614 163.601 28.3584 163.601 33.9671C163.601 35.0413 163.423 36.7146 163.094 37.9954C162.379 40.7662 160.041 39.519 158.317 37.9722C156.008 35.9038 150.819 29.1563 152.738 26.5095C154.863 23.5761 163.969 20.2811 166.913 19.5012C181.077 15.7518 197.264 18.7911 209.362 26.1532C211.19 27.2661 213.323 28.6554 214.773 29.2829C217.805 30.5947 215.001 23.8472 213.14 19.8524C210.147 13.4329 197.774 1.91085 191.221 1.97799C191.221 1.97799 189.618 1.56999 188.484 4.75134C187.35 7.93269 186.278 12.116 184.153 13.0327C182.027 13.952 175.912 13.9235 174.426 12.227C172.937 10.5305 176.127 6.21807 178.11 4.73326C179.296 3.84755 189.585 -2.70883 188.246 1.83596C187.319 4.97858 185.805 12.7925 181.23 12.7925C180.202 12.7925 176.306 12.7228 175.526 11.8371C174.747 10.9539 175.102 9.43299 176.236 8.19608C176.841 7.53502 177.753 6.76293 178.462 6.09412C181.419 3.3156 177.709 3.38532 175.301 5.72485C172.608 8.34069 168.298 14.1172 167.164 15.9016C164.36 20.3198 169.825 17.8254 173.649 17.2805C174.804 17.1152 180.852 16.5884 184.559 16.4619C190.115 16.2708 202.421 20.8673 207.206 23.2559C212.091 25.6909 216.146 28.5779 217.766 34.0704C218.828 37.6752 218.688 43.0464 215.213 45.169C207.397 49.941 210.193 41.1355 207.843 33.7889C205.07 25.1203 190.641 23.0596 182.543 22.6929C176.554 22.4218 165.268 22.006 163.456 29.2286C161.338 37.6494 161.087 49.675 165.279 57.8892C166.817 60.9053 169.004 63.3662 170.793 66.3048C172.888 69.747 174.972 73.2614 180.062 72.3835C182.209 72.0142 187.785 69.2977 192.008 66.7257C209.52 56.0481 177.471 65.3933 180.629 76.0606C182.473 82.2813 185.447 90.1985 181.903 89.349C178.359 88.502 182.045 84.6828 188.849 84.8248C195.653 84.9669 197.779 81.2897 201.463 76.0606C204.469 71.7921 216.793 76.9128 222.693 79.2136C232.84 83.167 248.651 68.2338 252.729 101.233C254.336 114.239 258.326 133.255 259.877 147.406C260.843 156.232 262.523 168.865 254.121 174.383C248.309 178.2 235.695 183.005 232.718 181.593C229.741 180.18 230.025 178.484 230.025 171.979C230.025 164.237 229.733 159.202 224.182 153.56C223.964 153.34 223.69 153.136 223.478 152.857M223.498 152.891C223.498 152.891 222.08 150.84 219.457 150.84C216.834 150.84 212.368 154.092 210.67 155.295C209.375 156.209 205.991 158.022 204.259 159.708C203.037 160.896 201.82 163.424 204.645 163.424C206.416 163.424 208.684 162.293 210.03 161.727C211.377 161.162 216.125 157.769 217.119 157.345C218.113 156.922 222.24 154.595 220.203 154.693C218.116 154.797 219.661 156.498 217.927 157.999C216.089 159.589 210.859 163.158 209.784 163.599C208.914 163.956 205.243 164.736 203.037 165.807C199.226 167.656 200.824 173.12 205.991 170.703C207.125 170.174 218.287 164.059 220.13 163.494C221.973 162.928 224.806 160.17 223.283 160.702C221.94 161.17 222.08 163.372 219.485 164.922C216.832 166.507 211.599 169.443 210.952 169.89C210.136 170.455 201.634 172.612 201.173 174.414C200.712 176.216 202.165 176.428 202.91 176.286C203.653 176.144 212.265 174.096 215.736 172.681C219.208 171.269 223.25 169.606 223.817 169.04C224.384 168.475 225.59 165.825 224.102 166.709C222.398 167.721 224.249 169.745 222.245 170.889C219.506 172.454 208.925 175.535 208.013 176.57C207.006 177.712 208.65 177.983 210.069 178.197C211.488 178.409 214.108 178.055 217.015 177.843C219.34 177.673 224.117 176.237 226.295 175.235C228.622 174.164 229.57 169.766 228.78 167.594C227.928 165.262 227.788 165.051 227.716 163.354C227.646 161.658 227.434 160.808 226.44 159.114C225.448 157.418 225.803 156.922 228.213 156.356C230.623 155.791 230.196 156.498 230.906 153.529C231.286 151.935 231.341 147.006 230.916 143.324C230.165 136.832 227.869 138.084 228.418 143.489C229.269 151.858 234.409 170.778 237.474 181.763C238.802 186.52 246.044 239.26 247.022 253.189C247.276 256.799 247.786 256.708 244.226 257.028C230.134 258.294 168.057 257.315 157.338 257.057C154.4 256.987 153.224 251.577 153.092 246.919C153.02 244.311 154.231 235.851 155.769 242.867C156.919 248.102 152.732 258.875 157.877 259.732C174.535 262.508 293.995 258.761 293.995 258.761" stroke="#D8DDE1" stroke-width="1.92" stroke-miterlimit="2.6131"/>
</g>
<defs>
<clipPath id="clip0_2_27269">
<rect width="287" height="261" fill="white" transform="matrix(-1 0 0 1 287 0)"/>
</clipPath>
</defs>
</svg>
