<svg width="31" height="25" viewBox="0 0 31 25" fill="none" xmlns="http://www.w3.org/2000/svg">
<path d="M17.3008 22.1752L22.4563 12.4999L25.6343 11.6524C25.3047 12.3116 24.9045 12.8766 24.4337 13.3474C23.9629 13.8182 23.4214 14.0536 22.8094 14.0536C21.444 14.0536 20.1963 13.4886 19.0664 12.3587C17.9364 11.2287 17.3714 9.79269 17.3714 8.05066C17.3714 6.21446 17.9835 4.66076 19.2076 3.38955C20.4788 2.07126 22.0325 1.41211 23.8687 1.41211C25.6107 1.41211 27.1174 2.07126 28.3886 3.38955C29.7069 4.66076 30.366 6.21446 30.366 8.05066C30.366 8.80397 30.2248 9.69853 29.9423 10.7343C29.6598 11.723 29.0948 12.9943 28.2473 14.548L22.5269 25.0001L17.3008 22.1752Z" fill="white"/>
<path d="M13.1359 2.89554L7.98039 12.5003L4.73173 13.4184C5.10839 12.7121 5.53213 12.1471 6.00295 11.7234C6.47377 11.2526 7.01521 11.0172 7.62727 11.0172C8.99265 11.0172 10.2168 11.5822 11.2997 12.7121C12.4296 13.795 12.9946 15.2075 12.9946 16.9495C12.9946 18.7857 12.359 20.3629 11.0878 21.6812C9.86366 22.9995 8.3335 23.6587 6.49731 23.6587C4.75527 23.6587 3.22511 23.0231 1.90682 21.7518C0.635606 20.4336 0 18.8328 0 16.9495C0 16.1962 0.141246 15.3252 0.423737 14.3364C0.753311 13.3477 1.34184 12.053 2.18931 10.4522L7.83914 0L13.1359 2.89554Z" fill="white"/>
</svg>
