<svg width="58" height="58" viewBox="0 0 58 58" fill="none" xmlns="http://www.w3.org/2000/svg">
<path d="M7.00031 28.3082H11.4394C11.5584 28.3082 11.6763 28.2847 11.7863 28.2392C11.8963 28.1936 11.9962 28.1268 12.0804 28.0427C12.1646 27.9585 12.2314 27.8585 12.2769 27.7485C12.3225 27.6386 12.3459 27.5207 12.3459 27.4016V22.9007C12.3461 22.7816 12.3227 22.6637 12.2772 22.5536C12.2317 22.4436 12.1649 22.3436 12.0807 22.2594C11.9965 22.1752 11.8965 22.1084 11.7864 22.0629C11.6764 22.0174 11.5585 21.994 11.4394 21.9941H7.00031C6.75988 21.9941 6.52929 22.0896 6.35928 22.2596C6.18926 22.4297 6.09375 22.6602 6.09375 22.9007V27.4016C6.09375 27.9022 6.49875 28.3082 7.00031 28.3082ZM7.90688 23.8072H10.5319V26.4951H7.90688V23.8072ZM7.00031 37.1019H11.4394C11.5585 37.1021 11.6764 37.0787 11.7864 37.0332C11.8965 36.9877 11.9965 36.9209 12.0807 36.8367C12.1649 36.7525 12.2317 36.6525 12.2772 36.5424C12.3227 36.4324 12.3461 36.3145 12.3459 36.1954V31.6944C12.3461 31.5753 12.3227 31.4574 12.2772 31.3474C12.2317 31.2373 12.1649 31.1373 12.0807 31.0531C11.9965 30.9689 11.8965 30.9021 11.7864 30.8566C11.6764 30.8111 11.5585 30.7877 11.4394 30.7879H7.00031C6.88123 30.7877 6.76329 30.8111 6.65324 30.8566C6.5432 30.9021 6.44321 30.9689 6.359 31.0531C6.27479 31.1373 6.20802 31.2373 6.16251 31.3474C6.11699 31.4574 6.09363 31.5753 6.09375 31.6944V36.1954C6.09375 36.696 6.49875 37.1019 7.00031 37.1019ZM7.90688 32.601H10.5319V35.2888H7.90688V32.601ZM15.5119 28.3082H19.9509C20.1914 28.3082 20.422 28.2127 20.592 28.0427C20.762 27.8726 20.8575 27.6421 20.8575 27.4016V22.9007C20.8576 22.7816 20.8343 22.6637 20.7887 22.5536C20.7432 22.4436 20.6765 22.3436 20.5923 22.2594C20.508 22.1752 20.4081 22.1084 20.298 22.0629C20.188 22.0174 20.07 21.994 19.9509 21.9941H15.5119C15.2714 21.9941 15.0409 22.0896 14.8708 22.2596C14.7008 22.4297 14.6053 22.6602 14.6053 22.9007V27.4016C14.6053 27.9022 15.0113 28.3082 15.5119 28.3082ZM16.4184 23.8072H19.0444V26.4951H16.4184V23.8072ZM15.5119 37.1019H19.9509C20.07 37.1021 20.188 37.0787 20.298 37.0332C20.4081 36.9877 20.508 36.9209 20.5923 36.8367C20.6765 36.7525 20.7432 36.6525 20.7887 36.5424C20.8343 36.4324 20.8576 36.3145 20.8575 36.1954V31.6944C20.8576 31.5753 20.8343 31.4574 20.7887 31.3474C20.7432 31.2373 20.6765 31.1373 20.5923 31.0531C20.508 30.9689 20.4081 30.9021 20.298 30.8566C20.188 30.8111 20.07 30.7877 19.9509 30.7879H15.5119C15.3928 30.7877 15.2748 30.8111 15.1648 30.8566C15.0548 30.9021 14.9548 30.9689 14.8706 31.0531C14.7864 31.1373 14.7196 31.2373 14.6741 31.3474C14.6286 31.4574 14.6052 31.5753 14.6053 31.6944V36.1954C14.6053 36.696 15.0113 37.1019 15.5119 37.1019ZM16.4184 32.601H19.0444V35.2888H16.4184V32.601ZM24.0234 28.3082H28.4625C28.7029 28.3082 28.9335 28.2127 29.1035 28.0427C29.2736 27.8726 29.3691 27.6421 29.3691 27.4016V22.9007C29.3692 22.7816 29.3458 22.6637 29.3003 22.5536C29.2548 22.4436 29.188 22.3436 29.1038 22.2594C29.0196 22.1752 28.9196 22.1084 28.8096 22.0629C28.6995 22.0174 28.5816 21.994 28.4625 21.9941H24.0234C23.783 21.9941 23.5524 22.0896 23.3824 22.2596C23.2124 22.4297 23.1169 22.6602 23.1169 22.9007V27.4016C23.1169 27.9022 23.5228 28.3082 24.0234 28.3082ZM24.93 23.8072H27.5559V26.4951H24.93V23.8072ZM24.0234 37.1019H28.4625C28.5816 37.1021 28.6995 37.0787 28.8096 37.0332C28.9196 36.9877 29.0196 36.9209 29.1038 36.8367C29.188 36.7525 29.2548 36.6525 29.3003 36.5424C29.3458 36.4324 29.3692 36.3145 29.3691 36.1954V31.6944C29.3692 31.5753 29.3458 31.4574 29.3003 31.3474C29.2548 31.2373 29.188 31.1373 29.1038 31.0531C29.0196 30.9689 28.9196 30.9021 28.8096 30.8566C28.6995 30.8111 28.5816 30.7877 28.4625 30.7879H24.0234C23.9044 30.7877 23.7864 30.8111 23.6764 30.8566C23.5663 30.9021 23.4663 30.9689 23.3821 31.0531C23.2979 31.1373 23.2311 31.2373 23.1856 31.3474C23.1401 31.4574 23.1168 31.5753 23.1169 31.6944V36.1954C23.1169 36.696 23.5228 37.1019 24.0234 37.1019ZM24.93 32.601H27.5559V35.2888H24.93V32.601ZM37.5338 13.1591C37.4119 13.3014 37.3372 13.478 37.3199 13.6645C37.3026 13.8511 37.3436 14.0384 37.4372 14.2007L38.6569 16.3185C38.7514 16.4836 38.8956 16.6147 39.069 16.693C39.2424 16.7713 39.4361 16.7928 39.6225 16.7544L40.8375 16.5079L44.0344 18.3576L44.4281 19.476C44.4906 19.6528 44.6064 19.806 44.7595 19.9143C44.9126 20.0226 45.0956 20.0807 45.2831 20.0807H47.7281C47.9178 20.0808 48.1028 20.0213 48.2569 19.9106C48.411 19.7999 48.5264 19.6436 48.5869 19.4638L48.9834 18.2882L52.1784 16.4385L53.34 16.6607C53.5251 16.6965 53.7168 16.6735 53.8883 16.595C54.0597 16.5165 54.2024 16.3864 54.2963 16.2229L55.5159 14.1051C55.6104 13.9413 55.6512 13.7521 55.6327 13.564C55.6142 13.3758 55.5373 13.1982 55.4128 13.056L54.5953 12.1222V8.4313L55.3659 7.5313C55.4877 7.38898 55.5624 7.21246 55.5799 7.02598C55.5973 6.8395 55.5567 6.65219 55.4634 6.48974L54.2447 4.37193C54.15 4.20671 54.0056 4.0756 53.8321 3.99732C53.6585 3.91903 53.4646 3.89757 53.2781 3.93599L52.0631 4.18255L48.8663 2.33287L48.4716 1.21443C48.4091 1.03757 48.2933 0.884444 48.1402 0.776144C47.9871 0.667844 47.8041 0.609705 47.6166 0.609741H45.1716C44.9819 0.609659 44.7969 0.669159 44.6428 0.779842C44.4887 0.890525 44.3733 1.0468 44.3128 1.22662L43.9163 2.40224L40.7194 4.25099L39.5578 4.0288C39.3727 3.9943 39.1815 4.01784 39.0103 4.09622C38.8392 4.17459 38.6964 4.30396 38.6016 4.46662L37.3838 6.58443C37.2893 6.74818 37.2485 6.93738 37.267 7.12551C37.2855 7.31364 37.3623 7.49127 37.4869 7.63349L38.3044 8.56724V12.2582L37.5338 13.1591ZM39.8522 5.93099L40.7119 6.09599C40.926 6.13749 41.1478 6.09984 41.3363 5.99005L45.12 3.80099C45.3106 3.69061 45.4545 3.51467 45.525 3.30599L45.8222 2.4238H46.9753L47.2678 3.25255C47.3402 3.4559 47.4824 3.62697 47.6691 3.73537L51.4528 5.92443C51.6446 6.03545 51.8705 6.07215 52.0875 6.02755L53.0006 5.84287L53.5744 6.83943L53.0034 7.50693C52.863 7.67094 52.7859 7.87976 52.7859 8.09568V12.4626C52.7859 12.6819 52.8656 12.8938 53.01 13.0597L53.6241 13.7619L53.0503 14.7585L52.1906 14.5944C51.9763 14.5542 51.7547 14.5914 51.5653 14.6994L47.7816 16.8894C47.591 16.9998 47.447 17.1757 47.3766 17.3844L47.0794 18.2666H45.9272L45.6347 17.4379C45.5626 17.2341 45.4204 17.0626 45.2334 16.9541L41.4497 14.7651C41.2574 14.6555 41.0321 14.6189 40.815 14.6619L39.9019 14.8476L39.3281 13.851L39.8991 13.1835C40.0396 13.0192 40.1168 12.81 40.1166 12.5938V8.22693C40.1164 8.00734 40.0368 7.79522 39.8925 7.62974L39.2784 6.92755L39.8522 5.93099Z" fill="#01000F"/>
<path d="M46.4498 14.9029C47.658 14.9017 48.8164 14.4211 49.6708 13.5668C50.5252 12.7124 51.0057 11.554 51.007 10.3457C51.007 7.83229 48.9632 5.7876 46.4498 5.7876C43.9363 5.7876 41.8926 7.83229 41.8926 10.3457C41.8926 12.8582 43.9363 14.9029 46.4498 14.9029ZM46.4498 7.60072C47.9629 7.60072 49.1938 8.83166 49.1938 10.3457C49.1938 11.8598 47.9629 13.0898 46.4498 13.0898C44.9366 13.0898 43.7057 11.8588 43.7057 10.3457C43.7057 8.8326 44.9366 7.60072 46.4498 7.60072Z" fill="#01000F"/>
<path d="M57.0559 55.5773H56.0134V21.6248C56.0136 21.4747 55.9764 21.327 55.9052 21.1949C55.834 21.0628 55.731 20.9505 55.6056 20.8682C55.4804 20.7853 55.3364 20.7349 55.1868 20.7216C55.0371 20.7084 54.8866 20.7326 54.7487 20.7923L37.6346 28.1516C37.472 28.2218 37.3335 28.338 37.236 28.4859C37.1386 28.6338 37.0865 28.807 37.0862 28.9841V55.5773H33.834V18.6651C33.8341 18.546 33.8108 18.4281 33.7653 18.318C33.7198 18.208 33.653 18.108 33.5688 18.0238C33.4846 17.9396 33.3846 17.8728 33.2745 17.8273C33.1645 17.7818 33.0465 17.7584 32.9275 17.7585H29.3687V14.4801H32.9275C33.1679 14.4801 33.3985 14.3846 33.5685 14.2146C33.7385 14.0445 33.834 13.814 33.834 13.5735V9.07258C33.8341 8.95349 33.8108 8.83555 33.7653 8.72551C33.7198 8.61546 33.653 8.51547 33.5688 8.43127C33.4846 8.34706 33.3846 8.28029 33.2745 8.23477C33.1645 8.18926 33.0465 8.16589 32.9275 8.16602H2.53465C2.29421 8.16602 2.06363 8.26153 1.89361 8.43154C1.7236 8.60155 1.62809 8.83214 1.62809 9.07258V13.5735C1.62809 14.0741 2.03309 14.4801 2.53465 14.4801H6.0934V17.7585H2.53465C2.29421 17.7585 2.06363 17.854 1.89361 18.024C1.7236 18.1941 1.62809 18.4246 1.62809 18.6651V55.5773H0.944648C0.825597 55.5773 0.707711 55.6007 0.597722 55.6463C0.487733 55.6918 0.387794 55.7586 0.303612 55.8428C0.21943 55.927 0.152653 56.0269 0.107094 56.1369C0.0615349 56.2469 0.0380859 56.3648 0.0380859 56.4838C0.0380859 56.6029 0.0615349 56.7208 0.107094 56.8308C0.152653 56.9407 0.21943 57.0407 0.303612 57.1249C0.387794 57.209 0.487733 57.2758 0.597722 57.3214C0.707711 57.3669 0.825597 57.3904 0.944648 57.3904H57.0559C57.175 57.3904 57.2928 57.3669 57.4028 57.3214C57.5128 57.2758 57.6128 57.209 57.6969 57.1249C57.7811 57.0407 57.8479 56.9407 57.8935 56.8308C57.939 56.7208 57.9625 56.6029 57.9625 56.4838C57.9625 56.3648 57.939 56.2469 57.8935 56.1369C57.8479 56.0269 57.7811 55.927 57.6969 55.8428C57.6128 55.7586 57.5128 55.6918 57.4028 55.6463C57.2928 55.6007 57.175 55.5773 57.0559 55.5773ZM3.44121 9.97914H32.0209V12.667H3.44121V9.97914ZM7.90652 14.4801H27.5556V17.7585H7.90652V14.4801ZM3.44121 19.5716H32.0209V55.5773H26.7109V46.371H28.4621C28.5812 46.3711 28.6992 46.3478 28.8092 46.3023C28.9193 46.2567 29.0193 46.19 29.1035 46.1058C29.1877 46.0216 29.2544 45.9216 29.3 45.8115C29.3455 45.7015 29.3688 45.5835 29.3687 45.4645V41.1829C29.3688 41.0638 29.3455 40.9459 29.3 40.8358C29.2544 40.7258 29.1877 40.6258 29.1035 40.5416C29.0193 40.4574 28.9193 40.3906 28.8092 40.3451C28.6992 40.2996 28.5812 40.2762 28.4621 40.2763H6.99996C6.88087 40.2762 6.76293 40.2996 6.65289 40.3451C6.54284 40.3906 6.44286 40.4574 6.35865 40.5416C6.27444 40.6258 6.20767 40.7258 6.16216 40.8358C6.11664 40.9459 6.09328 41.0638 6.0934 41.1829V45.4645C6.0934 45.9651 6.4984 46.371 6.99996 46.371H8.75121V55.5773H3.44121V19.5716ZM7.90652 44.5579V42.0895H27.5556V44.5579H7.90652ZM24.8978 46.371V55.5773H10.5634V46.371H24.8978ZM38.8993 33.3585H54.2003V43.5866H38.8993V33.3585ZM54.2003 23.001V31.5454H38.8993V29.5804L54.2003 23.001ZM38.8993 45.3998H54.2003V55.5763H38.8993V45.3998Z" fill="#01000F"/>
<path d="M41.6214 37.4413H43.2657C43.5062 37.4413 43.7368 37.3458 43.9068 37.1758C44.0768 37.0058 44.1723 36.7752 44.1723 36.5347C44.1723 36.2943 44.0768 36.0637 43.9068 35.8937C43.7368 35.7237 43.5062 35.6282 43.2657 35.6282H41.6214C41.3809 35.6282 41.1503 35.7237 40.9803 35.8937C40.8103 36.0637 40.7148 36.2943 40.7148 36.5347C40.7148 36.7752 40.8103 37.0058 40.9803 37.1758C41.1503 37.3458 41.3809 37.4413 41.6214 37.4413ZM45.9639 39.5038H41.6204C41.38 39.5038 41.1494 39.5993 40.9794 39.7693C40.8094 39.9393 40.7139 40.1699 40.7139 40.4104C40.7139 40.6508 40.8094 40.8814 40.9794 41.0514C41.1494 41.2214 41.38 41.3169 41.6204 41.3169H45.9639C46.2043 41.3169 46.4349 41.2214 46.6049 41.0514C46.7749 40.8814 46.8704 40.6508 46.8704 40.4104C46.8704 40.1699 46.7749 39.9393 46.6049 39.7693C46.4349 39.5993 46.2043 39.5038 45.9639 39.5038ZM50.9242 35.6282C50.8051 35.6281 50.6872 35.6514 50.5771 35.6969C50.4671 35.7424 50.3671 35.8092 50.2829 35.8934C50.1987 35.9776 50.1319 36.0776 50.0864 36.1877C50.0409 36.2977 50.0175 36.4156 50.0176 36.5347V40.4104C50.0176 40.6508 50.1131 40.8814 50.2831 41.0514C50.4532 41.2214 50.6837 41.3169 50.9242 41.3169C51.1646 41.3169 51.3952 41.2214 51.5652 41.0514C51.7352 40.8814 51.8307 40.6508 51.8307 40.4104V36.5347C51.8309 36.4156 51.8075 36.2977 51.762 36.1877C51.7165 36.0776 51.6497 35.9776 51.5655 35.8934C51.4813 35.8092 51.3813 35.7424 51.2713 35.6969C51.1612 35.6514 51.0433 35.6281 50.9242 35.6282ZM49.9764 49.4825H51.6207C51.8612 49.4825 52.0918 49.387 52.2618 49.217C52.4318 49.047 52.5273 48.8164 52.5273 48.576C52.5273 48.3356 52.4318 48.105 52.2618 47.935C52.0918 47.7649 51.8612 47.6694 51.6207 47.6694H49.9764C49.7359 47.6694 49.5053 47.7649 49.3353 47.935C49.1653 48.105 49.0698 48.3356 49.0698 48.576C49.0698 48.8164 49.1653 49.047 49.3353 49.217C49.5053 49.387 49.7359 49.4825 49.9764 49.4825ZM51.6207 51.546H47.2764C47.0359 51.546 46.8053 51.6415 46.6353 51.8115C46.4653 51.9815 46.3698 52.2121 46.3698 52.4525C46.3698 52.693 46.4653 52.9236 46.6353 53.0936C46.8053 53.2636 47.0359 53.3591 47.2764 53.3591H51.6207C51.8612 53.3591 52.0918 53.2636 52.2618 53.0936C52.4318 52.9236 52.5273 52.693 52.5273 52.4525C52.5273 52.2121 52.4318 51.9815 52.2618 51.8115C52.0918 51.6415 51.8612 51.546 51.6207 51.546ZM42.4436 47.6694C42.3245 47.6693 42.2065 47.6927 42.0965 47.7382C41.9864 47.7837 41.8864 47.8505 41.8022 47.9347C41.718 48.0189 41.6513 48.1189 41.6057 48.2289C41.5602 48.339 41.5369 48.4569 41.537 48.576V52.4525C41.537 52.693 41.6325 52.9236 41.8025 53.0936C41.9725 53.2636 42.2031 53.3591 42.4436 53.3591C42.684 53.3591 42.9146 53.2636 43.0846 53.0936C43.2546 52.9236 43.3501 52.693 43.3501 52.4525V48.576C43.3501 48.3356 43.2546 48.105 43.0846 47.935C42.9146 47.7649 42.684 47.6694 42.4436 47.6694Z" fill="#01000F"/>
</svg>
