<svg width="172" height="48" viewBox="0 0 172 48" fill="none" xmlns="http://www.w3.org/2000/svg">
<g clip-path="url(#clip0_2_24354)">
<path d="M38.6137 47.0005C36.1473 45.9218 34.1986 44.1914 32.7428 42.0845C32.2003 41.3073 31.8053 40.4291 31.3614 39.5516C31.3614 39.5011 31.3614 39.4766 31.3366 39.4261C31.3366 39.4009 31.2876 39.3511 31.2628 39.3259C31.1891 39.15 31.1394 38.9748 31.0657 38.7989C31.0409 38.6986 31.0167 38.5227 30.9175 38.4982C30.8685 38.4477 30.4246 38.4982 30.3502 38.5234C30.1282 38.5739 29.8318 38.5234 29.5857 38.5739C29.4375 38.6236 29.2652 38.5739 29.1418 38.5991C28.9695 38.6495 28.7965 38.5991 28.6731 38.6243C28.5745 38.6495 28.4015 38.6495 28.3277 38.6243C28.254 38.6243 28.081 38.6495 28.0072 38.6495C27.7852 38.6993 27.5136 38.6243 27.2917 38.6748C27.2179 38.6748 27.1435 38.6748 27.0697 38.6495C27.0208 38.6748 26.9463 38.6495 26.8726 38.6495C26.7244 38.6993 26.4038 38.6748 26.2805 38.6495C26.0585 38.5991 25.7869 38.6993 25.565 38.6495C25.4416 38.6243 25.2692 38.6748 25.121 38.6495C24.4303 38.5991 23.7645 38.5745 23.0986 38.5493C22.605 38.4239 22.0377 38.4995 21.5449 38.3741C21.4215 38.3741 21.2733 38.3741 21.1506 38.3489C20.9775 38.3236 20.8052 38.3236 20.6322 38.2739C20.5088 38.2739 20.3854 38.2486 20.262 38.2486C20.089 38.1989 19.8429 38.1989 19.6699 38.1484C19.621 38.1484 19.5713 38.1484 19.5217 38.1484C19.3246 38.0986 19.1026 38.0986 18.9048 38.0482C18.88 38.0482 18.831 38.0482 18.7814 38.0482C18.3127 37.9227 17.7454 37.8975 17.2766 37.772C17.2029 37.772 17.1533 37.772 17.0795 37.7468C16.9809 37.7216 16.8575 37.6964 16.7341 37.6718C16.6852 37.6718 16.6356 37.6718 16.5611 37.6718C16.3392 37.5968 16.0186 37.5464 15.7967 37.4714C15.7229 37.4714 15.6237 37.4714 15.5499 37.4461C15.3279 37.3964 15.0564 37.3459 14.8344 37.2702C14.7848 37.2702 14.7358 37.2702 14.6614 37.2702C14.1678 37.1202 13.6005 36.9941 13.1077 36.8693C12.8609 36.7943 12.6389 36.7691 12.417 36.6941C12.3432 36.6689 12.2688 36.6689 12.195 36.6436C11.7511 36.4936 11.2575 36.3927 10.7888 36.2427C10.0733 36.017 9.35781 35.7914 8.61816 35.5657C8.37139 35.4907 8.07567 35.3652 7.8289 35.2643C7.6807 35.2145 7.55731 35.1893 7.43393 35.1389C7.1382 35.0386 6.84181 34.9132 6.5709 34.7877C6.4227 34.738 6.29931 34.7127 6.15179 34.6623C5.83125 34.5116 5.51072 34.3861 5.16537 34.2614C4.89379 34.1359 4.6222 33.9852 4.35129 33.8598C3.36487 33.4336 2.42741 32.957 1.61333 32.3802C1.24317 32.1293 0.848873 31.8791 0.57729 31.5273C0.552478 31.4775 0.478715 31.427 0.429763 31.3773C0.281566 31.1768 0.133369 30.9511 0.0596052 30.7002C0.0347939 30.6252 0.0347939 30.5495 0.0347939 30.4998C0.00998264 30.3995 -0.0141581 30.3239 0.00998264 30.2236C0.00998264 30.148 0.00998264 30.0982 0.00998264 30.0225C0.207132 29.295 0.848202 28.9193 1.51475 28.6684C1.76153 28.5682 2.05725 28.4673 2.32883 28.367C2.60042 28.292 2.87133 28.2416 3.1181 28.1666C3.16772 28.1666 3.21668 28.1414 3.2663 28.1414C3.56269 28.0664 3.90804 28.0411 4.20376 27.9661C4.47535 27.8911 4.77107 27.8911 5.04198 27.8155C5.11575 27.8155 5.21499 27.8155 5.31357 27.7902C5.85606 27.6648 6.4978 27.69 7.06511 27.5645C7.1885 27.5393 7.31188 27.5645 7.43527 27.5393C7.53384 27.5393 7.63309 27.5393 7.73166 27.5141C7.95362 27.4643 8.22521 27.4889 8.44717 27.4391C8.52093 27.4391 8.57055 27.4391 8.64432 27.4391C8.9159 27.3641 9.26124 27.4139 9.53216 27.3641C9.68036 27.3389 9.80374 27.3389 9.95127 27.3389C10.198 27.2891 10.469 27.3136 10.7157 27.2639C10.8391 27.2639 10.9625 27.2639 11.0859 27.2639C11.456 27.1636 11.9737 27.2639 12.3687 27.1636C12.5907 27.1636 12.8126 27.1636 13.0346 27.1384C13.4537 27.0627 13.8735 27.1636 14.2926 27.088C14.4401 27.0382 14.6379 27.088 14.7854 27.0627C15.1556 27.0375 15.5258 27.0375 15.8711 27.0375C15.9945 27.0123 16.2165 27.0123 16.315 27.0123C16.364 27.0123 16.4384 27.0123 16.488 26.987C16.5129 26.987 16.5618 27.0123 16.5866 27.0123C16.6604 27.0123 16.7596 26.987 16.8086 26.987C16.9809 26.9366 17.1539 26.987 17.3021 26.9618C17.4745 26.912 17.6723 26.987 17.8198 26.9366C17.9928 26.9114 18.2389 26.9618 18.3871 26.9366C18.4857 26.9366 18.5594 26.9366 18.6339 26.9366C18.8558 26.9366 19.226 26.9618 19.4231 26.9114C19.4969 26.9114 19.5713 26.9114 19.6451 26.9114C19.6699 26.9114 19.7685 26.8861 19.8174 26.8861C19.8423 26.9114 19.916 26.9114 19.9656 26.9114C19.9905 26.9114 20.0394 26.8861 20.089 26.8861C20.1628 26.8861 20.262 26.8861 20.3358 26.8861C20.4592 26.8609 20.6563 26.8609 20.7797 26.8609C20.8287 26.8609 20.8535 26.8609 20.9031 26.8609C21.0017 26.8609 21.1747 26.8861 21.2981 26.8609C21.4952 26.8105 21.8158 26.8357 22.0377 26.8357C22.3335 26.8357 22.6298 26.8357 22.9256 26.8357C23.049 26.8357 23.2213 26.8609 23.3447 26.8357C23.7148 26.8357 24.1091 26.8357 24.4793 26.8357C24.5531 26.8105 24.6275 26.8105 24.7013 26.8357C24.8736 26.8357 25.0714 26.8105 25.2437 26.8105C25.6139 26.7852 26.0578 26.8105 26.4521 26.7852C26.6003 26.7852 26.8223 26.7852 26.9457 26.7852C27.0194 26.76 27.1428 26.7852 27.1924 26.7852C27.2662 26.7852 27.34 26.7852 27.3896 26.7852C27.6116 26.7852 27.8831 26.8105 28.0803 26.76C28.154 26.76 28.2526 26.76 28.2774 26.7852C28.3512 26.7852 28.4256 26.76 28.4498 26.76C28.6228 26.7348 28.8199 26.7852 28.9681 26.76C29.0667 26.76 29.1653 26.76 29.2638 26.76C29.4858 26.76 29.683 26.76 29.8808 26.76C30.0042 26.76 30.1276 26.76 30.2013 26.76C30.3495 26.7102 30.5467 26.8098 30.6204 26.7102C30.6694 26.61 30.6942 26.3093 30.719 26.1832C30.7686 26.0332 30.8424 25.8068 30.892 25.6568C30.9168 25.5818 30.9168 25.5061 30.941 25.4311C31.0147 25.2055 31.0892 24.9545 31.1629 24.7541C31.1877 24.6539 31.1877 24.5782 31.2367 24.4527C31.4338 23.9011 31.6558 23.3243 31.8778 22.7973C31.9763 22.5716 32.026 22.3711 32.1245 22.1448C32.4947 21.4677 32.8152 20.7402 33.2095 20.0884C33.2833 19.963 33.3081 19.8123 33.4067 19.6875C33.9002 18.9355 34.3689 18.1575 34.9114 17.4552C35.0844 17.2043 35.3057 16.9541 35.5036 16.7032C35.5284 16.678 35.5773 16.6534 35.6021 16.603C35.7503 16.4025 35.9227 16.2266 36.0957 16.0261C36.1205 16.0009 36.1694 15.9764 36.1942 15.9511C36.3921 15.7255 36.5892 15.4998 36.8112 15.3239C36.8608 15.2741 36.9097 15.2236 36.9594 15.1732C37.231 14.9475 37.4777 14.6714 37.7486 14.4709C38.2663 14.07 38.7847 13.6684 39.352 13.3173C40.1661 12.7902 41.0787 12.4391 42.0651 12.088C42.5091 11.9625 43.0274 11.9127 43.4955 11.7873C43.7422 11.7873 44.0138 11.7873 44.2599 11.762C44.3337 11.7368 44.4571 11.7368 44.5315 11.762C44.6053 11.762 44.6549 11.762 44.7039 11.762C44.8272 11.762 45.0002 11.762 45.123 11.7873C45.2712 11.8125 45.3945 11.7873 45.5179 11.8125C46.1101 11.9632 46.7263 12.013 47.195 12.2639C47.368 12.3395 47.5404 12.3641 47.6886 12.4398C48.0829 12.6157 48.4779 12.8407 48.8232 13.067C49.9826 13.8443 50.8953 14.923 51.6108 16.127C51.9313 16.6534 52.1533 17.2807 52.4001 17.8575C52.4738 18.0334 52.4986 18.2086 52.5482 18.4091C52.6716 18.7855 52.7702 19.2368 52.8688 19.6384C52.9177 19.8389 52.9177 20.0645 52.9674 20.2405C52.9674 20.3911 52.9674 20.5166 52.9922 20.6414C53.017 20.8173 53.017 21.0927 53.017 21.2686C53.0418 21.4943 53.0666 21.7452 53.017 21.9457C53.017 21.9955 53.017 22.0459 53.0418 22.0964C53.017 22.3725 52.9928 22.648 52.968 22.9241C52.9191 23.175 52.9432 23.4259 52.8695 23.6761C52.8198 23.8766 52.7957 24.1023 52.7461 24.3034C52.6475 24.6545 52.5737 25.0057 52.4503 25.3316C52.3518 25.6827 52.2036 26.0591 52.0554 26.385C52.0064 26.5357 51.883 26.6611 51.883 26.8616C51.883 26.8868 51.883 26.8868 51.883 26.8868C51.9568 26.8868 52.0802 26.912 52.1546 26.8868C52.2036 26.8868 52.3028 26.8616 52.3518 26.8868C52.4752 26.912 52.6482 26.9366 52.7709 26.912C52.7957 26.912 52.8446 26.8868 52.8943 26.8868C52.9928 26.912 53.1907 26.9366 53.3134 26.912C53.4616 26.912 53.6098 26.912 53.7821 26.912C54.0041 26.912 54.2508 26.9373 54.448 26.9373C54.5218 26.9373 54.6699 26.8875 54.7685 26.912C54.9409 26.9618 55.1876 26.9373 55.3606 26.9373C55.7549 26.9373 56.1251 26.9373 56.5201 26.9373C57.6547 26.9373 58.7893 26.9373 59.9239 26.9373C60.5898 26.9373 61.2805 26.9625 61.9464 26.9625C62.218 26.9625 62.4151 26.9625 62.6619 26.9625C62.7604 26.9625 62.859 26.9877 62.9335 26.9625C63.032 26.9373 63.1802 26.9625 63.2298 26.9625C63.3774 26.9625 63.5014 26.9625 63.6241 26.9625C63.7227 26.9877 63.8213 26.9625 63.9199 26.9625C64.0184 26.9625 64.1418 26.9877 64.2404 26.9625C64.3886 26.7116 64.4624 26.4361 64.6106 26.16C64.8573 25.7086 65.0545 25.232 65.2523 24.7555C65.2771 24.7302 65.3261 24.705 65.3261 24.6552C65.4246 24.4295 65.5232 24.2291 65.6225 24.0027C65.6473 23.953 65.6714 23.9025 65.6962 23.852C66.1401 22.8239 66.5841 21.8461 67.028 20.8173C67.2996 20.19 67.5953 19.5634 67.8421 18.9614C67.8917 18.8359 67.8917 18.7609 67.9406 18.6355C68.064 18.3845 68.2122 18.1084 68.3108 17.8575C68.3598 17.7573 68.3598 17.6318 68.4342 17.5064C68.5079 17.3557 68.6065 17.1552 68.681 16.9548C68.7058 16.9043 68.7058 16.8791 68.7299 16.8293C68.7299 16.8041 68.7795 16.7789 68.7795 16.7536C69.1987 15.6505 69.6426 14.597 70.1113 13.5689C70.2099 13.3432 70.2347 13.1427 70.3333 12.9416C70.3581 12.8918 70.407 12.8666 70.407 12.8161C70.5304 12.5148 70.6042 12.2639 70.7276 11.9632C70.7772 11.863 70.851 11.7375 70.9006 11.6373C70.9006 11.5868 70.9254 11.537 70.9254 11.4866C70.9502 11.4361 70.9991 11.4116 71.024 11.3611C71.0729 11.2357 71.0729 11.1355 71.1473 11.01C71.1963 10.8845 71.2707 10.7339 71.3203 10.6091C71.3941 10.4836 71.3941 10.3582 71.4685 10.2082C71.6657 9.75682 71.9125 9.255 72.0855 8.80364C72.233 8.47773 72.3322 8.20159 72.4556 7.87568C72.5294 7.75023 72.6286 7.57432 72.7024 7.42432C72.7514 7.27364 72.7762 7.14818 72.8499 6.99818C72.8747 6.97295 72.8996 6.94841 72.9237 6.92318C72.9485 6.87341 72.9485 6.82295 72.9485 6.77318C72.9733 6.72273 73.0223 6.6975 73.0471 6.64773C73.0471 6.59795 73.0719 6.57273 73.0719 6.52227C73.0967 6.44727 73.1705 6.39682 73.1953 6.34705C73.1953 6.29659 73.2201 6.24682 73.2201 6.19636C73.3435 5.92023 73.4917 5.64477 73.6144 5.36864C73.6392 5.29295 73.713 5.24318 73.7378 5.19273C73.7378 5.1675 73.7378 5.11773 73.7626 5.0925C73.7874 5.01682 73.8115 4.96705 73.8363 4.91659C73.8612 4.86614 73.8612 4.84159 73.8853 4.79114C73.9101 4.74068 73.9591 4.69091 73.9839 4.64045C74.0087 4.61523 74.0087 4.56545 74.0328 4.515C74.0576 4.44 74.1066 4.38955 74.1314 4.33909C74.1562 4.26409 74.1804 4.18841 74.2052 4.11341C74.3527 3.88705 74.5009 3.66205 74.6243 3.43636C74.6732 3.36136 74.698 3.26114 74.7477 3.16023C74.8214 3.03477 74.92 2.88409 75.0192 2.75932C75.0192 2.70955 75.0441 2.65909 75.0441 2.60864C75.0689 2.58341 75.1178 2.55886 75.1178 2.53364C75.1674 2.45864 75.1916 2.35773 75.266 2.28273C75.2908 2.23227 75.3646 2.1825 75.3894 2.13205C75.6362 1.78091 75.8829 1.47955 76.2035 1.22932C76.351 1.07864 76.4992 0.927955 76.6474 0.777955C76.8204 0.6525 76.9679 0.551591 77.1409 0.452045C77.1658 0.426818 77.1899 0.377045 77.2147 0.377045C77.2637 0.377045 77.3133 0.351818 77.3629 0.351818C77.3877 0.326591 77.4367 0.301364 77.4615 0.276136C77.5104 0.276136 77.5601 0.276136 77.5849 0.276136C77.6586 0.250909 77.7083 0.201136 77.7579 0.175909C77.8564 0.175909 77.955 0.150682 78.0543 0.150682C78.1528 0.125455 78.2514 0.0504545 78.35 0.0504545C78.4982 0 78.6216 0.0504545 78.7443 0C78.8925 0 78.9911 0.0252273 79.1145 0.0504545C79.213 0.0756818 79.2875 0.0504545 79.3612 0.0756818C79.4598 0.125455 79.5584 0.201136 79.6328 0.250909C79.6818 0.276136 79.7066 0.276136 79.7562 0.300682C79.83 0.325909 79.9044 0.375682 79.9533 0.426136C80.0023 0.476591 80.0519 0.551591 80.1015 0.602045C80.1753 0.677045 80.2497 0.7275 80.3235 0.8025C80.3724 0.8775 80.3725 0.953182 80.4221 1.02818C80.4469 1.07795 80.5206 1.12841 80.5455 1.20341C80.5951 1.27841 80.5951 1.35409 80.644 1.45432C80.6688 1.52932 80.7178 1.57977 80.7426 1.65477C80.7922 1.73045 80.7674 1.80545 80.7922 1.88114C80.7922 1.95614 80.8412 2.00659 80.866 2.08159C80.8908 2.15727 80.866 2.23227 80.8908 2.3325C80.9156 2.35773 80.9404 2.43273 80.9404 2.45795C80.9652 2.55818 80.9652 2.65841 80.9652 2.73409C80.9652 2.78386 80.9901 2.85955 81.0142 2.90932C81.0142 2.985 81.0142 3.06 80.9894 3.135C81.0383 3.28568 81.0631 3.63614 81.0142 3.81205C80.9894 3.9375 81.039 4.03773 81.0142 4.16318C81.0142 4.26341 81.0142 4.36364 81.0142 4.46386C80.9652 4.71477 80.9894 5.01545 80.9404 5.26636C80.8908 5.39182 80.9404 5.49205 80.9156 5.64273C80.817 5.96864 80.817 6.39477 80.7426 6.69614C80.7426 6.77182 80.7426 6.82159 80.7426 6.87205C80.7178 6.89727 80.6937 6.97227 80.6937 6.9975C80.6937 7.04795 80.6937 7.09773 80.6937 7.14818C80.6199 7.44955 80.5703 7.8 80.4965 8.12659C80.4476 8.25205 80.4717 8.32705 80.4476 8.47773C80.3242 8.90386 80.2504 9.40568 80.127 9.83182C80.127 9.88159 80.127 9.93205 80.127 9.9825C80.1022 10.0827 80.0533 10.2082 80.0285 10.3084C80.0285 10.3589 80.0285 10.4093 80.0285 10.4591C79.8802 10.9609 79.7817 11.4873 79.6341 11.9639C79.6341 12.0136 79.6341 12.0641 79.6341 12.0893C79.5845 12.2148 79.5604 12.3402 79.5108 12.4405C79.5108 12.4909 79.5108 12.5407 79.5108 12.5911C79.3136 13.168 79.1654 13.7952 79.0179 14.372C78.8945 14.7484 78.8697 15.0491 78.4995 15.15C78.4258 15.1752 78.3272 15.1998 78.2528 15.1752C77.9812 15.1002 77.6358 14.8241 77.7344 14.4232C77.8082 14.1975 78.006 13.997 78.1046 13.7707C78.2031 13.4945 78.2528 13.2191 78.3513 12.943C78.6719 12.09 78.7953 11.087 79.0668 10.1591C79.1158 10.0084 79.0916 9.88295 79.1406 9.73295C79.1896 9.48205 79.2392 9.18136 79.2888 8.93045C79.2888 8.88068 79.2888 8.85545 79.2888 8.805C79.3874 8.45386 79.3874 8.05295 79.4859 7.67659C79.4859 7.62682 79.4859 7.57636 79.4859 7.50136C79.5597 7.22523 79.5349 6.87409 79.6093 6.59864C79.6093 6.54818 79.6341 6.27273 79.6341 6.27273C79.6341 6.2475 79.6093 6.19773 79.6093 6.14727C79.6341 6.07227 79.6341 5.89636 79.6583 5.79614C79.6583 5.72045 79.6583 5.64545 79.6583 5.54523C79.6831 5.41977 79.6831 5.19409 79.6583 5.06864C79.6583 5.01818 79.6583 4.94318 79.6831 4.89273C79.6583 4.66705 79.6583 4.41614 79.6583 4.16523C79.6335 4.065 79.6583 3.91432 79.6335 3.81409C79.6335 3.73909 79.6335 3.66341 79.6335 3.58841C79.6087 3.46295 79.5838 3.2625 79.5349 3.13705C79.5349 3.08659 79.5349 3.01159 79.5349 2.96114C79.4611 2.71023 79.4115 2.45932 79.3129 2.23364C79.1896 1.93227 79.091 1.58182 78.7704 1.50614C78.0549 1.30568 77.5862 1.93227 77.2657 2.30864C77.1423 2.43409 76.9941 2.55955 76.8955 2.70955C76.748 2.91 76.5998 3.11045 76.4516 3.33614C76.3778 3.41182 76.2786 3.51205 76.2048 3.61227C76.0814 3.81341 75.9581 4.01386 75.8347 4.23955C75.7609 4.31455 75.6865 4.39023 75.6375 4.49045C75.6127 4.51568 75.6127 4.59068 75.5879 4.61591C75.1936 5.19273 74.8234 5.79477 74.5519 6.44659C74.527 6.49705 74.4781 6.54682 74.4285 6.59727C74.4037 6.64705 74.4036 6.72273 74.3795 6.77318C74.3057 6.89864 74.2313 7.04932 74.1576 7.14955C74.1327 7.22455 74.1086 7.30023 74.0838 7.37523C73.9363 7.60091 73.837 7.82659 73.7384 8.10273C73.6647 8.22818 73.5661 8.40409 73.4917 8.52886C73.3683 8.83023 73.2449 9.10568 73.0974 9.40705C73.0974 9.45682 73.0484 9.50727 73.0236 9.5325C71.2721 13.4448 69.546 17.4075 67.8434 21.3702C67.2761 22.7243 66.6102 24.0286 66.0429 25.3582C65.9443 25.5586 65.821 25.7345 65.7465 25.935C65.6728 26.085 65.6231 26.2861 65.5494 26.4368C65.4508 26.5623 65.3026 26.788 65.3026 26.9632H65.3274C65.3764 26.9884 65.4756 26.9632 65.5494 26.9632C65.6976 26.9632 65.8699 26.938 66.0429 26.9632C66.0919 26.9884 66.2401 26.938 66.3386 26.9632C66.4124 26.9884 66.5117 26.9632 66.5854 26.9632C66.7578 26.9632 66.9556 26.9632 67.1031 26.9884C67.2265 26.9884 67.3251 26.9632 67.4236 26.9884C67.547 26.9884 67.6704 26.9632 67.769 26.9632C67.8427 26.9884 67.9172 26.9632 68.0157 26.9632C68.1391 26.9632 68.2625 26.9632 68.41 26.9632C68.459 26.9632 68.4838 26.9884 68.5086 26.9884C68.632 26.9632 68.9029 26.938 69.0263 26.9632C69.1249 26.9632 69.2235 26.9632 69.3468 26.9632C69.4206 26.9632 69.5199 26.9632 69.5936 26.9632C69.6674 26.9632 69.766 26.9632 69.8404 26.9632C69.939 26.9632 70.0134 26.9632 70.0872 26.9632C70.1609 26.9632 70.2595 26.938 70.3339 26.9632C70.4077 26.9632 70.5559 26.9632 70.6793 26.9632C70.9012 26.9632 71.1728 26.9884 71.37 26.938C71.4189 26.938 71.4685 26.9632 71.5182 26.9632C71.6905 26.9632 71.9869 26.9632 72.1351 26.938L73.6888 26.9127C73.9356 26.9127 74.2561 26.9127 74.5029 26.863C74.6263 26.863 74.7745 26.863 74.8979 26.863C75.0454 26.8377 75.268 26.8377 75.4404 26.8377C75.5141 26.8377 75.5638 26.8377 75.6375 26.8377C75.7113 26.8377 75.8843 26.8125 75.9829 26.8377C76.1062 26.863 76.402 27.1636 76.2544 27.3893C76.1807 27.6402 75.9339 27.6402 75.5886 27.6402C75.49 27.6402 75.4162 27.6402 75.317 27.6402C75.2184 27.615 75.095 27.615 74.9964 27.6402C74.9716 27.6402 74.9227 27.615 74.9227 27.615C74.8489 27.615 74.7007 27.615 74.627 27.615C74.5773 27.615 74.5284 27.6402 74.4788 27.6402C74.2568 27.5905 74.01 27.6402 73.7881 27.6402L71.3217 27.5905C70.9515 27.5905 70.5572 27.5905 70.1623 27.5905C69.9893 27.5905 69.7921 27.5652 69.6439 27.5905C69.5453 27.6157 69.422 27.5407 69.3234 27.5652C69.2248 27.5905 69.0028 27.5905 68.8795 27.5652C68.8057 27.5652 68.7313 27.5652 68.6327 27.5652C68.4845 27.54 68.2136 27.5652 68.0654 27.5652C67.9668 27.5652 67.8434 27.54 67.769 27.5652C67.547 27.5652 67.3499 27.54 67.152 27.54C66.6833 27.54 66.2146 27.54 65.7458 27.54C65.4991 27.54 65.2034 27.5148 64.9814 27.5652C64.7346 28.0166 64.5375 28.5682 64.2659 29.0195C64.1673 29.145 64.1425 29.3209 64.0687 29.4457C63.8468 29.7968 63.6986 30.1732 63.4766 30.4991C63.4518 30.5489 63.4518 30.6245 63.4277 30.6743C63.0086 31.4018 62.6384 32.1791 62.1945 32.8814C62.1449 33.0068 62.1207 33.107 62.0463 33.2073C61.4542 34.2102 60.862 35.1886 60.2706 36.1664C60.172 36.317 60.0486 36.4923 59.9253 36.643C59.4317 37.3957 58.9382 38.1225 58.4205 38.85C58.0014 39.452 57.5078 39.9784 57.088 40.5552C56.9895 40.6807 56.8661 40.7809 56.7675 40.9316C56.7179 40.9814 56.6689 41.0066 56.6193 41.057C56.4463 41.2827 56.274 41.4334 56.1258 41.6339C56.0768 41.6836 56.0272 41.7341 55.9776 41.7845C55.8542 41.9352 55.706 42.1105 55.5337 42.2359C55.3855 42.3614 55.2869 42.512 55.1387 42.6368C55.1139 42.6368 55.1139 42.662 55.1139 42.6873C55.0401 42.737 54.9905 42.8127 54.9167 42.8625C54.8919 42.8877 54.8671 42.9375 54.843 42.9627C54.5714 43.1632 54.3494 43.4393 54.0537 43.6398C54.0289 43.6895 53.9799 43.74 53.9551 43.7652C53.7083 43.9411 53.4864 44.1164 53.2644 44.2923C53.2396 44.342 53.2148 44.3673 53.1658 44.3925C53.0177 44.518 52.8453 44.6182 52.6723 44.7436C52.6475 44.7689 52.5985 44.8439 52.5737 44.8691C52.1546 45.1452 51.7348 45.4459 51.2909 45.722C51.2661 45.7473 51.2172 45.7473 51.1675 45.7725C51.069 45.8223 50.9704 45.898 50.8718 45.973C50.8222 45.9982 50.7732 45.9982 50.7236 46.0227C50.1315 46.3991 49.4408 46.6998 48.7749 47.0011C48.7012 47.0264 48.6515 47.0011 48.5778 47.0264C48.2572 47.1764 47.8871 47.3025 47.5417 47.4273C47.3935 47.477 47.2701 47.4525 47.1474 47.5023C47.024 47.5275 46.9007 47.6025 46.7773 47.6277C46.7283 47.6277 46.6787 47.6277 46.6291 47.6277C46.3575 47.7027 46.037 47.7532 45.766 47.8282C45.6923 47.8282 45.6178 47.8282 45.5441 47.8534C45.3221 47.9032 45.0016 47.9032 44.7548 47.9536C44.6811 47.9536 44.6066 47.9536 44.5329 47.9536C44.4591 47.9789 44.3357 47.9789 44.2365 47.9789C44.0641 48.0286 43.8911 47.9536 43.7188 47.9789C43.5216 48.0286 43.2252 47.9789 43.0033 47.9536C42.9543 47.9536 42.8799 47.9789 42.8309 47.9789C42.6579 47.9291 42.4118 47.9536 42.2388 47.9039C42.1899 47.9039 42.1402 47.9039 42.0913 47.9039C41.8445 47.8541 41.5977 47.8541 41.351 47.8036C41.129 47.7286 40.8581 47.7034 40.6113 47.6284C39.9206 47.4518 39.2548 47.2514 38.6137 47.0005ZM30.5473 37.0684C30.4239 36.6675 30.3743 36.2155 30.2509 35.8145C30.202 35.6141 30.2261 35.3884 30.1772 35.1873C30.1034 34.8866 30.1034 34.5355 30.029 34.2341C30.0042 34.1086 30.029 33.9327 30.0042 33.808C29.9794 33.6825 30.0042 33.5066 29.9794 33.3566C29.9794 33.2816 29.9794 33.2066 29.9794 33.1309C29.9545 33.0307 29.9545 32.8295 29.9545 32.7293C29.9545 32.6795 29.9545 32.6291 29.9545 32.5793C29.9297 32.4034 29.9297 31.8014 29.9545 31.6261C30.0042 31.4509 29.9545 31.275 29.9794 31.1243C29.9794 30.9989 29.9794 30.8734 30.0042 30.748C30.0531 30.422 30.029 30.0205 30.1027 29.7198C30.1027 29.67 30.1027 29.6195 30.1027 29.5691C30.2261 29.068 30.2013 28.5157 30.3247 28.0391C30.3737 27.8386 30.4729 27.5127 30.4481 27.3116C30.3991 27.3116 30.3495 27.3116 30.3247 27.3116C30.2757 27.2864 30.1765 27.2864 30.1027 27.2864C29.9794 27.2864 29.807 27.3116 29.6588 27.2864C29.5851 27.3361 29.3624 27.3116 29.2638 27.3116C29.1405 27.2864 28.771 27.3116 28.6469 27.3368C28.5483 27.3368 28.425 27.3116 28.3016 27.3116C28.1782 27.3368 28.03 27.3368 27.9073 27.3368C27.6357 27.3368 27.3648 27.3368 27.118 27.3368C26.6245 27.3368 26.082 27.362 25.5884 27.362C25.3665 27.362 25.1197 27.3368 24.9467 27.362C24.8233 27.3873 24.6751 27.362 24.5765 27.3873C24.4779 27.3873 24.3546 27.3873 24.2312 27.3873C24.1078 27.4125 23.8858 27.3873 23.7624 27.4125C23.6887 27.3873 23.6391 27.3873 23.5646 27.3873C23.3923 27.437 23.1945 27.4125 23.0221 27.437C22.9484 27.4118 22.8987 27.4118 22.825 27.4118C22.7264 27.437 22.4059 27.437 22.2825 27.437C22.2577 27.437 22.1839 27.4118 22.1343 27.437C21.9371 27.4623 21.6407 27.3873 21.4188 27.437C21.3202 27.4623 21.172 27.4118 21.0734 27.437C20.9749 27.4623 20.8515 27.437 20.7529 27.4623C20.5309 27.512 20.2842 27.4623 20.087 27.512C19.9884 27.5373 19.8651 27.512 19.7665 27.512C19.6927 27.512 19.6183 27.512 19.5445 27.512C19.2978 27.512 19.002 27.512 18.8049 27.5373C18.7559 27.5373 18.6815 27.5373 18.6319 27.5373C18.5333 27.5625 18.3851 27.512 18.2617 27.5373C18.2121 27.5625 18.0887 27.5373 17.9901 27.5625C17.6937 27.6375 17.3484 27.5625 17.003 27.6375C16.9045 27.6627 16.6825 27.6123 16.5343 27.6375C16.2627 27.6375 16.016 27.6627 15.745 27.6627C15.4245 27.7377 15.0054 27.6627 14.6601 27.7377C14.6111 27.763 14.5119 27.7377 14.4381 27.7377C14.2658 27.7875 14.0679 27.7377 13.8708 27.763C13.5254 27.8632 13.0815 27.763 12.7114 27.8632C12.6128 27.8632 12.4894 27.8632 12.3908 27.8632C12.0951 27.9382 11.7498 27.8884 11.4285 27.9634C11.3796 27.9634 11.3052 27.9634 11.2314 27.9634C10.935 28.0132 10.5897 27.9886 10.2939 28.0384C10.1954 28.0636 10.0968 28.0636 10.0223 28.0636C9.77558 28.1141 9.47985 28.0889 9.25789 28.1386C9.13451 28.1386 9.03593 28.1639 8.93736 28.1639C8.32043 28.3139 7.58078 28.2641 6.93904 28.4148C6.86528 28.4148 6.76603 28.44 6.66746 28.44C6.42069 28.4898 6.12496 28.4898 5.87819 28.5655C5.77962 28.5907 5.70585 28.5655 5.60661 28.5907C5.40946 28.6411 5.13788 28.6664 4.94073 28.7161C4.81734 28.7414 4.71877 28.7161 4.59538 28.7414C3.85573 28.9425 3.04099 29.0673 2.35096 29.3182C2.25239 29.3686 2.15314 29.3686 2.05457 29.4184C1.78298 29.5186 1.51207 29.6693 1.29011 29.8193C1.14191 29.9195 0.969577 30.0198 0.919954 30.2209C0.846191 30.4214 0.993717 30.5973 1.04334 30.6968C1.29011 31.048 1.61065 31.3241 1.95599 31.575C3.0658 32.4027 4.37342 33.0293 5.70518 33.6314C6.00091 33.7568 6.27249 33.857 6.56821 33.9825C7.28372 34.2839 8.07298 34.5593 8.83744 34.8607C8.88639 34.8607 8.96083 34.8859 9.00978 34.8859C9.42889 35.0611 9.89829 35.1866 10.3174 35.3373C10.367 35.3625 10.416 35.3625 10.4904 35.3625C10.8606 35.488 11.2797 35.6134 11.6498 35.7389C11.847 35.8139 12.02 35.8139 12.2171 35.8643C12.8093 36.0655 13.4503 36.2155 14.0673 36.3914C14.2644 36.4411 14.4616 36.4411 14.6594 36.4916C15.4983 36.7425 16.4109 36.8427 17.274 37.0684C17.4222 37.0936 17.5207 37.0684 17.6441 37.1189C18.31 37.2941 19.0745 37.3193 19.7403 37.47C19.8637 37.4952 19.9623 37.47 20.0857 37.4952C20.4062 37.5702 20.8501 37.5702 21.1707 37.6459C21.2692 37.6459 21.3437 37.6459 21.4423 37.6711C21.6642 37.7209 21.9358 37.6964 22.1578 37.7461C22.2811 37.7461 22.3797 37.7461 22.5031 37.7461C22.8484 37.8211 23.2186 37.7714 23.564 37.8464C23.7122 37.8961 23.8845 37.8464 24.0327 37.8716C24.1802 37.9214 24.4028 37.8716 24.5504 37.8968C24.5993 37.8968 24.6241 37.8968 24.6738 37.8968C24.7475 37.8968 24.8957 37.8968 24.9702 37.922C25.0439 37.922 25.1183 37.922 25.2169 37.922C25.2907 37.922 25.4389 37.9473 25.5375 37.9473C25.5623 37.922 25.6112 37.922 25.636 37.922C25.858 37.9718 26.1785 37.9473 26.4005 37.9473C26.5239 37.9473 26.7458 37.922 26.8196 37.9473C26.943 37.9473 27.0912 37.9473 27.1898 37.9473C27.4117 37.922 27.6826 37.9725 27.8556 37.922C28.028 37.8968 28.2258 37.9473 28.3733 37.8968C28.5705 37.8968 28.7683 37.8968 28.9406 37.8968C29.1136 37.847 29.3108 37.8968 29.5079 37.8716C29.8781 37.7714 30.2972 37.8211 30.6922 37.7461C30.7445 37.6705 30.5721 37.2191 30.5473 37.0684ZM31.6819 37.6452C31.8301 37.6452 31.9783 37.62 32.1011 37.5955C32.1748 37.5702 32.2493 37.5702 32.323 37.5702C32.4216 37.545 32.5698 37.545 32.6684 37.5205C32.9399 37.4455 33.2357 37.4455 33.4824 37.3698C33.5562 37.3698 33.6058 37.3698 33.6548 37.3698C33.8278 37.32 34.0249 37.2948 34.1979 37.2695C34.2469 37.2695 34.2965 37.2443 34.3455 37.2443C34.5922 37.1693 34.888 37.1441 35.1347 37.0684C35.2085 37.0684 35.2581 37.0432 35.3319 37.0432C35.8006 36.8925 36.319 36.7923 36.7622 36.6668C36.8112 36.6668 36.8608 36.6668 36.8856 36.6668C37.404 36.4916 37.9465 36.3655 38.4641 36.1902C38.9577 36.0395 39.4512 35.8391 39.9193 35.6632C40.4128 35.4627 40.8816 35.312 41.3007 35.0864C41.4489 35.0114 41.5971 35.0114 41.7446 34.9357C42.2133 34.6848 42.731 34.4591 43.1749 34.1836C43.2487 34.1332 43.3231 34.1086 43.4217 34.0582C43.6933 33.9327 43.9642 33.7323 44.2358 33.5816C44.2606 33.5564 44.3096 33.5564 44.3592 33.5066C44.4826 33.4316 44.6308 33.3314 44.7541 33.2557C44.779 33.2305 44.8527 33.2305 44.8775 33.1807C45.5193 32.7545 46.1355 32.3032 46.7525 31.8259C46.9496 31.6752 47.1226 31.4748 47.3446 31.3248C47.3935 31.2743 47.4183 31.2245 47.468 31.1741C47.5665 31.0991 47.6651 31.0234 47.7644 30.9484C47.8133 30.8734 47.8629 30.823 47.9126 30.7732C48.0359 30.673 48.1593 30.5468 48.2579 30.422C48.3565 30.2966 48.4799 30.2216 48.5536 30.1214C48.6522 29.9707 48.8004 29.8452 48.9238 29.7198C48.9727 29.67 48.9975 29.6195 49.0472 29.5691C49.3436 29.1682 49.6641 28.817 49.935 28.3657C49.9598 28.3405 50.0088 28.3152 50.0336 28.2907C50.157 28.0902 50.2804 27.8898 50.4037 27.6634C50.4534 27.5884 50.5271 27.5127 50.5519 27.3873C50.5271 27.362 50.5271 27.362 50.4782 27.362C50.4292 27.3368 50.1576 27.362 50.0591 27.362C49.7385 27.3368 49.3932 27.3368 49.0478 27.3368C47.8395 27.3368 46.6304 27.3368 45.422 27.3368C44.7313 27.3368 44.0903 27.3368 43.4237 27.3116C43.2755 27.3116 43.1273 27.3116 42.9798 27.3116C42.9302 27.3116 42.782 27.2864 42.733 27.2864C42.6096 27.3116 42.3877 27.3116 42.2395 27.2864C42.092 27.2864 41.9438 27.3116 41.7708 27.3116C41.5984 27.2864 41.4254 27.2864 41.2283 27.2864C41.0801 27.2864 40.9567 27.2864 40.8092 27.2864C40.6858 27.2864 40.5376 27.2864 40.4149 27.2611C40.2667 27.2611 40.0943 27.2864 39.9213 27.2864C39.7731 27.2359 39.5511 27.2611 39.3788 27.2611C39.132 27.2611 38.8611 27.2611 38.6144 27.2611C38.4662 27.2611 38.3186 27.2864 38.1952 27.2611C37.6528 27.2611 37.1103 27.2611 36.5671 27.2611C35.3829 27.2611 34.1255 27.2611 32.9902 27.2611C32.9165 27.3109 32.6938 27.2611 32.5959 27.2611C32.2995 27.2611 32.0534 27.2864 31.757 27.2864C31.6585 27.2864 31.4365 27.2359 31.3628 27.2864C31.3379 27.3116 31.3379 27.3116 31.3138 27.3361C31.24 27.4616 31.24 27.6873 31.2152 27.8632C31.1166 28.2143 31.0918 28.6405 30.9933 28.9916C30.9685 29.1668 30.9933 29.3427 30.9443 29.5186C30.8705 29.9195 30.9195 30.3961 30.8209 30.8223C30.8209 30.9232 30.8209 31.0486 30.8209 31.1482C30.7961 31.2736 30.8457 31.4243 30.8209 31.5491C30.772 31.725 30.772 32.3018 30.8209 32.4518C30.8457 32.6523 30.7961 32.8534 30.8457 33.0539C30.8457 33.1793 30.8457 33.3048 30.8457 33.4302C30.9691 33.932 30.9195 34.4836 31.0436 34.9602C31.0684 35.0857 31.0436 35.1859 31.0684 35.2861C31.1918 35.7123 31.2166 36.1636 31.34 36.5652C31.4385 36.9164 31.5619 37.2675 31.6363 37.6186C31.6578 37.6207 31.6819 37.6207 31.6819 37.6452ZM31.4352 26.6857C31.5337 26.7859 31.6571 26.7607 31.8295 26.7607C32.1259 26.7607 32.4216 26.7607 32.7173 26.7607C33.5066 26.7607 34.2958 26.7607 35.0851 26.7607C35.4553 26.7607 35.8496 26.7607 36.2197 26.7607C36.7381 26.7607 37.2806 26.7607 37.7983 26.7607C38.6861 26.7607 39.5988 26.7859 40.5114 26.7859C40.783 26.7859 41.1773 26.7361 41.4241 26.8111C41.5475 26.7859 41.6956 26.7859 41.8432 26.7859C42.0651 26.8364 42.3119 26.7607 42.5339 26.8111C42.7558 26.8364 43.0274 26.7614 43.2735 26.8111C43.3969 26.8364 43.5451 26.7859 43.6926 26.8111C43.9146 26.8364 44.211 26.8364 44.4323 26.8364C44.7038 26.8364 44.9748 26.8364 45.2215 26.8364C45.5669 26.8364 45.9122 26.8364 46.2824 26.8364C46.9731 26.8364 47.6886 26.8364 48.3793 26.8364C48.9466 26.8364 49.5139 26.8364 50.0812 26.8364C50.3032 26.8616 50.6237 26.8861 50.8457 26.8364C51.142 26.3598 51.3633 25.7577 51.5853 25.2061C51.7087 24.8802 51.7583 24.5291 51.8569 24.178C51.9065 24.002 51.9065 23.8268 51.9555 23.6516C52.0292 23.4007 52.0292 23.1 52.1037 22.8491C52.1037 22.7741 52.1037 22.7236 52.1037 22.6739C52.1526 22.4727 52.1037 22.1973 52.1526 21.9716C52.1526 21.9211 52.1526 21.8959 52.1526 21.8461C52.1774 21.7207 52.1774 21.4698 52.1526 21.3443C52.1526 21.2441 52.1526 21.1186 52.1526 21.0184C52.0788 20.7675 52.1278 20.4668 52.0788 20.2411C52.0299 20.0659 52.0299 19.8402 51.9803 19.6643C51.8817 19.288 51.8079 18.887 51.6845 18.5107C51.3144 17.3823 50.8705 16.5293 50.2542 15.6518C50.106 15.4261 49.9337 15.2509 49.7855 15.0498C49.7607 15 49.6869 15 49.6621 14.9495C49.3167 14.5486 48.9224 14.1975 48.4779 13.8961C47.3184 13.0432 46.0604 12.5666 44.1117 12.5666C44.038 12.617 43.8153 12.5666 43.6926 12.5918C43.3721 12.6668 43.0267 12.692 42.7303 12.7677C42.6814 12.793 42.6318 12.793 42.5822 12.793C42.385 12.8427 42.1879 12.9184 42.0148 12.9682C41.9652 12.9682 41.9163 12.9934 41.8666 12.9934C41.4724 13.1441 41.0774 13.2948 40.7072 13.47C40.5838 13.5198 40.4853 13.5955 40.3867 13.6452C40.2392 13.7455 40.091 13.7959 39.9428 13.8709C39.8938 13.8961 39.8442 13.9459 39.7946 13.9711C39.5478 14.1218 39.3258 14.2473 39.0791 14.4225C38.8075 14.5977 38.5614 14.7989 38.3146 14.9993C38.2408 15.0491 38.1664 15.15 38.0926 15.1998C37.8955 15.3505 37.7473 15.5257 37.5501 15.6764C37.5005 15.7016 37.4764 15.7514 37.4268 15.8018C37.2792 15.902 37.131 16.0527 37.0077 16.2027C36.8843 16.3534 36.6871 16.4789 36.5637 16.6289C36.3666 16.905 36.1446 17.1307 35.9468 17.4061C35.8979 17.4559 35.8482 17.5064 35.7986 17.5316C35.2809 18.2591 34.7626 18.9614 34.2938 19.6882C34.1953 19.8389 34.1456 19.9895 34.0719 20.1143C33.6031 20.867 33.2337 21.6443 32.8635 22.472C32.7897 22.648 32.6905 22.8484 32.6167 23.0236C32.543 23.1491 32.5182 23.2745 32.4685 23.4C32.37 23.6761 32.2466 23.9768 32.148 24.253C32.0246 24.5291 32.0005 24.8045 31.8764 25.1052C31.8275 25.2307 31.7778 25.4311 31.7282 25.5566C31.7034 25.607 31.7034 25.6316 31.7034 25.682C31.6545 25.8327 31.6296 26.008 31.58 26.1839C31.5337 26.3345 31.46 26.5098 31.4352 26.6857ZM38.3173 45.6961C38.6378 45.8461 38.9832 46.022 39.3285 46.1475C39.6001 46.273 39.9206 46.348 40.2164 46.4489C40.3397 46.4986 40.4383 46.4986 40.5617 46.5239C40.7589 46.5736 40.956 46.6493 41.1538 46.6991C41.2772 46.7243 41.3758 46.6991 41.4992 46.7243C41.7459 46.7993 42.0417 46.7993 42.2884 46.875C42.3622 46.875 42.4118 46.875 42.4608 46.875C42.5594 46.875 42.7075 46.9002 42.7813 46.9248C42.8309 46.8995 42.8799 46.8995 42.9295 46.8995C43.1025 46.9248 43.3734 46.9745 43.5464 46.9248C43.7436 46.8995 43.8918 46.9745 44.0648 46.9248C44.213 46.8995 44.3853 46.95 44.5335 46.8995C44.7803 46.8498 45.0512 46.8743 45.298 46.7993C45.3469 46.7993 45.4214 46.7993 45.4703 46.7993C45.9391 46.6739 46.4326 46.6486 46.8765 46.498C47.1971 46.3977 47.5672 46.2975 47.8629 46.172C47.9367 46.1468 47.9863 46.1468 48.0608 46.1223C48.3075 46.022 48.5784 45.8966 48.8252 45.7964C50.2562 45.1691 51.4646 44.3918 52.6488 43.5143C52.6736 43.4891 52.6978 43.4393 52.7226 43.4141C52.9446 43.2389 53.1417 43.0882 53.3637 42.913C53.4133 42.8877 53.4374 42.838 53.4871 42.7875C53.5856 42.7125 53.6594 42.6368 53.7586 42.5618C53.7834 42.5366 53.8324 42.4868 53.8572 42.4616C54.0544 42.3109 54.2026 42.1105 54.3997 41.9598C54.4735 41.91 54.5231 41.8343 54.5727 41.7845C54.9429 41.5084 55.1896 41.132 55.5102 40.8061C56.1023 40.1789 56.6696 39.527 57.1873 38.8248C57.2859 38.6741 57.4341 38.5486 57.5574 38.3986C58.0758 37.6466 58.6183 36.8939 59.136 36.1418C59.2594 35.9911 59.3331 35.8159 59.4324 35.64C59.6543 35.2889 59.9259 34.9125 60.172 34.5614C60.2458 34.3861 60.3202 34.2355 60.4188 34.0848C60.8379 33.4323 61.2081 32.7307 61.6272 32.0782C61.6761 31.978 61.7009 31.8525 61.7754 31.7523C61.9477 31.4761 62.1207 31.1755 62.2689 30.8741C62.4661 30.4977 62.6632 30.0968 62.8858 29.7205C62.9596 29.595 62.9844 29.4695 63.0334 29.3693C63.1568 29.1682 63.2312 28.993 63.3298 28.7925C63.3546 28.742 63.4035 28.7175 63.4035 28.6923C63.4773 28.5164 63.5517 28.3411 63.6503 28.1652C63.7241 28.065 63.9219 27.7139 63.9219 27.5632C63.7495 27.463 63.2808 27.5127 63.0092 27.5127C62.8362 27.5127 62.6391 27.5127 62.4909 27.5127C62.3675 27.5127 62.2689 27.538 62.1703 27.5127C62.0221 27.463 61.8002 27.5127 61.6527 27.4875C61.4307 27.4875 61.2087 27.4875 61.0109 27.4875C60.962 27.4875 60.8875 27.5127 60.8138 27.4875C60.6656 27.4623 60.4932 27.538 60.3202 27.4875C60.172 27.4623 59.9997 27.5127 59.8515 27.4623C59.7033 27.437 59.531 27.4623 59.3579 27.4623C59.136 27.4623 58.914 27.437 58.6673 27.437C58.4205 27.437 58.1496 27.437 57.9028 27.437C57.7056 27.4118 57.4341 27.437 57.2121 27.437C56.7434 27.437 56.2746 27.437 55.8059 27.437C55.189 27.437 54.4983 27.4118 53.882 27.4118C53.6353 27.4118 53.4133 27.4118 53.1665 27.4118C53.0183 27.4118 52.846 27.4118 52.6978 27.3866C52.5744 27.3866 52.451 27.3866 52.3276 27.4118C52.1305 27.3866 51.8348 27.3866 51.6369 27.3866C51.6121 27.3866 51.6121 27.3866 51.588 27.3866C51.4398 27.6375 51.3164 27.913 51.1441 28.1639C50.9711 28.4645 50.7491 28.7659 50.5271 29.0666C50.1818 29.593 49.7131 30.045 49.3429 30.5461C49.2443 30.6464 49.1209 30.7473 49.0224 30.8475C48.8493 31.0234 48.7018 31.1986 48.5288 31.3493C48.3806 31.4495 48.282 31.6255 48.1338 31.7257C47.9615 31.8764 47.8381 32.0264 47.6651 32.1518C47.4183 32.327 47.1964 32.503 46.9744 32.6782C46.9255 32.728 46.9007 32.7784 46.851 32.8289C46.7028 32.9039 46.5795 32.9795 46.4567 33.0798C46.4078 33.105 46.383 33.1548 46.3085 33.2052C45.766 33.6061 45.1739 33.9573 44.6066 34.3336C44.3847 34.4591 44.1379 34.5845 43.9159 34.71C43.867 34.7598 43.7925 34.7598 43.7429 34.785C43.2004 35.1109 42.5835 35.387 41.9672 35.6625C41.9183 35.6877 41.8438 35.7375 41.7949 35.7627C41.4496 35.9134 41.1042 36.0641 40.7589 36.1889C40.5369 36.2891 40.3149 36.3641 40.093 36.465C40.0192 36.4902 39.9696 36.465 39.8958 36.4902C39.698 36.6157 39.4271 36.6907 39.2051 36.7664C39.1555 36.7664 39.1066 36.7916 39.0569 36.7916C38.835 36.8918 38.5386 36.9675 38.3173 37.0677C38.2435 37.0677 38.1939 37.0677 38.1443 37.0677C37.5025 37.3186 36.7877 37.4441 36.097 37.6445C36.0481 37.6445 36.0233 37.6445 35.9736 37.6698C35.7269 37.7195 35.4553 37.77 35.2092 37.845C35.0858 37.8702 34.9624 37.845 34.8149 37.8948C34.5929 37.9698 34.3213 37.995 34.0994 38.0455C33.976 38.0707 33.8526 38.0707 33.7292 38.0959C33.4087 38.1709 33.0137 38.1961 32.6932 38.2711C32.4464 38.3209 32.1755 38.2964 31.9535 38.3714C31.9287 38.3966 31.9287 38.4211 31.9287 38.4716C32.0025 38.5466 32.0273 38.6973 32.0762 38.8227C32.1259 38.8977 32.1996 39.0232 32.2244 39.1241C32.323 39.2993 32.3726 39.4752 32.4464 39.6505C32.7669 40.2777 33.1123 40.8798 33.4824 41.4314C33.7292 41.8077 34.0249 42.1336 34.2965 42.51C34.3703 42.6102 34.4937 42.7105 34.5681 42.8114C34.8149 43.1373 35.185 43.4884 35.4808 43.7393C35.5297 43.7891 35.5545 43.8143 35.6041 43.8648C35.8509 44.04 36.0481 44.2657 36.2948 44.4416C36.8373 44.8425 37.4294 45.1936 38.0216 45.5448C38.1201 45.6211 38.2187 45.6457 38.3173 45.6961Z" fill="#FFB400"/>
<path d="M78.0589 31.852C77.8859 31.7517 77.8121 31.5008 77.8121 31.2499C77.8121 31.0747 77.8369 30.8988 77.8859 30.7488C78.0589 30.1972 78.2312 29.6954 78.4532 29.1936C78.5021 29.0177 78.5766 28.8677 78.6503 28.6924C78.6752 28.6167 78.7489 28.567 78.7489 28.4415H78.6752C78.6255 28.5417 78.4532 28.6672 78.3546 28.7422V28.7927C78.2809 28.8677 78.2071 28.9181 78.1575 28.9931C78.0093 29.1438 77.8369 29.2692 77.7136 29.4192C77.1711 29.9708 76.6527 30.5476 76.0358 30.999L75.7642 31.2499L75.5174 31.4006C75.4926 31.4258 75.4678 31.4763 75.4188 31.5008C75.1969 31.6263 74.8763 31.852 74.531 31.852L74.3587 31.8267C74.2601 31.8015 74.1857 31.8267 74.0871 31.777C73.9885 31.7272 73.8155 31.5008 73.7665 31.4006C73.6928 31.2751 73.668 31.0495 73.668 30.849L73.6928 30.5476C73.841 29.9961 74.0381 29.5195 74.2849 29.0933C74.3835 28.9427 74.4331 28.8172 74.5069 28.6672C74.9508 28.0147 75.5677 27.3124 76.2088 26.8617C76.3811 26.7363 76.5789 26.6606 76.7513 26.5358C76.998 26.3851 77.442 26.2099 77.8611 26.2099C78.0086 26.2099 78.1568 26.2352 78.305 26.3102C78.4532 26.3852 78.5518 26.4854 78.6752 26.5863C78.7 26.6361 78.7489 26.6613 78.7737 26.6865C78.8475 26.7867 78.8723 26.9122 78.9709 27.0124H78.9957C79.0695 26.962 79.2177 26.7363 79.2673 26.6613L79.3658 26.5863L79.6616 26.1601L79.9084 25.884C80.0565 25.6583 80.0069 25.5826 80.3026 25.5076L80.3764 25.4824H80.4254C80.6473 25.5322 80.8941 25.7081 80.8941 25.9583L80.8693 26.0838C80.8197 26.2345 80.7211 26.3851 80.6721 26.5351L80.5487 26.8365L79.9566 27.9152C79.8829 28.0406 79.8581 28.1913 79.7843 28.3161C79.6609 28.492 79.5623 28.7176 79.4638 28.9181C79.3652 29.1186 79.3156 29.319 79.217 29.5201C79.168 29.6204 79.0936 29.7206 79.0688 29.8208C78.995 29.9715 78.995 30.097 78.9206 30.247C78.8716 30.3976 78.7724 30.5476 78.7724 30.7236L78.822 30.7488C78.9944 30.5477 79.2411 30.3479 79.4389 30.1972C79.5623 30.1222 79.6361 29.9715 79.7347 29.8958C79.8581 29.7956 79.9566 29.6449 80.08 29.5447C80.2282 29.4445 80.3516 29.2938 80.4743 29.1683L80.6473 29.0176L81.6834 27.9642C81.8557 27.7883 82.0287 27.5633 82.2259 27.4126L82.423 27.2115L82.7435 26.9108C82.8421 26.8358 82.9165 26.7104 83.0151 26.6347C83.2867 26.4342 83.4839 26.2331 83.7796 26.0326C83.8292 26.0074 83.903 25.9324 83.9767 25.9072C84.1001 25.8574 84.2235 25.8574 84.3221 25.8574C84.4951 25.8574 84.6185 25.9072 84.717 26.0579C84.766 26.1581 84.8404 26.3088 84.8652 26.409L84.8901 26.5345C84.8901 26.6599 84.8411 26.7854 84.8163 26.8604C84.6929 27.2367 84.5206 27.5626 84.3227 27.8633C84.249 27.9888 84.2242 28.1142 84.1504 28.2397C84.0766 28.3399 83.9036 28.5908 83.8788 28.7163H83.9036V28.7415L83.9284 28.7163C84.0022 28.6911 84.0766 28.5656 84.1256 28.5158C84.2986 28.3147 84.4958 28.1395 84.6681 27.9642C84.9886 27.6383 85.285 27.2872 85.6545 27.0111C85.7283 26.9606 85.8027 26.8351 85.8765 26.7847C86.1232 26.6095 86.3204 26.4083 86.5672 26.2331C86.7395 26.1329 86.9125 25.957 87.1345 25.882L87.3323 25.8315L87.5543 25.8063C87.6528 25.8063 87.7273 25.8063 87.7762 25.8567C87.85 25.9065 87.8996 25.9822 87.9492 26.0824C88.023 26.1581 88.0967 26.2331 88.1216 26.3586L88.1464 26.484C88.1464 26.7097 88.0478 27.0608 87.9982 27.1611C87.85 27.5374 87.6528 27.8633 87.4798 28.1892C87.3564 28.3904 87.2827 28.5901 87.1593 28.7913C87.0359 28.9917 86.9373 29.1676 86.8387 29.3933C86.7891 29.4431 86.7402 29.4936 86.7402 29.5686L86.7891 29.5938C86.8629 29.4936 86.9869 29.3933 87.0855 29.2924L87.2337 29.1424L87.7273 28.6658C88.1464 28.2397 88.5413 27.7379 89.0101 27.3867L89.1583 27.2361L89.2568 27.1863L89.3554 27.0608C89.3802 27.0356 89.4292 27.0356 89.4788 27.0111C89.5526 26.9606 89.627 26.8856 89.7504 26.8351H89.8242C90.0709 26.8351 90.4411 27.0111 90.5397 27.1365C90.6134 27.2367 90.663 27.3874 90.663 27.5374L90.6382 27.6881V27.9138L90.5397 28.1149C90.5397 28.1899 90.5148 28.2656 90.4907 28.3406C90.4411 28.4661 90.3425 28.6167 90.2929 28.717L90.2681 28.8424L90.0213 29.2938L89.9723 29.4192C89.8986 29.5447 89.849 29.6954 89.7752 29.8454C89.7504 29.8952 89.7262 29.9204 89.7262 29.9708V29.9961C89.7511 30.0213 89.7262 30.0213 89.7752 30.0213C89.8986 29.9211 90.0957 29.8461 90.2439 29.7452C90.4411 29.6197 90.6382 29.469 90.8361 29.319C90.885 29.2938 90.9346 29.244 90.9836 29.1936C91.28 28.9679 91.5509 28.7422 91.8473 28.5417C91.9459 28.4415 92.0444 28.3154 92.1678 28.2404C92.6117 27.7638 92.7103 27.6383 92.8337 27.5633C92.9075 27.5129 92.9571 27.4126 93.0315 27.3622H93.1053C93.179 27.3622 93.2783 27.3622 93.3031 27.3874C93.4265 27.4126 93.5002 27.5633 93.5002 27.7133C93.5002 27.7631 93.5002 27.8136 93.4754 27.8633C93.4506 27.9636 93.1549 28.2145 93.0563 28.2649C91.8721 29.3183 91.1076 30.1208 90.2198 30.7481C90.0468 30.8988 89.8496 31.074 89.6277 31.1742L89.4553 31.224C89.3816 31.2492 89.2823 31.2738 89.1589 31.2738H89.0852C88.9128 31.224 88.6164 30.9724 88.5427 30.8224C88.5179 30.7726 88.5179 30.5715 88.5179 30.3963V30.2456C88.6164 29.8692 88.7398 29.5181 88.8632 29.167C88.937 29.0163 89.0604 28.8663 89.0604 28.6658H89.0114L88.9128 28.7156C88.8391 28.7906 88.7895 28.8908 88.6909 28.9413L88.6171 29.0667C88.4689 29.167 88.3207 29.3429 88.2228 29.4929L88.1242 29.5427L87.9023 29.8188L87.8285 29.8938C87.6562 30.1195 87.4342 30.3199 87.2612 30.5456C87.2116 30.6458 87.0882 30.6963 87.0144 30.7965C86.8662 30.997 86.6939 31.2227 86.4968 31.3733L86.3237 31.5738L86.1514 31.6488C86.0776 31.7238 86.0032 31.7988 85.8798 31.824L85.7812 31.8492C85.5097 31.8492 85.1643 31.6236 85.0906 31.5233C85.0168 31.4231 84.992 31.2976 84.992 31.147C84.992 30.7958 85.2139 30.3949 85.3125 30.144C85.6331 29.5672 85.9046 28.9658 86.25 28.4136L86.3982 28.0624C86.5464 27.8367 86.6449 27.6111 86.7683 27.3854C86.8173 27.2851 86.9165 27.1849 86.9165 27.0595L86.8669 27.0342C86.7932 27.1092 86.6698 27.1597 86.5953 27.2347L86.201 27.5361C85.9543 27.7365 85.7571 28.0127 85.5103 28.1879L85.2388 28.4892L84.9424 28.8151L84.77 28.9658C84.7211 29.0408 84.6714 29.1158 84.597 29.1915C84.5722 29.242 84.5232 29.2665 84.4736 29.317C84.3254 29.5181 84.1283 29.6933 83.9801 29.8938C83.7581 30.1951 83.5113 30.4958 83.2894 30.8217L83.0916 31.0481C82.9682 31.1988 82.8696 31.3488 82.7214 31.4995C82.6725 31.5492 82.6228 31.6249 82.5484 31.6502C82.4746 31.6754 82.4002 31.6999 82.3264 31.6999C82.2279 31.6999 82.1045 31.6747 82.0301 31.6249C81.9315 31.5499 81.7585 31.299 81.7585 31.0986L81.7833 30.9731L81.8819 30.7726L82.1038 30.2961L82.3754 29.8195C82.5236 29.5686 82.6222 29.2924 82.7697 29.0422C82.8186 28.9924 82.8187 28.8915 82.8683 28.8417L83.164 28.2902L83.2136 28.1149C83.3122 27.9895 83.386 27.8136 83.4604 27.6636L83.4852 27.5381C83.559 27.4379 83.6575 27.3124 83.6575 27.1617V27.1365C83.4852 27.1863 83.386 27.337 83.2874 27.4372C83.1144 27.5626 82.942 27.7133 82.7938 27.8633L82.5223 28.1142C82.2755 28.3147 82.0783 28.5902 81.8564 28.8165C81.511 29.1677 81.1167 29.5188 80.7955 29.9449C80.6969 30.0704 80.5487 30.1706 80.4502 30.2961C80.3516 30.4467 80.2282 30.5722 80.1048 30.7222L79.8332 30.9731C79.7595 31.0733 79.6602 31.1238 79.5617 31.224C79.3397 31.4749 79.0192 31.8008 78.6738 31.9263C78.6242 31.9515 78.5504 31.9515 78.4767 31.9515C78.3305 31.9529 78.1333 31.9024 78.0589 31.852ZM75.0742 30.6479L75.7897 30.1461C75.9131 30.0711 75.9868 29.9456 76.0854 29.8699C76.3322 29.6947 76.5541 29.469 76.8009 29.2679C76.9243 29.1929 77.0229 29.0422 77.1462 28.942C77.2944 28.8417 77.393 28.6658 77.5405 28.5656L77.7625 28.3651C77.8611 28.2145 78.0093 28.089 78.1568 27.9642C78.2306 27.864 78.305 27.7631 78.4036 27.6881C78.4036 27.4624 78.2306 27.2367 78.0582 27.1863C77.9845 27.1611 77.8363 27.1611 77.7377 27.1611C77.6639 27.2108 77.5405 27.2108 77.442 27.2361C77.2938 27.2865 77.047 27.3867 76.8995 27.4617C76.0606 27.9888 75.4443 28.5902 74.926 29.4683C74.7536 29.7445 74.6302 30.0956 74.5317 30.472L74.5069 30.6724C74.5069 30.7726 74.5317 30.8476 74.6302 30.8476C74.7288 30.774 74.9508 30.7236 75.0742 30.6479Z" fill="#FFB400"/>
<path d="M91.6526 31.5512C91.6036 31.5014 91.5788 31.4257 91.554 31.3507C91.505 31.301 91.4306 31.2253 91.4058 31.1503C91.3568 30.9996 91.332 30.8244 91.332 30.6737C91.332 30.1971 91.5044 29.6953 91.6278 29.3946C92.2199 27.99 92.9843 26.8869 94.2423 26.1341H94.3409C94.4643 26.0591 94.6366 25.9582 94.7848 25.9085L95.0316 25.8587H95.2287L95.4011 25.8335L95.6975 25.8587C95.8209 25.9337 95.9443 25.9841 96.0676 26.0346C96.2896 26.16 96.4619 26.411 96.5605 26.6864C96.6101 26.7866 96.5853 26.8869 96.6101 27.0123C96.6349 27.0375 96.6591 27.0873 96.6591 27.1378H96.708C96.8562 26.9871 96.9796 26.8364 97.0782 26.6612C97.2505 26.4355 97.4725 26.2098 97.6455 25.9589C97.8178 25.708 97.966 25.4073 98.2128 25.2314C98.3362 25.1564 98.4596 25.106 98.5582 25.106C98.7553 25.106 98.9283 25.2314 99.0021 25.4319C99.0269 25.5069 99.0269 25.5573 99.0269 25.6078C99.0269 25.7585 98.9531 25.8839 98.8794 25.9841C98.8546 26.0346 98.8546 26.0844 98.8297 26.1096C98.6815 26.3353 98.4844 26.561 98.3369 26.7866C97.8185 27.5646 97.3498 28.3419 96.9803 29.2446C96.8817 29.4703 96.6846 29.9469 96.6846 30.2728L96.7094 30.4235H96.7583C96.8321 30.4235 97.0051 30.298 97.0789 30.2482C97.4242 30.0478 97.7448 29.7716 98.0163 29.471L98.756 28.7687C98.929 28.5178 99.1751 28.3173 99.3729 28.0412C99.3977 27.9914 99.4963 27.941 99.5211 27.8912C99.9402 27.3144 100.409 26.7873 100.829 26.2357C100.977 26.01 101.149 25.8096 101.297 25.6091C101.371 25.5089 101.421 25.4332 101.519 25.3582C101.568 25.333 101.668 25.3085 101.766 25.3085L101.914 25.3337C102.087 25.4087 102.309 25.6098 102.309 25.8853C102.309 25.935 102.309 26.0107 102.284 26.0605C102.185 26.2862 102.037 26.4866 101.939 26.6878C101.717 27.1139 101.47 27.4903 101.248 27.9416L101.001 28.3678C100.976 28.4175 100.927 28.4428 100.927 28.5185V28.5437H100.976C101.075 28.4182 101.198 28.3425 101.297 28.2423C101.445 28.0166 101.692 27.791 101.889 27.6403L101.914 27.5905C101.987 27.4903 102.087 27.4398 102.185 27.3648C102.259 27.2898 102.333 27.1896 102.407 27.1391C102.851 26.8132 103.246 26.4369 103.715 26.1607C103.838 26.085 104.282 25.935 104.529 25.935H104.603C104.676 25.9603 104.751 26.01 104.825 26.0605C104.948 26.1103 105.047 26.1607 105.096 26.261C105.195 26.4116 105.22 26.5869 105.22 26.7873C105.22 27.0887 105.146 27.3894 105.047 27.6403C104.776 28.2928 104.48 28.8941 104.233 29.5964C104.159 29.7975 103.986 30.2489 103.986 30.5244V30.6246H104.06C104.134 30.6246 104.233 30.5489 104.282 30.5244C104.554 30.3737 104.776 30.2735 105.022 30.0982C105.811 29.5214 106.576 28.9194 107.587 27.7405C107.736 27.5898 107.982 27.1637 108.303 27.1637L108.451 27.1889C108.624 27.2639 108.748 27.4896 108.748 27.6907C108.748 27.791 108.699 27.8912 108.624 27.9669L108.18 28.2928C108.008 28.4435 107.514 29.0953 107.317 29.246C107.219 29.3462 107.12 29.4716 107.021 29.5466C106.7 29.7975 106.404 30.0982 106.083 30.3491C106.034 30.3744 106.01 30.4494 105.96 30.4746C105.615 30.7255 105.294 31.0262 104.949 31.2519C104.727 31.4025 104.53 31.528 104.283 31.6282L104.135 31.6535C104.061 31.6787 103.986 31.7032 103.888 31.7032H103.814C103.765 31.7032 103.716 31.6535 103.666 31.6535C103.567 31.6037 103.469 31.6282 103.394 31.5785C103.271 31.5035 103.098 31.2021 103.049 31.0269L103.074 30.3498C103.345 29.4969 103.641 28.7196 103.938 27.9171C104.036 27.6662 104.135 27.416 104.184 27.165C104.209 27.1153 104.258 27.015 104.258 26.9394L104.233 26.8896L104.184 26.8644H104.159C104.109 26.8644 103.912 26.9898 103.862 27.015C103.591 27.1405 103.394 27.2912 103.172 27.4412C103.098 27.491 103.048 27.5919 102.975 27.6416C102.728 27.8175 102.531 28.018 102.333 28.2185L101.939 28.6446C101.79 28.845 101.593 28.9957 101.47 29.171L100.36 30.7262L100.015 31.2778L99.8913 31.4032C99.8175 31.5287 99.6693 31.7291 99.4225 31.7291L99.2991 31.7039C99.0772 31.6289 98.7815 31.4278 98.7815 31.1271L98.8063 31.0016C98.8311 30.9014 98.9048 30.8012 98.9297 30.7003C99.1516 30.1991 99.4232 29.7219 99.6452 29.2207C99.7437 29.0196 99.9416 28.7946 99.9416 28.5437C99.6948 28.7946 99.4728 29.07 99.2509 29.3714L99.1523 29.4464C99.0041 29.6728 98.8069 29.8725 98.6339 30.0737C98.585 30.1235 98.5354 30.1487 98.5105 30.1991C98.2142 30.5503 97.8447 30.9014 97.4745 31.1775L97.3511 31.2778C97.3022 31.3282 97.2774 31.303 97.2277 31.3282L97.1043 31.4285L96.932 31.4789C96.8086 31.5287 96.7349 31.5539 96.6356 31.5539L96.3888 31.5041C96.2903 31.4789 96.1917 31.4789 96.1173 31.4291C95.9939 31.3541 95.9443 31.2532 95.8705 31.1278L95.7471 30.9525V30.8523L95.7223 30.476C95.7223 30.15 95.8457 29.8487 95.9194 29.5978C95.9684 29.4975 95.9684 29.3973 96.018 29.2964C96.0676 29.1464 96.191 28.9957 96.2152 28.7953C96.1903 28.7953 96.1903 28.7953 96.1903 28.8205C96.067 28.8457 96.0173 28.9712 95.9188 29.0462L95.3266 29.6987C94.6608 30.3757 93.9949 31.0528 93.1808 31.5546C93.0822 31.6296 92.6873 31.7803 92.4901 31.7803H92.4405C92.3419 31.7803 92.2433 31.7803 92.1689 31.8055C92.0227 31.7516 91.7511 31.6262 91.6526 31.5512ZM92.7624 30.6478C93.0339 30.5475 93.2801 30.4221 93.502 30.2469C94.5132 29.5698 95.3769 28.7169 96.1414 27.7889C96.0428 27.2878 95.9691 26.8357 95.3521 26.8357C95.3032 26.8855 95.1798 26.861 95.1054 26.8855C95.0068 26.9107 94.8834 26.9353 94.76 26.9857L94.6614 27.0607L94.5381 27.086C93.8474 27.5121 93.2801 28.0391 92.8609 28.7162L92.5894 29.2678C92.4412 29.5685 92.2936 29.97 92.2936 30.3962C92.2936 30.4964 92.2936 30.6219 92.3184 30.7221C92.3674 30.7473 92.417 30.7473 92.4418 30.7473C92.5652 30.7487 92.6638 30.6982 92.7624 30.6478Z" fill="#FFB400"/>
<path d="M104.7 37.294C104.355 37.1938 104.232 36.9927 104.232 36.7172C104.232 36.4663 104.33 36.1908 104.405 35.9147C104.478 35.7142 104.478 35.5383 104.553 35.3631V35.2377C104.578 35.1122 104.627 34.937 104.676 34.8115V34.7113C104.775 34.3349 104.824 33.9088 104.923 33.5324C104.972 33.3565 104.972 33.1813 104.997 33.0306L105.095 32.3031V32.1524C105.144 31.8763 105.144 31.5504 105.194 31.2742C105.194 31.249 105.194 31.1992 105.169 31.174L105.218 30.8979L105.193 30.6967C105.218 30.6715 105.218 30.647 105.218 30.5965V29.9692L105.193 29.8186L105.218 29.5424L105.193 29.3672C105.119 29.0413 105.144 28.6397 105.045 28.339V28.1638C104.946 27.8624 104.897 27.5365 104.798 27.2611C104.551 26.584 104.256 25.982 103.861 25.4304C103.342 24.7029 102.529 24.1008 101.764 23.5997C101.715 23.5745 101.69 23.5499 101.64 23.5499L101.246 23.3242C100.827 23.0986 100.334 22.8477 99.84 22.7222L99.6428 22.697L99.2237 22.7222H98.4593L98.3117 22.7474H97.0779L96.7822 22.7727L96.634 22.7979H95.4745L94.5867 22.8477H94.2165L93.9698 22.8729L93.723 22.8477L93.5996 22.8729H92.8103L92.4402 22.8981L91.9714 22.8729L91.5523 22.8981L91.1084 22.8483H90.8864C90.7383 22.7986 90.5411 22.7986 90.4177 22.7733H90.2943L90.122 22.6983L89.9 22.6486C89.7766 22.5981 89.5547 22.3724 89.5547 22.1222V22.0465C89.6036 21.8208 89.6284 21.5952 89.7766 21.4697C90.0234 21.2945 90.4425 21.244 90.7879 21.1438H90.9361C91.2566 21.0436 91.7005 21.0681 92.0707 20.9679L92.2926 20.9427L93.3287 20.9174L93.8222 20.8677L94.069 20.8929C94.1428 20.8677 94.1924 20.8677 94.2662 20.8677H94.6363L95.9681 20.9174C96.0418 20.9427 96.1163 20.9427 96.19 20.9427C96.2638 20.9427 96.3382 20.9427 96.412 20.9679C96.7573 21.0429 97.1764 21.0429 97.497 21.1186C97.5707 21.1438 97.6204 21.1438 97.67 21.1438C97.7196 21.1438 97.7934 21.1438 97.8423 21.169C98.4096 21.2945 99.0018 21.3695 99.5443 21.5454C99.8158 21.6204 100.112 21.7206 100.358 21.8215L100.531 21.8713C100.629 21.9211 100.777 21.9967 100.901 22.022L102.701 22.0472C102.849 22.0472 103.047 22.0472 103.096 22.0724C103.145 22.0472 103.194 22.0472 103.244 22.0472L104.23 22.0724C104.354 22.0724 104.477 22.0724 104.576 22.0977L104.699 22.0724L104.822 22.0977H105.538L106.007 22.0724L106.155 22.0977H106.5C106.697 22.1229 106.969 22.1229 107.191 22.1229H107.684L107.981 22.1481L108.622 22.1229H109.929C110.028 22.1229 110.127 22.1229 110.201 22.0977C110.695 20.9945 111.139 19.8654 111.607 18.7622L112.446 16.8558C112.643 16.4045 112.84 15.9783 113.063 15.5515C113.162 15.3258 113.235 15.1002 113.384 14.9242C113.433 14.8492 113.581 14.749 113.68 14.7238L113.779 14.6733C113.877 14.6733 113.976 14.6733 114.05 14.6986C114.174 14.7736 114.347 14.9242 114.347 15.1499L114.322 15.2502C114.273 15.4506 114.149 15.6265 114.05 15.8017C113.927 15.9777 113.878 16.1781 113.754 16.3786C113.064 17.7074 112.373 19.0622 111.781 20.492L111.609 20.8179C111.46 21.0688 111.387 21.3442 111.263 21.5952C111.214 21.7458 111.066 21.9211 111.066 22.097C111.066 22.097 111.091 22.097 111.091 22.1222L115.358 22.1474L115.531 22.1727L115.827 22.1474L116 22.1727H116.987C117.258 22.1979 117.53 22.1979 117.801 22.1979H118.195C119.625 22.2231 121.032 22.2231 122.463 22.2231H131.539L137.188 22.1979L137.682 22.2231L138.027 22.1727H138.767L140.099 22.1474C140.296 22.1474 140.493 22.1474 140.691 22.1222H144.193C144.317 22.1222 144.44 22.1222 144.514 22.097L144.712 22.0717L145.032 22.097L145.229 22.0717H145.476L146.586 22.0465C146.759 22.0465 146.98 22.0465 147.178 22.0213L147.35 21.9961H147.72L148.46 21.9708L148.929 21.9456H149.027C149.126 21.9708 149.2 22.0458 149.249 22.1215C149.299 22.1713 149.348 22.2722 149.348 22.3724V22.4222C149.299 22.6731 149.126 22.7986 148.854 22.7986C148.756 22.7986 148.682 22.7986 148.583 22.7733L148.435 22.7481L147.078 22.7229H146.56C146.437 22.7229 146.264 22.7229 146.141 22.6977L145.968 22.6724L145.598 22.6977H145.4C145.277 22.6977 145.006 22.6977 144.883 22.6724C144.784 22.6724 144.685 22.6724 144.562 22.6977C144.463 22.6724 144.365 22.6724 144.266 22.6724L143.772 22.6472L143.55 22.6724L142.983 22.6472H140.392L140.294 22.622L139.973 22.6472C139.875 22.622 139.726 22.622 139.603 22.622H111.755L111.434 22.5967L111.286 22.622H110.817C110.645 22.9233 110.522 23.2492 110.373 23.6004C110.176 24.077 109.929 24.5788 109.708 25.0799L109.412 25.8572L108.45 28.0895L108.425 28.2149C108.4 28.2654 108.351 28.3152 108.351 28.3656C108.277 28.4911 108.252 28.6165 108.203 28.742C108.178 28.8674 108.079 29.0181 108.03 29.1183C107.808 29.6706 107.611 30.2467 107.365 30.799L107.241 31.2252C106.847 32.0781 106.575 33.0061 106.23 33.8836C106.181 34.009 106.156 34.1345 106.107 34.2347C105.933 34.7113 105.786 35.2377 105.613 35.7142L105.564 36.0402C105.515 36.2406 105.465 36.4915 105.391 36.6674L105.317 36.9436C105.243 37.069 105.046 37.3199 104.8 37.3199L104.7 37.294ZM106.254 31.5763C106.254 31.5258 106.328 31.5013 106.353 31.4508C106.402 31.3506 106.402 31.2252 106.451 31.0997C106.575 30.8236 106.723 30.5229 106.821 30.2467C106.92 30.0463 106.969 29.8458 107.068 29.6195C107.71 28.1399 108.276 26.6352 108.918 25.1297L109.091 24.7533L109.634 23.4238C109.707 23.2486 109.781 23.0474 109.881 22.8715C109.905 22.7965 109.954 22.7461 109.954 22.6458H109.929C109.905 22.6206 109.856 22.6206 109.806 22.6206H105.07C104.108 22.6206 103.195 22.6458 102.283 22.6711V22.6963L102.603 22.8967C102.752 22.9717 102.9 23.0727 103.047 23.1729C103.146 23.2486 103.244 23.374 103.368 23.449C103.713 23.7252 104.059 24.0006 104.305 24.3524C104.33 24.4022 104.404 24.4274 104.429 24.4527C105.095 25.2804 105.539 26.1831 105.884 27.3367C105.982 27.6627 106.032 28.0138 106.106 28.3649V28.4904C106.155 28.6915 106.155 28.967 106.204 29.1674V29.5936C106.229 29.6692 106.229 29.7442 106.229 29.8445V30.1206L106.254 30.2208C106.229 30.3708 106.229 30.5972 106.229 30.7977V31.3247L106.18 31.7011H106.205L106.254 31.5763Z" fill="#FFB400"/>
<path d="M122.016 7.27364C122.041 7.575 121.968 7.8 121.893 8.02636C121.893 8.07614 121.893 8.12659 121.893 8.17636C121.4 9.90682 120.66 11.4116 119.969 12.9668C119.92 13.0923 119.846 13.2177 119.772 13.3432C119.698 13.4686 119.673 13.6445 119.599 13.7693C119.574 13.7693 119.55 13.7945 119.55 13.8191C119.525 13.8695 119.501 13.9193 119.501 13.9698C119.403 14.1457 119.303 14.3461 119.205 14.5214C119.18 14.5718 119.156 14.6216 119.156 14.672C119.082 14.7975 118.983 14.923 118.934 15.073C118.86 15.1984 118.835 15.3239 118.737 15.4493C118.613 15.7002 118.465 15.9764 118.342 16.2014C118.293 16.2518 118.293 16.3016 118.268 16.352C117.996 16.8539 117.725 17.3802 117.429 17.8568C117.404 17.9073 117.404 17.9325 117.379 17.9823C117.182 18.3082 117.009 18.6348 116.812 18.9607C116.738 19.0616 116.714 19.187 116.639 19.3118C115.653 20.942 114.715 22.5968 113.63 24.1268C113.605 24.1773 113.605 24.227 113.581 24.2523C113.507 24.3777 113.383 24.478 113.334 24.5782C113.26 24.7036 113.21 24.8039 113.137 24.9041C112.767 25.4305 112.397 25.9323 112.052 26.4341C111.879 26.6598 111.657 26.8855 111.509 27.1364C111.484 27.1616 111.509 27.2366 111.484 27.287C111.46 27.3368 111.411 27.362 111.386 27.4125C111.386 27.4623 111.386 27.5127 111.361 27.5632C111.361 27.613 111.312 27.6382 111.287 27.6886C111.287 27.7384 111.287 27.7636 111.287 27.7889C111.262 27.8393 111.213 27.8639 111.213 27.8891C111.189 27.9389 111.189 27.9893 111.189 28.0391C111.164 28.0895 111.115 28.1148 111.09 28.1645C111.065 28.2395 111.09 28.29 111.041 28.3398C111.041 28.365 111.016 28.365 110.992 28.3902C110.992 28.44 110.992 28.4905 110.992 28.5409C110.967 28.5661 110.918 28.6159 110.894 28.6411C110.894 28.6916 110.894 28.7414 110.894 28.7666C110.869 28.817 110.82 28.8416 110.795 28.892C110.795 28.9425 110.795 28.9923 110.77 29.0427C110.77 29.068 110.721 29.0932 110.696 29.143C110.696 29.1927 110.696 29.2432 110.672 29.293C110.672 29.3182 110.623 29.3434 110.623 29.3686C110.598 29.4184 110.598 29.4689 110.598 29.5193C110.573 29.5445 110.524 29.5691 110.524 29.5943C110.499 29.67 110.499 29.7198 110.475 29.7702C110.475 29.82 110.426 29.8452 110.401 29.8705C110.401 29.9209 110.401 29.9959 110.377 30.0464C110.377 30.0716 110.327 30.0961 110.327 30.1214C110.302 30.1711 110.302 30.2216 110.278 30.2966C110.278 30.3218 110.229 30.3218 110.229 30.347C110.204 30.422 110.204 30.4725 110.179 30.5223C110.179 30.572 110.131 30.5973 110.106 30.6225C110.081 30.6975 110.106 30.748 110.081 30.7977C110.056 30.823 110.032 30.8475 110.032 30.8475C110.007 30.9232 110.007 30.973 109.982 31.0486C109.982 31.0739 109.933 31.0984 109.909 31.1236C109.909 31.1741 109.909 31.1993 109.909 31.2491C109.884 31.2743 109.835 31.3248 109.81 31.3493C109.81 31.4243 109.81 31.4748 109.81 31.5245C109.785 31.5498 109.736 31.575 109.736 31.6248C109.711 31.65 109.711 31.6998 109.711 31.7502C109.687 31.7755 109.662 31.8 109.638 31.8252C109.613 31.8757 109.613 31.9507 109.589 32.0257C109.589 32.0509 109.54 32.0761 109.515 32.1259C109.515 32.1757 109.515 32.2514 109.49 32.3018C109.465 32.3516 109.416 32.3516 109.416 32.477C109.441 32.5023 109.441 32.5023 109.441 32.5268C109.466 32.5016 109.466 32.5016 109.49 32.5016C110.403 30.8714 111.39 29.2909 112.45 27.7861C112.944 27.0839 113.437 26.3816 114.004 25.7795C114.103 25.6793 114.202 25.5791 114.276 25.4789C114.325 25.4284 114.375 25.4032 114.424 25.3534C114.449 25.3036 114.473 25.2784 114.523 25.228C114.696 25.0773 114.868 24.9518 115.065 24.8018C115.09 24.7766 115.115 24.7268 115.139 24.7268C115.213 24.677 115.287 24.677 115.361 24.6266C115.386 24.6014 115.435 24.5509 115.484 24.5264C115.583 24.5011 115.978 24.4766 116.101 24.5011C116.2 24.5264 116.298 24.5761 116.373 24.6511C116.496 24.7261 116.521 24.8516 116.595 24.977C116.62 25.0527 116.693 25.1277 116.743 25.228C116.792 25.3534 116.718 25.4789 116.743 25.6043C116.768 25.755 116.743 25.905 116.718 26.0305C116.718 26.1055 116.718 26.1805 116.693 26.2309C116.669 26.4068 116.595 26.6073 116.545 26.758C116.545 26.8077 116.52 26.8582 116.52 26.9086C116.496 26.9584 116.471 27.0341 116.447 27.0839C116.422 27.1589 116.422 27.2093 116.398 27.285C116.398 27.3102 116.349 27.3348 116.349 27.36C116.324 27.435 116.324 27.4855 116.324 27.5359C116.299 27.6109 116.25 27.6866 116.225 27.7364C116.201 27.7861 116.201 27.8366 116.201 27.887C116.003 28.3384 115.806 28.7898 115.658 29.2664C115.559 29.5173 115.46 29.7682 115.362 30.0184C115.337 30.0934 115.263 30.2441 115.288 30.2945C115.288 30.3198 115.288 30.3198 115.337 30.3198C115.411 30.2195 115.657 30.1193 115.756 30.0184C116.028 29.818 116.274 29.5923 116.545 29.3911C116.57 29.3414 116.619 29.2909 116.669 29.2411C117.039 28.965 117.31 28.6139 118.395 27.5857C118.42 27.5857 118.42 27.5605 118.444 27.5359C118.469 27.4855 118.518 27.4609 118.568 27.4357C118.666 27.3607 118.716 27.2605 118.814 27.1848C119.11 26.9843 119.505 27.21 119.431 27.3348C119.604 27.7609 119.308 28.0118 119.086 28.2382C119.036 28.288 119.012 28.3384 118.913 28.4639C118.864 28.5395 118.765 28.6398 118.741 28.665C117.951 29.4423 117.729 29.7934 117.483 29.9693C117.434 30.0191 117.409 30.0695 117.359 30.1445C117.261 30.2202 117.162 30.2952 117.063 30.3702C117.038 30.3955 116.989 30.4452 116.964 30.4957C116.767 30.6457 116.594 30.8216 116.397 30.9716C116.372 30.9968 116.348 31.022 116.323 31.0473C116.126 31.198 115.929 31.3234 115.731 31.4482C115.682 31.4734 115.657 31.5484 115.633 31.5736C115.584 31.5989 115.534 31.5989 115.46 31.6234C115.386 31.6732 115.312 31.7489 115.213 31.7986C115.164 31.7986 115.114 31.7986 115.04 31.8239C114.892 31.8491 114.695 31.9241 114.522 31.8491C114.35 31.7741 114.029 31.498 113.955 31.3473C113.93 31.2218 113.955 31.0711 113.93 30.9211C113.88 30.6948 113.979 30.4193 114.029 30.2441C114.029 30.1943 114.053 30.1439 114.053 30.0689C114.251 29.4416 114.448 28.7645 114.695 28.1625C114.72 28.1127 114.744 28.037 114.744 27.962C114.818 27.8366 114.867 27.6607 114.916 27.5107C114.941 27.4609 114.941 27.4105 114.941 27.3852C115.04 27.1595 115.138 26.8834 115.213 26.6577C115.213 26.608 115.213 26.5827 115.213 26.5323C115.238 26.4825 115.287 26.432 115.287 26.3816C115.287 26.3318 115.311 26.2814 115.311 26.2309C115.336 26.1307 115.385 26.0305 115.41 25.8798C115.385 25.8798 115.361 25.8798 115.336 25.8798C115.262 25.9548 115.139 26.0052 115.065 26.0802C114.916 26.1805 114.769 26.3311 114.621 26.4566C114.497 26.5568 114.349 26.7573 114.226 26.8827C114.152 26.983 114.029 27.058 113.954 27.1589C113.658 27.5352 113.313 27.8864 113.041 28.2873C111.956 29.7416 110.969 31.2716 110.032 32.8268C109.958 32.927 109.958 33.0273 109.884 33.103C109.612 33.5543 109.341 34.0309 109.045 34.4823C108.996 34.5825 108.971 34.708 108.921 34.8082C108.748 35.0339 108.601 35.3093 108.453 35.5602C108.403 35.6605 108.379 35.7355 108.329 35.8364C108.231 35.9618 108.132 36.1125 108.058 36.2625C108.033 36.3123 108.033 36.3375 108.009 36.388C108.009 36.4132 107.96 36.4377 107.96 36.4629C107.812 36.7391 107.688 37.065 107.565 37.3405C107.54 37.3909 107.54 37.4407 107.54 37.4659C107.515 37.5157 107.466 37.5914 107.442 37.6411C107.442 37.6664 107.442 37.7161 107.442 37.7666C107.195 38.3434 106.948 38.9707 106.702 39.5475C106.603 39.8236 106.455 40.5259 105.986 40.3248C105.814 40.2498 105.641 39.9989 105.764 39.748C105.789 39.6477 105.888 39.5973 105.937 39.5223C105.986 39.422 106.035 39.2966 106.11 39.1964C106.135 39.1459 106.135 39.0961 106.184 39.0205C106.282 38.82 106.381 38.6195 106.479 38.3932C106.479 38.368 106.529 38.3182 106.553 38.2677C106.603 38.1675 106.603 38.117 106.652 38.0168C106.676 37.9916 106.725 37.9664 106.75 37.9166C106.75 37.8668 106.75 37.8164 106.775 37.7659C106.775 37.7407 106.824 37.7161 106.824 37.6909C106.824 37.6411 106.849 37.5907 106.849 37.5402C106.874 37.4905 106.898 37.4652 106.922 37.4148C106.947 37.365 106.922 37.3145 106.947 37.2395C106.972 37.2143 106.997 37.1891 107.021 37.1645C107.046 37.1148 107.046 37.0643 107.071 37.0139C107.071 36.9886 107.12 36.9641 107.144 36.9136C107.144 36.8639 107.144 36.8134 107.144 36.7636C107.169 36.7132 107.218 36.6886 107.243 36.6382C107.243 36.5884 107.243 36.5632 107.268 36.5127C107.268 36.4875 107.317 36.463 107.342 36.4377C107.342 36.388 107.342 36.3375 107.366 36.287C107.366 36.2618 107.416 36.2373 107.44 36.212C107.44 36.1623 107.44 36.137 107.44 36.1118C107.465 36.0368 107.514 35.9864 107.539 35.9359C107.539 35.9107 107.539 35.8609 107.539 35.8357C107.564 35.7859 107.613 35.7607 107.637 35.7355C107.637 35.6857 107.637 35.6605 107.637 35.61C107.662 35.5602 107.711 35.535 107.736 35.5098C107.736 35.4593 107.736 35.4095 107.736 35.3591C107.761 35.3339 107.81 35.3086 107.81 35.2589C107.834 35.2336 107.834 35.1839 107.834 35.1334C107.859 35.1082 107.908 35.0584 107.933 35.0332C107.933 34.9834 107.933 34.933 107.958 34.8832C107.958 34.858 108.007 34.8327 108.007 34.8082C108.032 34.7577 108.007 34.7332 108.032 34.6575C108.056 34.607 108.105 34.5825 108.105 34.532C108.13 34.4816 108.13 34.4318 108.13 34.3814C108.155 34.3309 108.204 34.2811 108.229 34.2559C108.254 34.1809 108.229 34.1305 108.278 34.0548C108.278 34.0548 108.303 34.0295 108.327 34.0295C108.327 33.9791 108.327 33.9293 108.327 33.8789C108.351 33.8291 108.4 33.8039 108.4 33.7786C108.425 33.7289 108.425 33.6784 108.425 33.628C108.45 33.6027 108.474 33.5782 108.499 33.553C108.524 33.5025 108.499 33.4527 108.524 33.4023C108.549 33.3518 108.573 33.3273 108.598 33.302C108.622 33.2523 108.598 33.227 108.622 33.1514C108.647 33.1261 108.696 33.0764 108.696 33.0511C108.721 32.9761 108.721 32.9257 108.745 32.8507C108.745 32.8507 108.795 32.8255 108.795 32.8002C108.82 32.7505 108.82 32.7 108.82 32.6495C108.844 32.6243 108.893 32.5745 108.918 32.5493C108.918 32.4995 108.918 32.4491 108.918 32.3986C108.943 32.3489 108.992 32.3236 108.992 32.2984C109.017 32.248 109.017 32.1982 109.017 32.1477C109.041 32.0973 109.09 32.0727 109.115 32.0223C109.115 31.9725 109.115 31.9473 109.14 31.8968C109.14 31.847 109.19 31.8218 109.214 31.7966C109.214 31.7468 109.214 31.7216 109.214 31.6711C109.239 31.6459 109.288 31.5961 109.288 31.5709C109.312 31.5205 109.312 31.4707 109.312 31.4202C109.337 31.3705 109.386 31.32 109.411 31.2948C109.411 31.2443 109.411 31.2198 109.411 31.1693C109.436 31.1441 109.485 31.0943 109.51 31.0439C109.51 31.0186 109.51 30.9682 109.51 30.9184C109.534 30.868 109.583 30.8175 109.608 30.7677C109.608 30.7173 109.608 30.6675 109.633 30.6423C109.633 30.617 109.658 30.5925 109.683 30.5925C109.707 30.542 109.707 30.467 109.732 30.4166C109.732 30.3668 109.78 30.3416 109.805 30.2911C109.805 30.2414 109.805 30.1909 109.805 30.1405C109.83 30.1152 109.879 30.0655 109.904 30.0402C109.904 29.9898 109.904 29.9652 109.904 29.9148C109.929 29.8895 109.978 29.8398 110.002 29.7893C110.002 29.7389 110.002 29.6891 110.027 29.6386C110.027 29.6386 110.052 29.6134 110.076 29.5882C110.101 29.5384 110.076 29.488 110.101 29.413C110.126 29.3632 110.175 29.338 110.2 29.2875C110.2 29.2377 110.2 29.1873 110.224 29.1375C110.224 29.1123 110.273 29.0877 110.298 29.0373C110.298 28.9875 110.298 28.937 110.323 28.9118C110.323 28.862 110.373 28.8368 110.397 28.8116C110.397 28.7611 110.397 28.7114 110.397 28.6609C110.422 28.6357 110.47 28.5852 110.47 28.5607C110.495 28.5109 110.495 28.4605 110.495 28.41C110.52 28.3848 110.569 28.3602 110.569 28.335C110.594 28.26 110.594 28.2095 110.618 28.1598C110.618 28.1345 110.667 28.11 110.667 28.0848C110.692 28.0343 110.692 27.9593 110.692 27.9089C110.741 27.8086 110.79 27.7582 110.815 27.6075C110.741 27.5325 110.643 27.482 110.618 27.3818C110.47 27.0307 110.741 26.7545 110.865 26.5541C110.89 26.5036 110.89 26.4791 110.914 26.4286C111.26 25.9268 111.63 25.4005 111.95 24.8482C111.975 24.7984 111.975 24.7227 111.999 24.673C111.999 24.6477 112.048 24.6232 112.048 24.598C112.073 24.5475 112.048 24.4977 112.073 24.4473C112.098 24.3968 112.147 24.3723 112.172 24.3218C112.172 24.2714 112.172 24.2216 112.172 24.1711C112.197 24.1459 112.246 24.0961 112.27 24.0709C112.295 23.9952 112.27 23.9455 112.295 23.895C112.32 23.8698 112.345 23.8698 112.369 23.82C112.369 23.7948 112.369 23.745 112.394 23.6945C112.394 23.6693 112.443 23.6195 112.467 23.5943C112.467 23.5445 112.467 23.4941 112.467 23.4436C112.492 23.4184 112.541 23.3939 112.541 23.3434C112.566 23.293 112.566 23.2432 112.59 23.1927C112.59 23.1423 112.639 23.1177 112.664 23.0925C112.664 23.042 112.664 23.0168 112.664 22.967C112.689 22.9418 112.738 22.892 112.763 22.8416C112.763 22.7918 112.763 22.7666 112.763 22.7161C112.787 22.6909 112.836 22.6411 112.836 22.6159C112.861 22.5661 112.861 22.5157 112.885 22.4652C112.885 22.4155 112.934 22.3902 112.959 22.3398C112.984 22.29 112.959 22.2395 112.984 22.1891C112.984 22.1891 113.033 22.1639 113.033 22.1393C113.058 22.0895 113.058 22.0139 113.082 21.9641C113.107 21.9136 113.131 21.8884 113.156 21.8639C113.156 21.8141 113.156 21.7889 113.156 21.7384C113.181 21.7132 113.23 21.6634 113.255 21.6382C113.255 21.5884 113.255 21.538 113.28 21.4875C113.28 21.4377 113.328 21.4125 113.353 21.362C113.378 21.3123 113.353 21.2618 113.378 21.2114C113.378 21.2114 113.427 21.1861 113.427 21.1616C113.452 21.1364 113.452 21.0866 113.452 21.0361C113.477 20.9864 113.526 20.9359 113.55 20.8855C113.599 20.76 113.599 20.6598 113.649 20.5091C113.698 20.4089 113.797 20.2834 113.846 20.1832C113.846 20.1334 113.846 20.083 113.871 20.0332C113.871 20.008 113.921 19.9575 113.945 19.9323C113.945 19.8825 113.945 19.832 113.945 19.8068C113.97 19.757 114.019 19.7318 114.019 19.7066C114.092 19.5559 114.092 19.4557 114.167 19.3057C114.192 19.2307 114.29 19.08 114.315 19.0043C114.34 18.9293 114.34 18.8789 114.364 18.8284C114.413 18.7282 114.487 18.5775 114.537 18.4773C114.709 18.0007 114.882 17.5493 115.104 17.1232C115.129 17.0734 115.129 16.9977 115.153 16.9227C115.325 16.5716 115.474 16.1952 115.647 15.7943C115.647 15.7691 115.696 15.7193 115.72 15.6689C115.794 15.4677 115.844 15.2925 115.942 15.1173C115.942 15.0668 115.992 15.0423 116.016 14.9918C116.14 14.7409 116.213 14.49 116.313 14.2139C116.337 14.1886 116.386 14.1389 116.411 14.1136C116.559 13.7625 116.683 13.4618 116.83 13.11C116.83 13.0848 116.88 13.0602 116.88 13.035C116.954 12.9095 116.978 12.7841 117.027 12.6586C117.126 12.433 117.274 12.2073 117.373 11.9816C117.546 11.5555 117.743 11.1293 117.965 10.753C118.014 10.6527 118.039 10.5525 118.088 10.4516C118.137 10.3009 118.236 10.1257 118.335 9.97568C118.36 9.95045 118.36 9.9 118.385 9.87545C118.409 9.77523 118.483 9.64977 118.557 9.54955C118.582 9.49909 118.582 9.44932 118.606 9.37364C118.804 9.07227 118.976 8.72182 119.173 8.39523C119.198 8.34477 119.198 8.295 119.223 8.24455C119.248 8.19477 119.297 8.16955 119.321 8.14432C119.346 8.09386 119.346 8.04409 119.37 7.99364C119.444 7.86818 119.543 7.74273 119.617 7.61727C119.666 7.5675 119.666 7.51705 119.691 7.46727C119.716 7.41682 119.765 7.39159 119.814 7.34182C119.839 7.29205 119.839 7.24159 119.863 7.19182C119.888 7.14136 119.937 7.11614 119.962 7.09091C120.036 7.01591 120.06 6.94091 120.11 6.86523C120.159 6.81477 120.184 6.79023 120.209 6.765C120.282 6.68932 120.332 6.58909 120.406 6.53864C120.455 6.48886 120.529 6.46364 120.579 6.41318C120.628 6.36341 120.677 6.28773 120.751 6.2625C120.825 6.23727 120.899 6.21273 120.973 6.1875C121.294 6.1875 121.367 6.23727 121.54 6.36273C121.787 6.48818 121.935 6.56318 122.009 6.86455C122.065 6.9975 122.016 7.14818 122.016 7.27364ZM109.387 32.6045C109.387 32.6045 109.387 32.6045 109.362 32.5793C109.362 32.6045 109.362 32.6045 109.337 32.6291C109.362 32.6543 109.337 32.6291 109.362 32.6543C109.362 32.6543 109.362 32.6543 109.387 32.6543C109.387 32.6543 109.387 32.6543 109.387 32.6291C109.387 32.6298 109.387 32.6298 109.387 32.6045ZM113.432 22.547C113.432 22.5218 113.432 22.5218 113.408 22.5218C113.408 22.547 113.408 22.547 113.383 22.5968C113.408 22.5968 113.383 22.5968 113.408 22.5968C113.432 22.5968 113.408 22.5968 113.432 22.5968C113.432 22.5723 113.432 22.5723 113.432 22.547ZM120.363 8.70273C120.339 8.70273 120.339 8.70273 120.315 8.6775C120.043 8.97886 119.846 9.32932 119.624 9.68114C119.599 9.73091 119.55 9.78136 119.525 9.83182C119.205 10.333 118.933 10.8348 118.613 11.3366C118.539 11.4368 118.514 11.5623 118.44 11.6625C118.243 12.0136 118.07 12.39 117.848 12.7159C117.823 12.7909 117.799 12.8414 117.799 12.917C117.577 13.2682 117.379 13.6691 117.206 14.0707C117.157 14.1961 117.058 14.2964 117.009 14.4218C116.836 14.7982 116.664 15.1241 116.516 15.5005C116.467 15.6007 116.368 15.7261 116.319 15.8264C115.924 16.7291 115.529 17.6318 115.134 18.5352C114.715 19.438 114.295 20.3407 113.95 21.2939C113.925 21.3436 113.876 21.3941 113.852 21.4193C113.827 21.4943 113.852 21.5195 113.827 21.57C113.802 21.5952 113.778 21.6198 113.753 21.645C113.753 21.6702 113.753 21.72 113.728 21.7705C113.728 21.7957 113.679 21.8461 113.654 21.8959C113.654 21.9211 113.654 21.9464 113.654 21.9961C113.63 22.0214 113.581 22.0711 113.556 22.1216C113.556 22.1714 113.556 22.1966 113.556 22.247C113.507 22.322 113.482 22.2723 113.482 22.4223C113.482 22.4223 113.482 22.4223 113.507 22.4475L113.532 22.4223C113.852 21.8952 114.198 21.3689 114.518 20.8425C114.765 20.4164 115.012 19.9895 115.283 19.5634C115.283 19.5136 115.307 19.4884 115.332 19.438C115.48 19.187 115.628 18.9116 115.775 18.6852C115.8 18.6355 115.824 18.585 115.824 18.5352C116.046 18.1589 116.268 17.758 116.515 17.3816C116.54 17.3059 116.54 17.2561 116.589 17.2057C116.761 16.8798 116.934 16.5286 117.131 16.202C117.18 16.127 117.18 16.0766 117.205 16.0016C117.328 15.8011 117.427 15.5755 117.55 15.3491C117.896 14.672 118.266 13.9698 118.562 13.2423C118.611 13.1168 118.71 12.9914 118.759 12.8659C118.857 12.6402 118.932 12.4398 119.03 12.2141C119.08 12.0886 119.179 11.938 119.228 11.8377C119.401 11.4116 119.574 10.9602 119.746 10.5586C119.795 10.3834 119.82 10.258 119.869 10.1073C119.968 9.90614 120.042 9.65591 120.141 9.45477C120.141 9.405 120.166 9.35455 120.166 9.30409C120.24 9.12955 120.315 8.90386 120.363 8.70273Z" fill="#FFB400"/>
<path d="M125.424 31.7769L125.301 31.8021H125.153L124.734 31.7769L124.117 31.8021C123.5 31.7523 122.859 31.7271 122.39 31.5014C122.291 31.4762 122.218 31.376 122.118 31.3262C122.02 31.2505 121.896 31.2007 121.822 31.1005L121.773 30.9498C121.699 30.8244 121.601 30.7494 121.551 30.5987C121.551 30.5482 121.551 30.4732 121.526 30.4228C121.526 30.3478 121.501 30.2721 121.477 30.1971L121.501 29.8957C121.526 29.8207 121.526 29.7451 121.526 29.6701L121.773 28.8921L121.822 28.7919L121.995 28.3657C122.02 28.3153 122.069 28.3153 122.069 28.2151C122.019 28.1898 122.019 28.1653 121.945 28.1653C121.699 28.4414 121.402 28.6923 121.181 28.993C121.082 29.1185 120.909 29.1935 120.811 29.3441C120.687 29.4948 120.564 29.6455 120.392 29.7703L120.318 29.8957C120.244 29.9707 120.146 30.0464 120.046 30.0962L119.701 30.4978C119.405 30.6982 119.183 30.9737 118.887 31.2001L118.739 31.2498C118.517 31.4005 118.393 31.5007 117.999 31.526H117.752C117.579 31.4762 117.333 31.2498 117.259 31.1251C117.185 31.0248 117.21 30.9246 117.185 30.7991L117.16 30.5482C117.16 30.0723 117.407 29.5951 117.53 29.2446C117.752 28.7428 117.974 28.2914 118.246 27.8401C118.271 27.7896 118.32 27.7644 118.344 27.7398L118.418 27.5891C118.443 27.5891 118.467 27.5639 118.492 27.5394C118.788 27.1132 119.059 26.7369 119.454 26.411C119.503 26.3857 119.528 26.336 119.553 26.3107C119.602 26.2603 119.651 26.2603 119.701 26.2351C119.751 26.2098 119.775 26.1348 119.849 26.0844L119.997 26.0591C120.046 26.0094 120.071 25.9589 120.146 25.9337C120.343 25.8335 120.565 25.8082 120.787 25.7585L121.33 25.7837C121.675 25.8839 121.996 26.1348 122.119 26.4362C122.168 26.5616 122.218 26.6366 122.242 26.7621V26.8876C122.242 26.9373 122.267 26.9626 122.292 26.9878H122.317C122.539 26.8119 122.736 26.5869 122.909 26.3605L123.081 26.2105C123.18 26.0851 123.303 25.9596 123.378 25.8341L123.55 25.6589C123.649 25.6091 123.698 25.5082 123.747 25.4585L123.994 25.333C124.388 25.333 124.561 25.5082 124.561 25.7591C124.561 26.0598 124.536 25.9344 124.463 26.1355C124.364 26.3864 124.191 26.6871 124.068 26.938L123.97 27.1391C123.97 27.1644 123.921 27.1889 123.896 27.2394L123.871 27.3648C123.6 27.8162 123.353 28.3432 123.156 28.8444C123.057 29.1457 122.81 29.5964 122.81 29.998L122.835 30.1991C122.884 30.2244 122.959 30.2994 123.032 30.3246C123.328 30.4501 123.698 30.4753 124.044 30.5755H124.192L124.562 30.626H124.784C124.957 30.6757 125.203 30.6512 125.401 30.6757H125.549C125.648 30.701 125.796 30.701 125.894 30.701H126.141C126.166 30.7262 126.265 30.7262 126.363 30.7262H126.585C126.757 30.7514 126.955 30.7514 127.128 30.7514H128.014L128.384 30.7766H129.568L129.815 30.8019L130.358 30.7766L130.95 30.8264L131.814 30.8012C132.455 30.8012 133.121 30.8012 133.762 30.8264H140.151L140.447 30.8012L140.546 30.8264L140.817 30.8012L140.941 30.8264H141.804C142.938 30.8012 144.049 30.8012 145.184 30.8012L150.216 30.776L150.413 30.7507L150.585 30.7255L150.955 30.7507L172.908 30.7003H175.868C176.041 30.6751 176.239 30.6751 176.436 30.6751H177.398L177.546 30.6498L177.818 30.6751L177.965 30.6498C178.064 30.6246 178.163 30.6246 178.262 30.6246H179.125L179.742 30.5994H182.653C182.973 30.5741 183.294 30.5741 183.615 30.5741H184.429L184.651 30.5489C184.7 30.5489 184.725 30.5489 184.749 30.5741C184.922 30.5741 185.144 30.5741 185.267 30.5489H185.933C186.032 30.5237 186.155 30.5237 186.254 30.5237L186.821 30.5489L187.068 30.5237H189.214L189.756 30.4985C189.805 30.4985 189.879 30.4985 189.953 30.5237C190.101 30.4985 190.274 30.4985 190.447 30.4985H193.529C193.726 30.4985 193.973 30.4985 194.17 30.4732L194.565 30.4985L194.713 30.4732H196.785C196.958 30.4732 197.13 30.4732 197.229 30.5482C197.327 30.6239 197.451 30.7746 197.451 30.9498V31.0248C197.377 31.3262 197.155 31.4257 196.859 31.4257C196.735 31.4257 196.612 31.4257 196.464 31.376H196.242L195.996 31.3507C195.897 31.3255 195.799 31.3255 195.699 31.3255C195.601 31.3255 195.502 31.3255 195.403 31.3003H194.811L194.589 31.2751L193.429 31.2253C193.232 31.2001 193.059 31.2001 192.862 31.2001H192.542L192.171 31.2253L192.048 31.2001H191.629C191.457 31.1748 191.21 31.1748 191.012 31.1748H189.779L189.655 31.1496H189.187C189.088 31.1244 188.965 31.1244 188.841 31.1244H187.337L186.769 31.0991L186.079 31.1244H182.773L182.107 31.0991L181.787 31.1244H180.899L180.43 31.1496H179.691L179.025 31.1244L178.531 31.1748H177.668C177.421 31.2001 177.175 31.2001 176.929 31.2001H173.82L173.697 31.2253L173.45 31.2001C173.105 31.2253 172.76 31.2253 172.389 31.2253H172.143L171.896 31.2505L171.674 31.2253L171.353 31.2751L170.983 31.2498H150.88C150.806 31.2498 150.732 31.2498 150.683 31.2751H149.499C149.35 31.2751 149.227 31.2751 149.104 31.3003H146.218C146.12 31.3003 146.021 31.3003 145.947 31.3255H145.083C144.984 31.3507 144.886 31.3507 144.787 31.3507H144.368C144.27 31.3507 144.171 31.3507 144.072 31.376L143.751 31.3507C143.628 31.376 143.48 31.376 143.357 31.376C143.184 31.376 142.938 31.376 142.79 31.4012H139.854L139.213 31.4264H138.916L138.399 31.4516C138.35 31.4264 138.3 31.4264 138.226 31.4264H137.905C137.782 31.4264 137.658 31.4264 137.56 31.4516H136.869L136.77 31.4769L136.573 31.4516L136.351 31.4769H135.66C135.438 31.4769 135.241 31.4769 135.018 31.5021H133.588L132.823 31.5273L131.59 31.5526L131.171 31.5778H130.777C130.678 31.603 130.58 31.603 130.48 31.603L129.987 31.6282H129.74L128.901 31.6535C128.778 31.6787 128.654 31.6787 128.531 31.6787H128.062C127.939 31.6787 127.816 31.6787 127.717 31.7039L127.323 31.7291H126.977L126.805 31.7544H126.041L125.646 31.8041L125.424 31.7769ZM118.814 30.1214L119.603 29.5691C120.072 29.1928 120.491 28.7414 120.96 28.391L121.058 28.2655L121.354 27.9894C121.379 27.9894 121.576 27.7882 121.601 27.763L121.626 27.688C121.626 27.5878 121.577 27.4371 121.527 27.3866C121.428 27.0853 121.255 26.9353 120.836 26.9353L120.565 26.9857C120.392 27.0355 120.17 27.1364 120.046 27.2366C119.307 27.7385 118.764 28.541 118.418 29.3932C118.32 29.5937 118.147 29.9953 118.147 30.296V30.3962L118.245 30.4214C118.394 30.2973 118.641 30.2216 118.814 30.1214Z" fill="#FFB400"/>
</g>
<defs>
<clipPath id="clip0_2_24354">
<rect width="172" height="48" fill="white"/>
</clipPath>
</defs>
</svg>
